<?xml version="1.0" encoding="UTF-8" standalone="no"?>
<svg
   width="31.50058"
   height="41.774746"
   viewBox="0 0 31.50058 41.774746"
   version="1.1"
   id="svg1"
   sodipodi:docname="favicon.svg"
   inkscape:version="1.4 (86a8ad7, 2024-10-11)"
   xmlns:inkscape="http://www.inkscape.org/namespaces/inkscape"
   xmlns:sodipodi="http://sodipodi.sourceforge.net/DTD/sodipodi-0.dtd"
   xmlns:xlink="http://www.w3.org/1999/xlink"
   xmlns="http://www.w3.org/2000/svg"
   xmlns:svg="http://www.w3.org/2000/svg"
   xmlns:rdf="http://www.w3.org/1999/02/22-rdf-syntax-ns#"
   xmlns:cc="http://creativecommons.org/ns#"
   xmlns:dc="http://purl.org/dc/elements/1.1/">
  <sodipodi:namedview
     id="namedview1"
     pagecolor="#ffffff"
     bordercolor="#000000"
     borderopacity="0.25"
     inkscape:showpageshadow="2"
     inkscape:pageopacity="0.0"
     inkscape:pagecheckerboard="0"
     inkscape:deskcolor="#d1d1d1"
     showgrid="false"
     inkscape:zoom="15.1625"
     inkscape:cx="19.126134"
     inkscape:cy="19.422918"
     inkscape:window-width="2880"
     inkscape:window-height="1586"
     inkscape:window-x="6709"
     inkscape:window-y="351"
     inkscape:window-maximized="1"
     inkscape:current-layer="Pages" />
  <title
     id="title1">LOGO</title>
  <defs
     id="defs1">
    <polygon
       id="path-1"
       points="80.875274,79.989497 0,79.989497 0,0.0070021882 80.875274,0.0070021882 " />
  </defs>
  <g
     id="Pages"
     stroke="none"
     stroke-width="1"
     fill="none"
     fill-rule="evenodd"
     style="fill:#202c44;fill-opacity:1"
     transform="translate(-21.865656,-20.633021)">
    <g
       id="Birch-5.-Private-Content"
       transform="translate(-49,-5088)"
       style="fill:#202c44;fill-opacity:1">
      <g
         id="LOGO"
         transform="translate(49,5088)"
         style="fill:#202c44;fill-opacity:1">
        <g
           id="Group-3"
           style="fill:#202c44;fill-opacity:1">
          <mask
             id="mask-2"
             fill="#ffffff">
            <use
               xlink:href="#path-1"
               id="use1" />
          </mask>
          <g
             id="Clip-2"
             style="fill:#202c44;fill-opacity:1" />
        </g>
        <path
           d="m 38.921488,27.637812 c 0.195536,-0.170503 0.411204,-0.28884 0.393523,-0.577681 -0.318425,0.08053 -0.427309,0.237024 -0.393523,0.577681 z m -2.807702,27.543457 c -0.220044,-0.363063 -0.492779,-0.458643 -0.831685,-0.297243 0.231422,0.231073 0.519737,0.270285 0.831685,0.297243 z M 34.335405,27.224858 c -0.06477,-0.462495 -0.125514,-0.89523 -0.188359,-1.343545 -0.247177,0.653654 -0.226171,1.098468 0.188359,1.343545 z m 7.117199,4.361313 c 0.145295,0.285514 0.419431,0.291291 0.677637,0.390547 0.0018,-0.199563 0.0891,-0.387571 -0.103458,-0.489103 -0.195536,-0.103107 -0.391772,-0.06565 -0.574179,0.09856 z m -16.636849,7.559562 c 0.148271,-0.418031 -0.07597,-0.615667 -0.637724,-0.936017 -0.05199,0.390897 0.204814,0.76814 0.637724,0.936017 z M 47.852079,26.868796 c -0.0046,-0.03273 -0.0091,-0.06529 -0.01365,-0.09803 -0.621095,-0.04289 -1.251117,-0.151598 -1.813392,0.226696 0.0035,0.02713 0.0072,0.05427 0.01085,0.0814 0.605339,-0.07002 1.210679,-0.140044 1.816192,-0.210066 z m 2.951072,-0.368139 c -0.843064,0.102231 -1.676674,0.02188 -2.488053,0.283763 0.180657,0.265383 0.406477,0.216718 0.633173,0.149147 0.50941,-0.151773 1.016718,-0.300569 1.558687,-0.167528 0.169628,0.04184 0.25418,-0.06477 0.296193,-0.265382 z m 0.889978,-4.362539 c 0.0072,0.05234 0.0089,0.07825 0.01418,0.103107 0.09033,0.417156 0.144245,0.834486 0.073,1.26337 -0.01681,0.101182 0.02783,0.220919 0.06967,0.321401 0.06354,0.151772 0.186258,0.16245 0.287265,0.02818 0.04359,-0.05812 0.0877,-0.140744 0.08123,-0.207439 -0.02993,-0.307397 -0.06127,-0.616718 -0.124289,-0.918688 -0.04849,-0.232297 -0.17873,-0.430984 -0.40105,-0.589934 z M 41.522976,60.858293 c -0.05269,-0.454617 -0.09873,-0.898556 -0.1607,-1.340219 -0.01,-0.07282 -0.08945,-0.135842 -0.141269,-0.209715 -0.174005,0.153873 -0.282714,0.279212 -0.196412,0.496455 0.03554,0.08928 0.0014,0.205864 0.0012,0.310197 0,0.145996 -0.01365,0.294092 0.0065,0.437287 0.04779,0.33873 0.0919,0.362888 0.490678,0.305995 z m -3.993523,-5.381531 c 0.301794,-0.532517 0.191685,-0.818381 -0.357287,-0.999388 -0.02643,-0.0088 -0.05462,-0.01313 -0.08017,-0.02363 -0.145995,-0.06004 -0.281663,-0.05462 -0.363238,0.09628 -0.07878,0.146346 -0.01453,0.275361 0.100656,0.370941 0.225471,0.187133 0.458293,0.364814 0.700044,0.555799 z m 1.499869,-1.48709 c -0.207265,-1.75e-4 -0.28744,0.141794 -0.241751,0.371116 0.05742,0.28744 0.273085,0.458118 0.474048,0.640525 0.121313,0.109934 0.261007,0.126039 0.377768,0.02748 0.122539,-0.103282 0.191685,-0.262056 0.0709,-0.405076 -0.173829,-0.205514 -0.37024,-0.392298 -0.562275,-0.581532 -0.03589,-0.03519 -0.09803,-0.04394 -0.118687,-0.05252 z M 38.19116,53.794661 c -0.01873,0.0063 -0.03764,0.0126 -0.05637,0.01891 -0.01138,0.187308 -0.01313,0.375667 -0.03571,0.5614 -0.04866,0.39965 0.132166,0.756236 0.479125,0.943195 0.127615,0.06862 0.222494,0.08087 0.322976,-0.05129 0.09523,-0.125514 0.119212,-0.230897 0.0035,-0.350285 -0.0681,-0.0702 -0.129366,-0.147221 -0.199388,-0.215492 -0.16245,-0.158074 -0.291641,-0.328228 -0.338555,-0.562101 -0.02433,-0.121663 -0.114836,-0.230021 -0.17558,-0.344332 z M 35.971641,26.341357 c 0.204814,0.02066 0.234048,-0.110285 0.269935,-0.229497 0.106258,-0.353085 0.208665,-0.707396 0.315273,-1.060306 0.07685,-0.253655 0.03641,-0.476149 -0.146871,-0.711948 -0.407702,0.613567 -0.472473,1.287352 -0.438337,2.001751 z M 51.900394,24.84919 c -0.03396,-0.004 -0.06792,-0.0082 -0.102057,-0.01243 -0.07142,0.183457 -0.140919,0.367614 -0.214792,0.550196 -0.106258,0.262407 -0.214967,0.523764 -0.323676,0.785121 -0.01313,0.03186 -0.04954,0.06372 -0.04552,0.09155 0.01225,0.08928 0.02206,0.186959 0.0674,0.259431 0.01698,0.02678 0.140744,0.01295 0.198338,-0.01646 0.348358,-0.17768 0.536017,-0.470547 0.523763,-0.859693 -0.0082,-0.266609 -0.06722,-0.531817 -0.103457,-0.797725 z m -2.014705,-0.17628 c -0.02346,0.014 -0.04096,0.01821 -0.04481,0.02783 -0.220218,0.553348 -0.510809,1.05698 -0.992385,1.429497 -0.02451,0.01891 -0.04691,0.08122 -0.03484,0.09821 0.02293,0.03221 0.07195,0.06477 0.109584,0.06425 0.12499,-0.0018 0.249979,-0.02399 0.375318,-0.02749 0.279562,-0.0077 0.482275,-0.119738 0.57523,-0.396499 0.03116,-0.09243 0.07562,-0.180656 0.102757,-0.274136 0.09278,-0.318074 0.0842,-0.626871 -0.09085,-0.921663 z m -26.883151,8.843239 c -0.589409,0.756236 -0.733654,1.640613 -0.748183,2.5621 0.532516,-0.77059 0.767789,-1.628358 0.748183,-2.5621 z m 13.594749,-7.37628 c -0.03151,-0.0018 -0.06302,-0.0033 -0.09453,-0.0051 -0.06547,0.149322 -0.167527,0.293392 -0.189409,0.448665 -0.05847,0.413479 0.03519,0.810854 0.272735,1.15221 0.08175,0.117637 0.252604,0.176981 0.390547,0.248578 0.03046,0.01575 0.123239,-0.01786 0.135492,-0.04902 0.06337,-0.161751 0.106784,-0.317024 -5.25e-4,-0.49558 -0.127089,-0.211291 -0.220393,-0.444814 -0.311247,-0.675536 -0.08,-0.203239 -0.136367,-0.415755 -0.203063,-0.624245 z m 2.543019,35.602801 c 0.09243,-0.356412 0.06477,-0.786696 -0.0716,-1.211029 -0.146521,-0.455317 -0.506608,-0.677287 -1.040525,-0.604989 0.0877,0.104858 0.162801,0.187134 0.229321,0.276061 0.09348,0.124639 0.207615,0.243677 0.261882,0.384595 0.04394,0.114486 0.02661,0.259257 0.0119,0.387747 -0.04604,0.403151 0.02871,0.542144 0.4007,0.694092 0.06407,0.02626 0.130416,0.04621 0.208315,0.07352 z M 33.948184,48.100306 c 0.0089,-0.03011 0.01821,-0.06057 0.02748,-0.09103 -0.06775,-0.08105 -0.119562,-0.200613 -0.206039,-0.236674 -0.333479,-0.139344 -0.670109,-0.28744 -1.020394,-0.367615 -0.853041,-0.195186 -1.687877,-0.429409 -2.469672,-0.834661 -0.168927,-0.08753 -0.370415,-0.114661 -0.558949,-0.16035 -0.03519,-0.0086 -0.108184,0.01891 -0.116237,0.04446 -0.0133,0.04236 -0.0051,0.115536 0.02451,0.142845 0.09628,0.08963 0.197112,0.183282 0.313173,0.24105 0.311947,0.155449 0.623545,0.32 0.951772,0.43256 0.889278,0.304945 1.785383,0.59011 2.683414,0.868271 0.109234,0.03379 0.246652,-0.02363 0.370941,-0.03886 z m 10.221444,2.986784 c -0.422407,0.01785 -0.483151,0.02678 -0.440963,0.443938 0.04744,0.467747 0.323501,0.757987 0.735405,0.934968 0.716674,0.308271 1.435449,0.611641 2.155624,0.911684 0.100831,0.04184 0.213391,0.05969 0.32245,0.0758 0.12604,0.01891 0.17488,-0.04779 0.116412,-0.158249 C 46.997286,53.17952 46.932867,53.054005 46.837462,52.969629 46.251379,52.451991 45.66232,51.937505 45.061532,51.437374 44.8007,51.220131 44.489453,51.093567 44.169628,51.08709 Z M 33.826171,30.828884 c 0.351685,0.443589 0.823982,0.684989 1.316411,0.890328 0.745383,0.310897 1.528578,0.429585 2.332604,0.424158 0.225996,-0.0016 0.411904,-0.126915 0.424508,-0.298644 0.01505,-0.206039 -0.122889,-0.316849 -0.294617,-0.38617 -0.0828,-0.03344 -0.17383,-0.04849 -0.262232,-0.06705 -0.183983,-0.03869 -0.368666,-0.07527 -0.553698,-0.110285 -0.50906,-0.09645 -0.910985,-0.408052 -1.344771,-0.659081 -0.634573,-0.367089 -1.068183,-0.30652 -1.618205,0.20674 z m 8.379518,-1.098818 c -0.01015,0.276586 0.114836,0.487527 0.277287,0.683413 0.133392,0.161401 0.269234,0.32105 0.402101,0.482976 0.07947,0.09645 0.08525,0.186433 0.0053,0.297593 -0.122013,0.169628 -0.230722,0.349934 -0.331203,0.533217 -0.09436,0.172429 -0.07107,0.342057 0.0807,0.474048 0.152648,0.132691 0.307571,0.265908 0.475974,0.376893 0.246127,0.162625 0.622144,0.06705 0.781094,-0.169628 0.03676,-0.05479 0.11221,-0.09243 0.17768,-0.117462 0.193786,-0.07405 0.391948,-0.136018 0.587134,-0.206039 0.202538,-0.07265 0.3993,-0.168053 0.60744,-0.217068 0.131816,-0.03116 0.249278,-0.07825 0.249804,-0.203239 3.49e-4,-0.110459 -0.05409,-0.253304 -0.134968,-0.323151 -0.09891,-0.08543 -0.246653,-0.125164 -0.379869,-0.156849 -0.277637,-0.066 -0.562976,-0.101181 -0.837637,-0.176105 -0.087,-0.02363 -0.188184,-0.120087 -0.218118,-0.205864 -0.09085,-0.260481 -0.249628,-0.443939 -0.516762,-0.498556 -0.30687,-0.06285 -0.559124,-0.201488 -0.76884,-0.43151 -0.118512,-0.129715 -0.266258,-0.195186 -0.457068,-0.142669 z M 25.588446,41.368928 c 0.08665,-0.262757 0.165777,-0.514486 0.252429,-0.763589 0.14197,-0.407877 0.06827,-0.68954 -0.260656,-0.969278 -0.19186,-0.163326 -0.402451,-0.147396 -0.503808,0.0793 -0.221094,0.495055 -0.455667,0.993435 -0.454968,1.55256 0.0019,1.365952 0.240001,2.681488 0.912211,3.887265 0.142145,0.25488 0.354136,0.481225 0.571029,0.680263 0.171903,0.157549 0.378468,0.09576 0.440087,-0.102583 0.09173,-0.296367 0.103458,-0.599037 -0.121488,-0.84919 -0.167527,-0.186083 -0.25628,-0.390547 -0.264332,-0.640525 -0.0081,-0.247877 0.01155,-0.510285 -0.06337,-0.739256 -0.112035,-0.343282 -0.163676,-0.675536 -0.0807,-1.025996 0.108183,-0.455317 -0.0044,-0.828709 -0.426434,-1.108971 z M 37.3614,50.738556 c -0.245951,0.242801 -0.294267,0.841663 -0.262757,1.336718 0.03309,0.521487 0.330854,0.831159 0.84814,0.802976 0.461445,-0.02486 0.793523,0.153347 1.067309,0.495229 0.214967,0.268534 0.491553,0.44569 0.808052,0.578031 0.842189,0.35186 1.67895,0.716499 2.518513,1.074311 0.0765,0.03238 0.156498,0.06302 0.237724,0.07667 0.204464,0.03449 0.348359,-0.115186 0.261356,-0.298468 -0.103282,-0.217243 -0.215317,-0.461619 -0.394748,-0.605339 -0.565952,-0.452516 -1.142407,-0.899781 -1.756674,-1.2814 -0.853567,-0.530241 -1.74442,-0.998512 -2.523939,-1.644814 -0.244551,-0.202714 -0.530941,-0.355186 -0.802976,-0.533917 z m 7.650591,-13.762101 c 0.07615,-0.119212 0.131991,-0.212516 0.193786,-0.301794 0.264507,-0.380744 0.27291,-0.833436 0.02241,-1.219781 -0.119037,-0.183808 -0.285689,-0.294092 -0.504683,-0.28569 -0.207965,0.0081 -0.414529,0.05497 -0.62267,0.06354 -0.119562,0.0049 -0.2407,-0.03256 -0.412428,-0.05864 0.278512,-0.269759 0.659606,-0.311422 0.771816,-0.676937 -0.06477,-0.01698 -0.103808,-0.03186 -0.144245,-0.03711 -0.441488,-0.05847 -0.884027,-0.109935 -1.324639,-0.174355 -0.268359,-0.03921 -0.532692,-0.106433 -0.801226,-0.143895 -0.147396,-0.02083 -0.316849,-0.0065 -0.372866,0.161226 -0.08595,0.257505 -0.137943,0.519212 -0.06232,0.8 0.186959,0.692691 0.505909,1.317286 0.950898,1.873435 0.398249,0.497506 0.8021,0.987309 1.048752,1.58442 0.07212,0.17453 0.216368,0.230197 0.405427,0.235449 0.340306,0.0096 0.680088,0.04324 1.020044,0.07107 0.116411,0.0095 0.231597,0.03133 0.351159,0.04796 0.1586,-0.412254 0.08158,-0.807702 0.02118,-1.209628 -0.05077,-0.338906 -0.130066,-0.633873 -0.540394,-0.729278 z M 25.96709,38.299869 c 0.281488,-0.133217 0.555973,-0.228622 0.793173,-0.381269 0.955448,-0.614267 2.015229,-0.920263 3.120525,-1.10372 0.70442,-0.116937 1.40849,-0.211466 2.12744,-0.182582 0.915186,0.03694 1.751772,0.316674 2.556849,0.734879 0.700043,0.363764 1.39466,0.75081 2.127615,1.034749 0.646651,0.250328 1.340919,0.381794 2.01873,0.54652 0.292692,0.07107 0.382145,-0.0032 0.482976,-0.290766 0.188359,-0.536367 0.2393,-1.087614 0.211466,-1.653741 -0.06214,-1.271247 -0.114135,-2.54337 -0.161225,-3.815493 -0.0049,-0.12954 -0.0681,-0.164901 -0.163676,-0.201138 -0.51081,-0.19396 -1.039475,-0.267483 -1.584595,-0.256105 -1.303108,0.02696 -2.49523,-0.294792 -3.498819,-1.162713 -0.153873,-0.133217 -0.292166,-0.307396 -0.378818,-0.490503 -0.172429,-0.364814 -0.05777,-0.680613 0.3193,-0.820657 0.342932,-0.127264 0.708971,-0.203763 1.070984,-0.266608 0.745033,-0.129365 1.496718,-0.233523 2.25453,-0.151422 0.436236,0.04744 0.867396,0.14337 1.301006,0.216893 0.227221,0.03834 0.454442,0.07737 0.682014,0.11221 0.245951,0.03781 0.396498,-0.09751 0.506958,-0.293567 0.11151,-0.198337 0.09365,-0.386171 -0.05059,-0.565077 -0.254704,-0.315798 -0.614267,-0.397899 -0.987658,-0.438862 -0.437287,-0.04796 -0.866696,0.01593 -1.284027,0.14372 -0.903632,0.276762 -1.784332,0.169453 -2.653479,-0.14302 -0.31965,-0.115186 -0.57698,-0.328402 -0.754486,-0.611641 -0.355711,-0.568402 -0.761838,-1.139431 -0.76919,-1.833873 -0.0119,-1.125252 0.233523,-2.194486 0.934442,-3.115273 0.101707,-0.133567 0.200788,-0.274486 0.326477,-0.382495 0.09558,-0.0821 0.266783,-0.193435 0.341707,-0.158074 0.153173,0.07177 0.204814,0.251028 0.153873,0.435536 -0.0688,0.249278 -0.144595,0.49733 -0.19291,0.750634 -0.01908,0.09943 0.02853,0.211817 0.04569,0.318075 0.02591,-0.0019 0.05164,-0.0039 0.07737,-0.0058 0.04534,-0.234398 0.08052,-0.471422 0.139168,-0.702495 0.0646,-0.254529 0.233699,-0.420131 0.523764,-0.510459 -0.03519,0.422232 -0.06897,0.824157 -0.102407,1.225733 0.02783,0.0053 0.05567,0.0105 0.08368,0.01558 0.0716,-0.20604 0.14337,-0.412254 0.214792,-0.618293 0.113261,-0.326302 0.231773,-0.654005 0.536018,-0.853917 0.115011,-0.07545 0.330503,-0.179781 0.379869,-0.135668 0.111159,0.09873 0.189059,0.278337 0.202713,0.432035 0.01786,0.196062 -0.04114,0.399125 -0.07562,0.665908 0.179957,-0.265383 0.332079,-0.477374 0.470372,-0.697943 0.09365,-0.149321 0.22407,-0.235798 0.38442,-0.177155 0.165077,0.06039 0.166652,0.221269 0.130941,0.376193 -0.02031,0.08788 -0.03484,0.17698 -0.05794,0.296192 0.118162,-0.105558 0.209016,-0.200263 0.312998,-0.276936 0.253829,-0.187134 0.392298,-0.14162 0.504333,0.154048 0.01908,0.05094 0.04131,0.100656 0.06687,0.162976 0.109759,-0.05269 0.208665,-0.09996 0.325601,-0.156149 0.05952,0.0828 0.119388,0.165952 0.197287,0.27396 -0.376368,0.28639 -0.747309,0.568403 -1.118074,0.850941 -0.359563,0.273961 -0.654705,0.595361 -0.729103,1.062057 -0.07195,0.451291 -0.02136,0.900307 0.148446,1.317812 0.0667,0.164376 0.255405,0.283589 0.401751,0.407527 0.02818,0.02381 0.132166,-0.0079 0.177505,-0.04376 0.307396,-0.243151 0.594836,-0.513611 0.915011,-0.737681 0.376193,-0.263282 0.770066,-0.505033 1.173567,-0.724201 0.258556,-0.140394 0.430809,-0.105033 0.673435,0.04674 -0.168577,0.25663 -0.33768,0.51396 -0.506608,0.771291 0.01488,0.0133 0.02976,0.02661 0.04464,0.03991 0.19116,-0.153698 0.381794,-0.307746 0.573304,-0.460919 0.19291,-0.154048 0.389847,-0.310722 0.654179,-0.289015 0.09383,0.0077 0.227747,0.04937 0.261707,0.116761 0.03396,0.06757 -0.0088,0.204464 -0.06232,0.279037 -0.113436,0.15825 -0.263983,0.289541 -0.38477,0.443239 -0.381095,0.484376 -0.409978,1.026171 -0.08858,1.497068 0.187484,0.275011 0.395799,0.350984 0.724726,0.284814 0.294092,-0.05899 0.594836,-0.08718 0.884727,-0.160701 0.154223,-0.03904 0.32035,-0.116236 0.43151,-0.226345 0.424332,-0.419957 0.504507,-0.966477 0.492779,-1.530854 -0.0068,-0.321225 -0.06232,-0.6421 -0.05917,-0.962625 0.0018,-0.189235 0.06092,-0.38267 0.123414,-0.564027 0.02293,-0.0667 0.132691,-0.147046 0.197812,-0.142669 0.06127,0.004 0.14512,0.101531 0.168577,0.174179 0.08665,0.269759 0.152473,0.545996 0.226171,0.819956 0.03221,3.5e-4 0.06477,8.76e-4 0.09698,0.0012 0.02888,-0.131992 0.06635,-0.262932 0.0835,-0.396324 0.01313,-0.102932 -0.02048,-0.214792 0.006,-0.311773 0.02241,-0.08175 0.09173,-0.194835 0.15825,-0.209015 0.07965,-0.01681 0.211991,0.03064 0.262757,0.09593 0.184157,0.237024 0.346608,0.491379 0.51186,0.742582 0.206214,0.313348 0.489453,0.436937 0.861969,0.388271 0.318425,-0.04166 0.645602,-0.03466 0.958775,-0.09838 0.667658,-0.136018 1.170591,-0.513961 1.482363,-1.126477 0.229672,-0.450941 0.193085,-0.892604 -0.136893,-1.272298 -0.260306,-0.299694 -0.565952,-0.56 -0.853041,-0.836236 -0.227221,-0.218468 -0.477725,-0.425383 -0.553874,-0.747134 -0.03081,-0.130415 -0.03939,-0.313873 0.03063,-0.405601 0.05812,-0.07597 0.250678,-0.0856 0.375668,-0.0681 0.6407,0.08893 1.061356,0.527965 1.480962,0.963852 0.15825,0.164201 0.317374,0.327527 0.512735,0.529015 0.01768,-0.185033 0.03344,-0.307746 0.03974,-0.430985 0.007,-0.136893 0.06775,-0.228796 0.203764,-0.254529 0.149496,-0.02836 0.292341,-0.0026 0.347483,0.157724 0.07492,0.217068 0.12779,0.441488 0.235449,0.678512 0.04411,-0.314048 0.08823,-0.628096 0.134267,-0.957549 0.155098,0.04446 0.280437,0.08053 0.414354,0.118862 -0.03921,-0.850066 -0.505033,-1.409541 -1.211203,-1.793611 0.08105,-0.167527 0.189234,-0.163326 0.299693,-0.121137 1.660744,0.635098 2.777768,1.749496 3.086215,3.55326 0.124989,0.729628 -0.09103,1.397812 -0.462495,2.021707 -0.05724,0.09593 -0.12954,0.183107 -0.185908,0.279562 -0.550547,0.944595 -1.405864,1.27965 -2.450065,1.197724 -0.521664,-0.04079 -1.0393,-0.134267 -1.558863,-0.202538 -0.103807,-0.01365 -0.208665,-0.02906 -0.312822,-0.02906 -0.405602,5.25e-4 -0.665733,0.218468 -0.666959,0.621969 -0.0025,0.801751 -0.283413,1.485164 -0.788621,2.09383 -0.195186,0.235273 -0.193086,0.522713 -0.12884,0.799825 0.01908,0.0828 0.12989,0.162975 0.217417,0.207789 0.22372,0.114486 0.460044,0.203764 0.687265,0.311423 0.501007,0.237374 0.818381,0.601488 0.802801,1.189847 -0.0075,0.282538 -0.134792,0.509059 -0.323326,0.707571 -0.576455,0.60744 -1.297681,0.754486 -2.095405,0.65733 -0.460744,-0.05619 -0.711772,0.06582 -0.930416,0.471948 -0.03098,0.05742 -0.03063,0.169453 0.0058,0.219518 1.064858,1.464858 1.449103,3.158687 1.664245,4.910285 0.07002,0.569278 0.130416,1.139781 0.210941,1.707483 0.08,0.565252 -0.01313,1.117725 -0.103807,1.668622 -0.09225,0.5607 -0.06004,1.085864 0.193435,1.611378 0.458118,0.949672 0.425208,1.952035 0.22442,2.958425 -0.05882,0.294442 -0.126564,0.588009 -0.207264,0.877199 -0.07615,0.272735 -0.06232,0.532867 0.09488,0.765689 0.425733,0.631423 0.842889,1.270197 1.300307,1.878512 0.407352,0.541795 0.850941,1.058206 1.302407,1.564464 0.559649,0.627571 0.643851,1.306959 0.301444,2.057943 -0.04341,0.09523 -0.0877,0.19046 -0.124464,0.288315 -0.133392,0.355712 -0.364639,0.514486 -0.731029,0.43151 -0.428358,-0.0968 -0.844989,-0.243151 -1.269321,-0.358687 -0.411204,-0.11221 -0.824158,-0.219168 -1.239562,-0.314398 -0.137243,-0.03133 -0.284289,-0.01856 -0.466171,-0.02801 0.108884,0.289366 0.194135,0.539869 0.296717,0.783195 0.134092,0.318249 0.158775,0.62547 0.01208,0.952122 -0.0877,0.195186 -0.121313,0.41453 -0.181356,0.62267 -0.103983,0.360613 -0.259606,0.480875 -0.63825,0.469497 -0.623195,-0.01873 -1.199475,-0.2379 -1.736367,-0.516237 -1.059081,-0.548971 -2.186959,-0.798424 -3.359125,-0.903282 -0.454792,-0.04061 -0.872298,-0.185908 -1.256718,-0.43256 -0.06197,-0.03956 -0.137243,-0.0758 -0.20849,-0.08035 -0.116587,-0.0075 -0.204464,0.06267 -0.152473,0.182057 0.06512,0.150372 0.142845,0.307571 0.25558,0.422057 0.406827,0.414004 0.844814,0.797724 1.244639,1.217855 0.571729,0.600788 1.090766,1.245514 1.341094,2.056018 0.185383,0.599912 0.35081,1.206302 0.515361,1.812516 0.01488,0.05479 -0.02328,0.149497 -0.0688,0.19081 -0.290941,0.265383 -0.635624,0.357987 -1.010066,0.228446 -0.215492,-0.07457 -0.424333,-0.183282 -0.613742,-0.310022 -0.0926,-0.06197 -0.169803,-0.19361 -0.19221,-0.305995 -0.05864,-0.293917 -0.07527,-0.595887 -0.123588,-0.892254 -0.04464,-0.273961 -0.0772,-0.556674 -0.17523,-0.812604 -0.06127,-0.160525 -0.209716,-0.32105 -0.361138,-0.407002 -0.332604,-0.188884 -0.575405,-0.435361 -0.716149,-0.789672 -0.170153,-0.428534 -0.487002,-0.745908 -0.81523,-1.052954 -0.480525,-0.449191 -0.96175,-0.897681 -1.443151,-1.345471 -0.166652,-0.155273 -0.345207,-0.283238 -0.589759,-0.281137 -0.116411,8.75e-4 -0.189059,0.05269 -0.155974,0.160525 0.04937,0.16245 0.09173,0.353435 0.203939,0.46547 0.493829,0.493654 0.990985,0.988009 1.526652,1.434223 0.510635,0.425208 0.852342,0.935143 1.026346,1.568666 0.106433,0.387396 0.276761,0.741006 0.509234,1.073085 0.327702,0.468096 0.517112,0.990459 0.494004,1.573742 -0.01505,0.379518 -0.167877,0.523413 -0.543719,0.54372 -0.435537,0.02346 -0.826609,-0.116587 -1.205427,-0.304596 -0.184858,-0.09155 -0.286215,-0.252778 -0.277812,-0.458993 0.03133,-0.773567 -0.282363,-1.432998 -0.692516,-2.051816 -0.144245,-0.217943 -0.362889,-0.385821 -0.541094,-0.582407 -0.06425,-0.07107 -0.133392,-0.152648 -0.15965,-0.241401 -0.150722,-0.507658 -0.457768,-0.915011 -0.837462,-1.261969 -0.981357,-0.896455 -1.969716,-1.785558 -2.970853,-2.659781 -0.328753,-0.286915 -0.604114,-0.591335 -0.755011,-1.00709 -0.202539,-0.557724 -0.438162,-1.10372 -0.630547,-1.664595 -0.232298,-0.678337 -0.620219,-1.251291 -1.1193,-1.752298 -0.68639,-0.68884 -1.388884,-1.3621 -2.076499,-2.050065 -0.751685,-0.752035 -1.505821,-1.50232 -2.237724,-2.273436 -0.865471,-0.911685 -1.339344,-2.011904 -1.506696,-3.255492 -0.106609,-0.790722 -0.05392,-1.577418 0.0056,-2.365514 0.01786,-0.238425 -0.04622,-0.444814 -0.210591,-0.614967 -0.184158,-0.19081 -0.364639,-0.387046 -0.566127,-0.55825 -0.674661,-0.573654 -1.170066,-1.2814 -1.527878,-2.080525 -0.293216,-0.654705 -0.218118,-1.339169 -0.06197,-2.018031 0.167702,-0.729103 0.440963,-1.413742 0.856543,-2.037987 0.198162,-0.297768 0.334354,-0.290065 0.508358,0.02678 0.06039,0.110109 0.114311,0.224245 0.163151,0.339956 0.152473,0.360263 0.401751,0.629672 0.683414,0.906083 0.823457,0.808403 1.565864,1.687352 1.688403,2.91081 0.03028,0.30442 0.04166,0.610766 0.06407,0.950197 z"
           id="Fill-5"
           fill="#FFFFFF"
           style="fill:#202c44;fill-opacity:1" />
      </g>
    </g>
  </g>
  <metadata
     id="metadata1">
    <rdf:RDF>
      <cc:Work
         rdf:about="">
        <dc:title>LOGO</dc:title>
      </cc:Work>
    </rdf:RDF>
  </metadata>
</svg>
