<?xml version="1.0" encoding="UTF-8" standalone="no"?>
<svg
   width="80.875275"
   height="79.982498"
   viewBox="0 0 80.875275 79.982498"
   version="1.1"
   id="svg1"
   sodipodi:docname="logo.svg"
   inkscape:version="1.4 (86a8ad7, 2024-10-11)"
   xmlns:inkscape="http://www.inkscape.org/namespaces/inkscape"
   xmlns:sodipodi="http://sodipodi.sourceforge.net/DTD/sodipodi-0.dtd"
   xmlns:xlink="http://www.w3.org/1999/xlink"
   xmlns="http://www.w3.org/2000/svg"
   xmlns:svg="http://www.w3.org/2000/svg">
  <sodipodi:namedview
     id="namedview1"
     pagecolor="#ffffff"
     bordercolor="#000000"
     borderopacity="0.25"
     inkscape:showpageshadow="2"
     inkscape:pageopacity="0.0"
     inkscape:pagecheckerboard="0"
     inkscape:deskcolor="#d1d1d1"
     showgrid="false"
     inkscape:zoom="15.1625"
     inkscape:cx="19.126134"
     inkscape:cy="19.422918"
     inkscape:window-width="2880"
     inkscape:window-height="1586"
     inkscape:window-x="6709"
     inkscape:window-y="351"
     inkscape:window-maximized="1"
     inkscape:current-layer="Pages" />
  <title
     id="title1">LOGO</title>
  <defs
     id="defs1">
    <polygon
       id="path-1"
       points="80.875274,0.0070021882 80.875274,79.989497 0,79.989497 0,0.0070021882 " />
  </defs>
  <g
     id="Pages"
     stroke="none"
     stroke-width="1"
     fill="none"
     fill-rule="evenodd"
     style="fill:#202c44;fill-opacity:1"
     transform="translate(0,-0.00700219)">
    <g
       id="Birch-5.-Private-Content"
       transform="translate(-49,-5088)"
       style="fill:#202c44;fill-opacity:1">
      <g
         id="LOGO"
         transform="translate(49,5088)"
         style="fill:#202c44;fill-opacity:1">
        <g
           id="Group-3"
           style="fill:#202c44;fill-opacity:1">
          <mask
             id="mask-2"
             fill="#ffffff">
            <use
               xlink:href="#path-1"
               id="use1" />
          </mask>
          <g
             id="Clip-2"
             style="fill:#202c44;fill-opacity:1" />
          <path
             d="m 1.710947,39.212604 c -0.00679,2.11151 0.1589873,4.207615 0.5064709,6.290066 0.6760613,4.051641 1.9501094,7.905645 3.8380744,11.552735 1.9852955,3.834923 4.5293657,7.258818 7.6451637,10.251203 3.39151,3.257068 7.277375,5.780482 11.56604,7.683677 2.784945,1.235886 5.693829,2.08315 8.701269,2.57873 2.460919,0.405602 4.931291,0.677637 7.434223,0.551598 1.838775,-0.09278 3.673523,-0.204464 5.490416,-0.521138 3.6007,-0.627746 7.057681,-1.697856 10.366739,-3.26442 4.727878,-2.238425 8.827659,-5.296981 12.252955,-9.251291 2.148271,-2.48 4.002976,-5.162364 5.468533,-8.103458 2.089278,-4.19221 3.522451,-8.580831 3.931904,-13.271597 0.166302,-1.90407 0.289366,-3.809366 0.11256,-5.719913 -0.0877,-0.947396 -0.168227,-1.895667 -0.275536,-2.840962 -0.166827,-1.46976 -0.549847,-2.896105 -0.903107,-4.328228 -0.702494,-2.84779 -1.67965,-5.580569 -3.093742,-8.169278 C 72.680788,18.857243 70.208665,15.39361 67.044026,12.423982 64.250853,9.8028884 61.158687,7.6281838 57.745295,5.9077462 54.404901,4.2242451 50.887002,3.0452516 47.217155,2.3299781 45.243939,1.9453829 43.250591,1.6938293 41.238162,1.6738731 39.839125,1.6600438 38.438687,1.6903282 37.04035,1.7389934 35.569365,1.7901094 34.120963,2.0400875 32.676236,2.3107221 29.254267,2.9515974 25.975142,4.0283589 22.86232,5.5830197 18.505733,7.7589497 14.649278,10.609015 11.37733,14.231772 9.7649015,16.01698 8.2792123,17.893392 7.0478775,19.968665 3.5268271,25.903195 1.7192122,32.307221 1.710947,39.212604 Z M 37.937856,0.00700219 c 1.274398,0 2.548796,0 3.823194,0 0.213042,0.01487965 0.425908,0.0336105 0.639125,0.04376367 1.735668,0.08210066 3.445952,0.34048141 5.154661,0.65382933 4.273961,0.78354481 8.298993,2.26800871 12.123939,4.29251641 3.846652,2.0360613 7.231685,4.6895405 10.195711,7.8800874 2.857068,3.075361 5.256017,6.46267 7.035623,10.275011 0.747659,1.602101 1.495143,3.204376 2.03046,4.894004 0.755886,2.38407 1.341269,4.806652 1.58302,7.301182 0.122713,1.266346 0.212166,2.536018 0.313347,3.804464 0.02031,0.25523 0.02608,0.511685 0.03834,0.767615 0,0.04201 0,0.08403 0,0.126039 -0.01155,0.06565 -0.03361,0.131291 -0.03344,0.196762 0.01155,2.698818 -0.35361,5.352822 -0.915361,7.987046 -0.808227,3.790809 -2.274136,7.344245 -4.028009,10.768665 -1.77803,3.47186 -4.195361,6.51326 -6.894879,9.314486 -2.876499,2.984682 -6.235799,5.338468 -9.932954,7.190197 -4.209891,2.108358 -8.642276,3.547658 -13.328841,4.133566 -1.108971,0.138644 -2.227221,0.204639 -3.341444,0.299694 C 42.061792,79.96481 41.722186,79.97899 41.38293,80 41.116847,80 40.850764,80 40.584681,80 40.527961,79.98372 40.471595,79.95519 40.414177,79.95291 39.345468,79.91072 38.272558,79.9144 37.208226,79.821094 35.892864,79.706083 34.573827,79.571291 33.275622,79.337943 30.70967,78.876849 28.235797,78.067571 25.800786,77.151335 23.403061,76.248753 21.186519,74.982757 19.011289,73.643414 16.067569,71.831422 13.421442,69.654442 11.067657,67.125077 8.044814,63.877112 5.6227571,60.219519 3.7486214,56.205164 2.4105033,53.338993 1.4442013,50.341007 0.80997812,47.240788 0.45514223,45.506171 0.19956236,43.755799 0.07789934,41.987746 0.05461707,41.648315 0.02608315,41.309059 0,40.969803 0,39.80744 0,38.645077 0,37.482713 0.01155361,37.430547 0.02853392,37.379081 0.03413567,37.326214 0.19658643,35.796936 0.31054705,34.260832 0.53041575,32.739781 0.83921225,30.604289 1.4615317,28.540569 2.1262144,26.491554 2.7108972,24.690416 3.5483589,23.001663 4.3887965,21.31081 6.2982932,17.469759 8.8873523,14.140744 11.955186,11.168315 13.693304,9.4842888 15.569541,7.9627133 17.596499,6.6436761 20.732604,4.6028884 24.067046,2.9645514 27.651816,1.8534792 30.967877,0.8259081 34.352735,0.2009628 37.822144,0.04043764 c 0.03886,-0.0017505 0.0772,-0.02188184 0.115712,-0.03343545 z"
             id="Fill-1"
             fill="#FFFFFF"
             mask="url(#mask-2)"
             style="fill:#202c44;fill-opacity:1" />
        </g>
        <path
           d="m 39.256543,12.967527 c -0.884902,-0.01821 -3.124027,0.244552 -4.343108,0.464771 -2.615317,0.472647 -5.084814,1.360875 -7.437199,2.587308 -2.229321,1.162538 -4.267833,2.595186 -6.054267,4.367615 -2.321925,2.30372 -4.257505,4.8814 -5.661969,7.859081 -1.606827,3.406915 -2.459519,6.974354 -2.517112,10.73523 -0.02153,1.416192 0.119913,2.821006 0.31755,4.223019 0.291291,2.066521 0.804376,4.072123 1.596499,6.002626 1.629059,3.969716 4.016455,7.412517 7.17094,10.327352 2.915011,2.693567 6.283414,4.600963 10.039038,5.842101 1.866783,0.616893 3.791685,0.974005 5.744945,1.164989 0.777593,0.07615 1.563238,0.0877 2.345558,0.09622 0.4814,0.0046 0.963326,-0.05386 1.445252,-0.08186 1.390984,-0.08123 2.777593,-0.211291 4.138118,-0.521488 5.577593,-1.272123 10.394048,-3.896368 14.300219,-8.11221 2.621969,-2.82941 4.576105,-6.071073 5.818993,-9.721663 1.016893,-2.986259 1.453304,-6.060744 1.336368,-9.225733 -0.06565,-1.77383 -0.308272,-3.510197 -0.719125,-5.226959 C 65.88884,30.034661 64.246127,26.684114 61.911772,23.66302 59.93663,21.106871 57.545733,19.012166 54.834311,17.286302 50.30372,14.402626 45.325339,13.023545 39.256543,12.967527 Z M 11.448228,38.92814 c 0.02801,-0.628621 0.04709,-1.370328 0.09663,-2.109934 0.123063,-1.837024 0.519387,-3.617156 1.054004,-5.379081 1.037724,-3.420744 2.637199,-6.539869 4.852692,-9.342845 1.32849,-1.680875 2.859693,-3.155361 4.479825,-4.558424 2.92814,-2.535668 6.324201,-4.133567 9.999299,-5.211904 1.972167,-0.578731 3.985121,-0.951072 6.036062,-1.094092 2.917811,-0.203414 5.795361,0.07755 8.6414,0.741707 3.353173,0.782494 6.500131,2.057068 9.396762,3.924201 1.722013,1.109847 3.330415,2.370941 4.782669,3.818643 3.958337,3.946083 6.572254,8.645427 7.835099,14.091029 0.517636,2.232297 0.765864,4.497505 0.686914,6.788096 -0.134792,3.911247 -0.985733,7.650416 -2.694442,11.191598 -1.527177,3.165164 -3.508621,5.996848 -6.024857,8.448315 -2.048666,1.995973 -4.360788,3.63431 -6.897681,4.952472 -1.571641,0.816455 -3.20105,1.511072 -4.890328,2.035186 -1.373129,0.426083 -2.76604,0.818031 -4.20639,0.959825 -1.594398,0.157374 -3.189321,0.279913 -4.797024,0.221269 C 36.492954,68.283589 33.277549,67.71291 30.19221,66.508884 25.740569,64.771816 21.956761,62.089278 18.851641,58.444814 17.596499,56.971554 16.391597,55.470985 15.437199,53.778206 13.910372,51.070284 12.707046,48.24 12.077024,45.182494 c -0.342057,-1.660743 -0.597812,-3.331466 -0.628096,-5.030547 -0.0065,-0.37024 -7e-4,-0.740656 -7e-4,-1.223807 z"
           id="Fill-4"
           fill="#FFFFFF"
           style="fill:#202c44;fill-opacity:1" />
        <path
           d="m 38.921488,27.637812 c 0.195536,-0.170503 0.411204,-0.28884 0.393523,-0.577681 -0.318425,0.08053 -0.427309,0.237024 -0.393523,0.577681 z m -2.807702,27.543457 c -0.220044,-0.363063 -0.492779,-0.458643 -0.831685,-0.297243 0.231422,0.231073 0.519737,0.270285 0.831685,0.297243 z M 34.335405,27.224858 c -0.06477,-0.462495 -0.125514,-0.89523 -0.188359,-1.343545 -0.247177,0.653654 -0.226171,1.098468 0.188359,1.343545 z m 7.117199,4.361313 c 0.145295,0.285514 0.419431,0.291291 0.677637,0.390547 0.0018,-0.199563 0.0891,-0.387571 -0.103458,-0.489103 -0.195536,-0.103107 -0.391772,-0.06565 -0.574179,0.09856 z m -16.636849,7.559562 c 0.148271,-0.418031 -0.07597,-0.615667 -0.637724,-0.936017 -0.05199,0.390897 0.204814,0.76814 0.637724,0.936017 z M 47.852079,26.868796 c -0.0046,-0.03273 -0.0091,-0.06529 -0.01365,-0.09803 -0.621095,-0.04289 -1.251117,-0.151598 -1.813392,0.226696 0.0035,0.02713 0.0072,0.05427 0.01085,0.0814 0.605339,-0.07002 1.210679,-0.140044 1.816192,-0.210066 z m 2.951072,-0.368139 c -0.843064,0.102231 -1.676674,0.02188 -2.488053,0.283763 0.180657,0.265383 0.406477,0.216718 0.633173,0.149147 0.50941,-0.151773 1.016718,-0.300569 1.558687,-0.167528 0.169628,0.04184 0.25418,-0.06477 0.296193,-0.265382 z m 0.889978,-4.362539 c 0.0072,0.05234 0.0089,0.07825 0.01418,0.103107 0.09033,0.417156 0.144245,0.834486 0.073,1.26337 -0.01681,0.101182 0.02783,0.220919 0.06967,0.321401 0.06354,0.151772 0.186258,0.16245 0.287265,0.02818 0.04359,-0.05812 0.0877,-0.140744 0.08123,-0.207439 -0.02993,-0.307397 -0.06127,-0.616718 -0.124289,-0.918688 -0.04849,-0.232297 -0.17873,-0.430984 -0.40105,-0.589934 z M 41.522976,60.858293 c -0.05269,-0.454617 -0.09873,-0.898556 -0.1607,-1.340219 -0.01,-0.07282 -0.08945,-0.135842 -0.141269,-0.209715 -0.174005,0.153873 -0.282714,0.279212 -0.196412,0.496455 0.03554,0.08928 0.0014,0.205864 0.0012,0.310197 0,0.145996 -0.01365,0.294092 0.0065,0.437287 0.04779,0.33873 0.0919,0.362888 0.490678,0.305995 z m -3.993523,-5.381531 c 0.301794,-0.532517 0.191685,-0.818381 -0.357287,-0.999388 -0.02643,-0.0088 -0.05462,-0.01313 -0.08017,-0.02363 -0.145995,-0.06004 -0.281663,-0.05462 -0.363238,0.09628 -0.07878,0.146346 -0.01453,0.275361 0.100656,0.370941 0.225471,0.187133 0.458293,0.364814 0.700044,0.555799 z m 1.499869,-1.48709 c -0.207265,-1.75e-4 -0.28744,0.141794 -0.241751,0.371116 0.05742,0.28744 0.273085,0.458118 0.474048,0.640525 0.121313,0.109934 0.261007,0.126039 0.377768,0.02748 0.122539,-0.103282 0.191685,-0.262056 0.0709,-0.405076 -0.173829,-0.205514 -0.37024,-0.392298 -0.562275,-0.581532 -0.03589,-0.03519 -0.09803,-0.04394 -0.118687,-0.05252 z M 38.19116,53.794661 c -0.01873,0.0063 -0.03764,0.0126 -0.05637,0.01891 -0.01138,0.187308 -0.01313,0.375667 -0.03571,0.5614 -0.04866,0.39965 0.132166,0.756236 0.479125,0.943195 0.127615,0.06862 0.222494,0.08087 0.322976,-0.05129 0.09523,-0.125514 0.119212,-0.230897 0.0035,-0.350285 -0.0681,-0.0702 -0.129366,-0.147221 -0.199388,-0.215492 -0.16245,-0.158074 -0.291641,-0.328228 -0.338555,-0.562101 -0.02433,-0.121663 -0.114836,-0.230021 -0.17558,-0.344332 z M 35.971641,26.341357 c 0.204814,0.02066 0.234048,-0.110285 0.269935,-0.229497 0.106258,-0.353085 0.208665,-0.707396 0.315273,-1.060306 0.07685,-0.253655 0.03641,-0.476149 -0.146871,-0.711948 -0.407702,0.613567 -0.472473,1.287352 -0.438337,2.001751 z M 51.900394,24.84919 c -0.03396,-0.004 -0.06792,-0.0082 -0.102057,-0.01243 -0.07142,0.183457 -0.140919,0.367614 -0.214792,0.550196 -0.106258,0.262407 -0.214967,0.523764 -0.323676,0.785121 -0.01313,0.03186 -0.04954,0.06372 -0.04552,0.09155 0.01225,0.08928 0.02206,0.186959 0.0674,0.259431 0.01698,0.02678 0.140744,0.01295 0.198338,-0.01646 0.348358,-0.17768 0.536017,-0.470547 0.523763,-0.859693 -0.0082,-0.266609 -0.06722,-0.531817 -0.103457,-0.797725 z m -2.014705,-0.17628 c -0.02346,0.014 -0.04096,0.01821 -0.04481,0.02783 -0.220218,0.553348 -0.510809,1.05698 -0.992385,1.429497 -0.02451,0.01891 -0.04691,0.08122 -0.03484,0.09821 0.02293,0.03221 0.07195,0.06477 0.109584,0.06425 0.12499,-0.0018 0.249979,-0.02399 0.375318,-0.02749 0.279562,-0.0077 0.482275,-0.119738 0.57523,-0.396499 0.03116,-0.09243 0.07562,-0.180656 0.102757,-0.274136 0.09278,-0.318074 0.0842,-0.626871 -0.09085,-0.921663 z m -26.883151,8.843239 c -0.589409,0.756236 -0.733654,1.640613 -0.748183,2.5621 0.532516,-0.77059 0.767789,-1.628358 0.748183,-2.5621 z m 13.594749,-7.37628 c -0.03151,-0.0018 -0.06302,-0.0033 -0.09453,-0.0051 -0.06547,0.149322 -0.167527,0.293392 -0.189409,0.448665 -0.05847,0.413479 0.03519,0.810854 0.272735,1.15221 0.08175,0.117637 0.252604,0.176981 0.390547,0.248578 0.03046,0.01575 0.123239,-0.01786 0.135492,-0.04902 0.06337,-0.161751 0.106784,-0.317024 -5.25e-4,-0.49558 -0.127089,-0.211291 -0.220393,-0.444814 -0.311247,-0.675536 -0.08,-0.203239 -0.136367,-0.415755 -0.203063,-0.624245 z m 2.543019,35.602801 c 0.09243,-0.356412 0.06477,-0.786696 -0.0716,-1.211029 -0.146521,-0.455317 -0.506608,-0.677287 -1.040525,-0.604989 0.0877,0.104858 0.162801,0.187134 0.229321,0.276061 0.09348,0.124639 0.207615,0.243677 0.261882,0.384595 0.04394,0.114486 0.02661,0.259257 0.0119,0.387747 -0.04604,0.403151 0.02871,0.542144 0.4007,0.694092 0.06407,0.02626 0.130416,0.04621 0.208315,0.07352 z M 33.948184,48.100306 c 0.0089,-0.03011 0.01821,-0.06057 0.02748,-0.09103 -0.06775,-0.08105 -0.119562,-0.200613 -0.206039,-0.236674 -0.333479,-0.139344 -0.670109,-0.28744 -1.020394,-0.367615 -0.853041,-0.195186 -1.687877,-0.429409 -2.469672,-0.834661 -0.168927,-0.08753 -0.370415,-0.114661 -0.558949,-0.16035 -0.03519,-0.0086 -0.108184,0.01891 -0.116237,0.04446 -0.0133,0.04236 -0.0051,0.115536 0.02451,0.142845 0.09628,0.08963 0.197112,0.183282 0.313173,0.24105 0.311947,0.155449 0.623545,0.32 0.951772,0.43256 0.889278,0.304945 1.785383,0.59011 2.683414,0.868271 0.109234,0.03379 0.246652,-0.02363 0.370941,-0.03886 z m 10.221444,2.986784 c -0.422407,0.01785 -0.483151,0.02678 -0.440963,0.443938 0.04744,0.467747 0.323501,0.757987 0.735405,0.934968 0.716674,0.308271 1.435449,0.611641 2.155624,0.911684 0.100831,0.04184 0.213391,0.05969 0.32245,0.0758 0.12604,0.01891 0.17488,-0.04779 0.116412,-0.158249 C 46.997286,53.17952 46.932867,53.054005 46.837462,52.969629 46.251379,52.451991 45.66232,51.937505 45.061532,51.437374 44.8007,51.220131 44.489453,51.093567 44.169628,51.08709 Z M 33.826171,30.828884 c 0.351685,0.443589 0.823982,0.684989 1.316411,0.890328 0.745383,0.310897 1.528578,0.429585 2.332604,0.424158 0.225996,-0.0016 0.411904,-0.126915 0.424508,-0.298644 0.01505,-0.206039 -0.122889,-0.316849 -0.294617,-0.38617 -0.0828,-0.03344 -0.17383,-0.04849 -0.262232,-0.06705 -0.183983,-0.03869 -0.368666,-0.07527 -0.553698,-0.110285 -0.50906,-0.09645 -0.910985,-0.408052 -1.344771,-0.659081 -0.634573,-0.367089 -1.068183,-0.30652 -1.618205,0.20674 z m 8.379518,-1.098818 c -0.01015,0.276586 0.114836,0.487527 0.277287,0.683413 0.133392,0.161401 0.269234,0.32105 0.402101,0.482976 0.07947,0.09645 0.08525,0.186433 0.0053,0.297593 -0.122013,0.169628 -0.230722,0.349934 -0.331203,0.533217 -0.09436,0.172429 -0.07107,0.342057 0.0807,0.474048 0.152648,0.132691 0.307571,0.265908 0.475974,0.376893 0.246127,0.162625 0.622144,0.06705 0.781094,-0.169628 0.03676,-0.05479 0.11221,-0.09243 0.17768,-0.117462 0.193786,-0.07405 0.391948,-0.136018 0.587134,-0.206039 0.202538,-0.07265 0.3993,-0.168053 0.60744,-0.217068 0.131816,-0.03116 0.249278,-0.07825 0.249804,-0.203239 3.49e-4,-0.110459 -0.05409,-0.253304 -0.134968,-0.323151 -0.09891,-0.08543 -0.246653,-0.125164 -0.379869,-0.156849 -0.277637,-0.066 -0.562976,-0.101181 -0.837637,-0.176105 -0.087,-0.02363 -0.188184,-0.120087 -0.218118,-0.205864 -0.09085,-0.260481 -0.249628,-0.443939 -0.516762,-0.498556 -0.30687,-0.06285 -0.559124,-0.201488 -0.76884,-0.43151 -0.118512,-0.129715 -0.266258,-0.195186 -0.457068,-0.142669 z M 25.588446,41.368928 c 0.08665,-0.262757 0.165777,-0.514486 0.252429,-0.763589 0.14197,-0.407877 0.06827,-0.68954 -0.260656,-0.969278 -0.19186,-0.163326 -0.402451,-0.147396 -0.503808,0.0793 -0.221094,0.495055 -0.455667,0.993435 -0.454968,1.55256 0.0019,1.365952 0.240001,2.681488 0.912211,3.887265 0.142145,0.25488 0.354136,0.481225 0.571029,0.680263 0.171903,0.157549 0.378468,0.09576 0.440087,-0.102583 0.09173,-0.296367 0.103458,-0.599037 -0.121488,-0.84919 -0.167527,-0.186083 -0.25628,-0.390547 -0.264332,-0.640525 -0.0081,-0.247877 0.01155,-0.510285 -0.06337,-0.739256 -0.112035,-0.343282 -0.163676,-0.675536 -0.0807,-1.025996 0.108183,-0.455317 -0.0044,-0.828709 -0.426434,-1.108971 z M 37.3614,50.738556 c -0.245951,0.242801 -0.294267,0.841663 -0.262757,1.336718 0.03309,0.521487 0.330854,0.831159 0.84814,0.802976 0.461445,-0.02486 0.793523,0.153347 1.067309,0.495229 0.214967,0.268534 0.491553,0.44569 0.808052,0.578031 0.842189,0.35186 1.67895,0.716499 2.518513,1.074311 0.0765,0.03238 0.156498,0.06302 0.237724,0.07667 0.204464,0.03449 0.348359,-0.115186 0.261356,-0.298468 -0.103282,-0.217243 -0.215317,-0.461619 -0.394748,-0.605339 -0.565952,-0.452516 -1.142407,-0.899781 -1.756674,-1.2814 -0.853567,-0.530241 -1.74442,-0.998512 -2.523939,-1.644814 -0.244551,-0.202714 -0.530941,-0.355186 -0.802976,-0.533917 z m 7.650591,-13.762101 c 0.07615,-0.119212 0.131991,-0.212516 0.193786,-0.301794 0.264507,-0.380744 0.27291,-0.833436 0.02241,-1.219781 -0.119037,-0.183808 -0.285689,-0.294092 -0.504683,-0.28569 -0.207965,0.0081 -0.414529,0.05497 -0.62267,0.06354 -0.119562,0.0049 -0.2407,-0.03256 -0.412428,-0.05864 0.278512,-0.269759 0.659606,-0.311422 0.771816,-0.676937 -0.06477,-0.01698 -0.103808,-0.03186 -0.144245,-0.03711 -0.441488,-0.05847 -0.884027,-0.109935 -1.324639,-0.174355 -0.268359,-0.03921 -0.532692,-0.106433 -0.801226,-0.143895 -0.147396,-0.02083 -0.316849,-0.0065 -0.372866,0.161226 -0.08595,0.257505 -0.137943,0.519212 -0.06232,0.8 0.186959,0.692691 0.505909,1.317286 0.950898,1.873435 0.398249,0.497506 0.8021,0.987309 1.048752,1.58442 0.07212,0.17453 0.216368,0.230197 0.405427,0.235449 0.340306,0.0096 0.680088,0.04324 1.020044,0.07107 0.116411,0.0095 0.231597,0.03133 0.351159,0.04796 0.1586,-0.412254 0.08158,-0.807702 0.02118,-1.209628 -0.05077,-0.338906 -0.130066,-0.633873 -0.540394,-0.729278 z M 25.96709,38.299869 c 0.281488,-0.133217 0.555973,-0.228622 0.793173,-0.381269 0.955448,-0.614267 2.015229,-0.920263 3.120525,-1.10372 0.70442,-0.116937 1.40849,-0.211466 2.12744,-0.182582 0.915186,0.03694 1.751772,0.316674 2.556849,0.734879 0.700043,0.363764 1.39466,0.75081 2.127615,1.034749 0.646651,0.250328 1.340919,0.381794 2.01873,0.54652 0.292692,0.07107 0.382145,-0.0032 0.482976,-0.290766 0.188359,-0.536367 0.2393,-1.087614 0.211466,-1.653741 -0.06214,-1.271247 -0.114135,-2.54337 -0.161225,-3.815493 -0.0049,-0.12954 -0.0681,-0.164901 -0.163676,-0.201138 -0.51081,-0.19396 -1.039475,-0.267483 -1.584595,-0.256105 -1.303108,0.02696 -2.49523,-0.294792 -3.498819,-1.162713 -0.153873,-0.133217 -0.292166,-0.307396 -0.378818,-0.490503 -0.172429,-0.364814 -0.05777,-0.680613 0.3193,-0.820657 0.342932,-0.127264 0.708971,-0.203763 1.070984,-0.266608 0.745033,-0.129365 1.496718,-0.233523 2.25453,-0.151422 0.436236,0.04744 0.867396,0.14337 1.301006,0.216893 0.227221,0.03834 0.454442,0.07737 0.682014,0.11221 0.245951,0.03781 0.396498,-0.09751 0.506958,-0.293567 0.11151,-0.198337 0.09365,-0.386171 -0.05059,-0.565077 -0.254704,-0.315798 -0.614267,-0.397899 -0.987658,-0.438862 -0.437287,-0.04796 -0.866696,0.01593 -1.284027,0.14372 -0.903632,0.276762 -1.784332,0.169453 -2.653479,-0.14302 -0.31965,-0.115186 -0.57698,-0.328402 -0.754486,-0.611641 -0.355711,-0.568402 -0.761838,-1.139431 -0.76919,-1.833873 -0.0119,-1.125252 0.233523,-2.194486 0.934442,-3.115273 0.101707,-0.133567 0.200788,-0.274486 0.326477,-0.382495 0.09558,-0.0821 0.266783,-0.193435 0.341707,-0.158074 0.153173,0.07177 0.204814,0.251028 0.153873,0.435536 -0.0688,0.249278 -0.144595,0.49733 -0.19291,0.750634 -0.01908,0.09943 0.02853,0.211817 0.04569,0.318075 0.02591,-0.0019 0.05164,-0.0039 0.07737,-0.0058 0.04534,-0.234398 0.08052,-0.471422 0.139168,-0.702495 0.0646,-0.254529 0.233699,-0.420131 0.523764,-0.510459 -0.03519,0.422232 -0.06897,0.824157 -0.102407,1.225733 0.02783,0.0053 0.05567,0.0105 0.08368,0.01558 0.0716,-0.20604 0.14337,-0.412254 0.214792,-0.618293 0.113261,-0.326302 0.231773,-0.654005 0.536018,-0.853917 0.115011,-0.07545 0.330503,-0.179781 0.379869,-0.135668 0.111159,0.09873 0.189059,0.278337 0.202713,0.432035 0.01786,0.196062 -0.04114,0.399125 -0.07562,0.665908 0.179957,-0.265383 0.332079,-0.477374 0.470372,-0.697943 0.09365,-0.149321 0.22407,-0.235798 0.38442,-0.177155 0.165077,0.06039 0.166652,0.221269 0.130941,0.376193 -0.02031,0.08788 -0.03484,0.17698 -0.05794,0.296192 0.118162,-0.105558 0.209016,-0.200263 0.312998,-0.276936 0.253829,-0.187134 0.392298,-0.14162 0.504333,0.154048 0.01908,0.05094 0.04131,0.100656 0.06687,0.162976 0.109759,-0.05269 0.208665,-0.09996 0.325601,-0.156149 0.05952,0.0828 0.119388,0.165952 0.197287,0.27396 -0.376368,0.28639 -0.747309,0.568403 -1.118074,0.850941 -0.359563,0.273961 -0.654705,0.595361 -0.729103,1.062057 -0.07195,0.451291 -0.02136,0.900307 0.148446,1.317812 0.0667,0.164376 0.255405,0.283589 0.401751,0.407527 0.02818,0.02381 0.132166,-0.0079 0.177505,-0.04376 0.307396,-0.243151 0.594836,-0.513611 0.915011,-0.737681 0.376193,-0.263282 0.770066,-0.505033 1.173567,-0.724201 0.258556,-0.140394 0.430809,-0.105033 0.673435,0.04674 -0.168577,0.25663 -0.33768,0.51396 -0.506608,0.771291 0.01488,0.0133 0.02976,0.02661 0.04464,0.03991 0.19116,-0.153698 0.381794,-0.307746 0.573304,-0.460919 0.19291,-0.154048 0.389847,-0.310722 0.654179,-0.289015 0.09383,0.0077 0.227747,0.04937 0.261707,0.116761 0.03396,0.06757 -0.0088,0.204464 -0.06232,0.279037 -0.113436,0.15825 -0.263983,0.289541 -0.38477,0.443239 -0.381095,0.484376 -0.409978,1.026171 -0.08858,1.497068 0.187484,0.275011 0.395799,0.350984 0.724726,0.284814 0.294092,-0.05899 0.594836,-0.08718 0.884727,-0.160701 0.154223,-0.03904 0.32035,-0.116236 0.43151,-0.226345 0.424332,-0.419957 0.504507,-0.966477 0.492779,-1.530854 -0.0068,-0.321225 -0.06232,-0.6421 -0.05917,-0.962625 0.0018,-0.189235 0.06092,-0.38267 0.123414,-0.564027 0.02293,-0.0667 0.132691,-0.147046 0.197812,-0.142669 0.06127,0.004 0.14512,0.101531 0.168577,0.174179 0.08665,0.269759 0.152473,0.545996 0.226171,0.819956 0.03221,3.5e-4 0.06477,8.76e-4 0.09698,0.0012 0.02888,-0.131992 0.06635,-0.262932 0.0835,-0.396324 0.01313,-0.102932 -0.02048,-0.214792 0.006,-0.311773 0.02241,-0.08175 0.09173,-0.194835 0.15825,-0.209015 0.07965,-0.01681 0.211991,0.03064 0.262757,0.09593 0.184157,0.237024 0.346608,0.491379 0.51186,0.742582 0.206214,0.313348 0.489453,0.436937 0.861969,0.388271 0.318425,-0.04166 0.645602,-0.03466 0.958775,-0.09838 0.667658,-0.136018 1.170591,-0.513961 1.482363,-1.126477 0.229672,-0.450941 0.193085,-0.892604 -0.136893,-1.272298 -0.260306,-0.299694 -0.565952,-0.56 -0.853041,-0.836236 -0.227221,-0.218468 -0.477725,-0.425383 -0.553874,-0.747134 -0.03081,-0.130415 -0.03939,-0.313873 0.03063,-0.405601 0.05812,-0.07597 0.250678,-0.0856 0.375668,-0.0681 0.6407,0.08893 1.061356,0.527965 1.480962,0.963852 0.15825,0.164201 0.317374,0.327527 0.512735,0.529015 0.01768,-0.185033 0.03344,-0.307746 0.03974,-0.430985 0.007,-0.136893 0.06775,-0.228796 0.203764,-0.254529 0.149496,-0.02836 0.292341,-0.0026 0.347483,0.157724 0.07492,0.217068 0.12779,0.441488 0.235449,0.678512 0.04411,-0.314048 0.08823,-0.628096 0.134267,-0.957549 0.155098,0.04446 0.280437,0.08053 0.414354,0.118862 -0.03921,-0.850066 -0.505033,-1.409541 -1.211203,-1.793611 0.08105,-0.167527 0.189234,-0.163326 0.299693,-0.121137 1.660744,0.635098 2.777768,1.749496 3.086215,3.55326 0.124989,0.729628 -0.09103,1.397812 -0.462495,2.021707 -0.05724,0.09593 -0.12954,0.183107 -0.185908,0.279562 -0.550547,0.944595 -1.405864,1.27965 -2.450065,1.197724 -0.521664,-0.04079 -1.0393,-0.134267 -1.558863,-0.202538 -0.103807,-0.01365 -0.208665,-0.02906 -0.312822,-0.02906 -0.405602,5.25e-4 -0.665733,0.218468 -0.666959,0.621969 -0.0025,0.801751 -0.283413,1.485164 -0.788621,2.09383 -0.195186,0.235273 -0.193086,0.522713 -0.12884,0.799825 0.01908,0.0828 0.12989,0.162975 0.217417,0.207789 0.22372,0.114486 0.460044,0.203764 0.687265,0.311423 0.501007,0.237374 0.818381,0.601488 0.802801,1.189847 -0.0075,0.282538 -0.134792,0.509059 -0.323326,0.707571 -0.576455,0.60744 -1.297681,0.754486 -2.095405,0.65733 -0.460744,-0.05619 -0.711772,0.06582 -0.930416,0.471948 -0.03098,0.05742 -0.03063,0.169453 0.0058,0.219518 1.064858,1.464858 1.449103,3.158687 1.664245,4.910285 0.07002,0.569278 0.130416,1.139781 0.210941,1.707483 0.08,0.565252 -0.01313,1.117725 -0.103807,1.668622 -0.09225,0.5607 -0.06004,1.085864 0.193435,1.611378 0.458118,0.949672 0.425208,1.952035 0.22442,2.958425 -0.05882,0.294442 -0.126564,0.588009 -0.207264,0.877199 -0.07615,0.272735 -0.06232,0.532867 0.09488,0.765689 0.425733,0.631423 0.842889,1.270197 1.300307,1.878512 0.407352,0.541795 0.850941,1.058206 1.302407,1.564464 0.559649,0.627571 0.643851,1.306959 0.301444,2.057943 -0.04341,0.09523 -0.0877,0.19046 -0.124464,0.288315 -0.133392,0.355712 -0.364639,0.514486 -0.731029,0.43151 -0.428358,-0.0968 -0.844989,-0.243151 -1.269321,-0.358687 -0.411204,-0.11221 -0.824158,-0.219168 -1.239562,-0.314398 -0.137243,-0.03133 -0.284289,-0.01856 -0.466171,-0.02801 0.108884,0.289366 0.194135,0.539869 0.296717,0.783195 0.134092,0.318249 0.158775,0.62547 0.01208,0.952122 -0.0877,0.195186 -0.121313,0.41453 -0.181356,0.62267 -0.103983,0.360613 -0.259606,0.480875 -0.63825,0.469497 -0.623195,-0.01873 -1.199475,-0.2379 -1.736367,-0.516237 -1.059081,-0.548971 -2.186959,-0.798424 -3.359125,-0.903282 -0.454792,-0.04061 -0.872298,-0.185908 -1.256718,-0.43256 -0.06197,-0.03956 -0.137243,-0.0758 -0.20849,-0.08035 -0.116587,-0.0075 -0.204464,0.06267 -0.152473,0.182057 0.06512,0.150372 0.142845,0.307571 0.25558,0.422057 0.406827,0.414004 0.844814,0.797724 1.244639,1.217855 0.571729,0.600788 1.090766,1.245514 1.341094,2.056018 0.185383,0.599912 0.35081,1.206302 0.515361,1.812516 0.01488,0.05479 -0.02328,0.149497 -0.0688,0.19081 -0.290941,0.265383 -0.635624,0.357987 -1.010066,0.228446 -0.215492,-0.07457 -0.424333,-0.183282 -0.613742,-0.310022 -0.0926,-0.06197 -0.169803,-0.19361 -0.19221,-0.305995 -0.05864,-0.293917 -0.07527,-0.595887 -0.123588,-0.892254 -0.04464,-0.273961 -0.0772,-0.556674 -0.17523,-0.812604 -0.06127,-0.160525 -0.209716,-0.32105 -0.361138,-0.407002 -0.332604,-0.188884 -0.575405,-0.435361 -0.716149,-0.789672 -0.170153,-0.428534 -0.487002,-0.745908 -0.81523,-1.052954 -0.480525,-0.449191 -0.96175,-0.897681 -1.443151,-1.345471 -0.166652,-0.155273 -0.345207,-0.283238 -0.589759,-0.281137 -0.116411,8.75e-4 -0.189059,0.05269 -0.155974,0.160525 0.04937,0.16245 0.09173,0.353435 0.203939,0.46547 0.493829,0.493654 0.990985,0.988009 1.526652,1.434223 0.510635,0.425208 0.852342,0.935143 1.026346,1.568666 0.106433,0.387396 0.276761,0.741006 0.509234,1.073085 0.327702,0.468096 0.517112,0.990459 0.494004,1.573742 -0.01505,0.379518 -0.167877,0.523413 -0.543719,0.54372 -0.435537,0.02346 -0.826609,-0.116587 -1.205427,-0.304596 -0.184858,-0.09155 -0.286215,-0.252778 -0.277812,-0.458993 0.03133,-0.773567 -0.282363,-1.432998 -0.692516,-2.051816 -0.144245,-0.217943 -0.362889,-0.385821 -0.541094,-0.582407 -0.06425,-0.07107 -0.133392,-0.152648 -0.15965,-0.241401 -0.150722,-0.507658 -0.457768,-0.915011 -0.837462,-1.261969 -0.981357,-0.896455 -1.969716,-1.785558 -2.970853,-2.659781 -0.328753,-0.286915 -0.604114,-0.591335 -0.755011,-1.00709 -0.202539,-0.557724 -0.438162,-1.10372 -0.630547,-1.664595 -0.232298,-0.678337 -0.620219,-1.251291 -1.1193,-1.752298 -0.68639,-0.68884 -1.388884,-1.3621 -2.076499,-2.050065 -0.751685,-0.752035 -1.505821,-1.50232 -2.237724,-2.273436 -0.865471,-0.911685 -1.339344,-2.011904 -1.506696,-3.255492 -0.106609,-0.790722 -0.05392,-1.577418 0.0056,-2.365514 0.01786,-0.238425 -0.04622,-0.444814 -0.210591,-0.614967 -0.184158,-0.19081 -0.364639,-0.387046 -0.566127,-0.55825 -0.674661,-0.573654 -1.170066,-1.2814 -1.527878,-2.080525 -0.293216,-0.654705 -0.218118,-1.339169 -0.06197,-2.018031 0.167702,-0.729103 0.440963,-1.413742 0.856543,-2.037987 0.198162,-0.297768 0.334354,-0.290065 0.508358,0.02678 0.06039,0.110109 0.114311,0.224245 0.163151,0.339956 0.152473,0.360263 0.401751,0.629672 0.683414,0.906083 0.823457,0.808403 1.565864,1.687352 1.688403,2.91081 0.03028,0.30442 0.04166,0.610766 0.06407,0.950197 z"
           id="Fill-5"
           fill="#FFFFFF"
           style="fill:#202c44;fill-opacity:1" />
        <path
           d="m 22.601313,66.131641 c 0.259081,-0.365689 0.221269,-0.469672 -0.184683,-0.756936 -0.514311,-0.364114 -1.188096,-0.515186 -1.608928,0.07912 -0.271159,0.382845 -0.181006,0.909935 0.09471,1.259694 0.325427,0.109934 0.671685,0.226521 1.002888,0.401225 z m -1.023545,1.445777 c -0.570153,-0.249103 -1.542232,-0.499781 -1.971116,0.106083 -0.319825,0.451291 0.06442,0.817506 0.418731,1.068534 0.451466,0.319475 0.569103,0.214267 0.775317,-0.0772 z m 0.206214,1.913698 c -0.157549,0.222845 -0.214091,0.302845 -0.107133,0.430284 0.108709,0.137068 0.106608,0.212867 0.03396,0.315624 -0.109235,0.154223 -0.291992,0.08508 -0.417506,-0.004 l -2.074748,-1.468709 c -1.039825,-0.736455 -1.013392,-1.403939 -0.681488,-1.87256 0.327702,-0.462845 0.979431,-0.498906 1.481313,-0.38372 -0.500307,-0.517287 -0.737681,-1.260219 -0.28849,-1.894617 0.461269,-0.651379 1.364726,-0.801051 2.313523,-0.129366 l 2.211466,1.56604 c 0.125514,0.08893 0.251728,0.238074 0.142494,0.392472 -0.07282,0.102932 -0.160175,0.0926 -0.268184,0.07597 -0.19326,-0.04236 -0.269234,0.04114 -0.411028,0.24105 l -1.93418,2.731554 z"
           id="Fill-6"
           fill="#FFFFFF"
           style="fill:#202c44;fill-opacity:1" />
        <path
           d="m 17.414442,66.203238 c -0.182407,0.203239 -0.247877,0.276237 -0.156324,0.415055 0.09225,0.148622 0.08158,0.22372 -0.0028,0.317374 -0.126389,0.140744 -0.299868,0.05094 -0.414529,-0.05217 l -0.989584,-0.889103 c -0.114661,-0.102932 -0.22267,-0.265558 -0.09628,-0.406302 0.0842,-0.09383 0.169804,-0.0737 0.235274,-0.05234 0.236499,0.06179 0.312473,-0.0019 0.476324,-0.184158 l 2.236674,-2.490153 c 0.14512,-0.1614 0.220043,-0.244901 0.1621,-0.40035 -0.05777,-0.155624 -0.087,-0.238424 -0.003,-0.332254 0.126389,-0.140569 0.299693,-0.05077 0.414179,0.05234 l 0.989934,0.889102 c 0.114486,0.102933 0.222495,0.265733 0.09611,0.406302 -0.08403,0.09383 -0.169278,0.07352 -0.275186,0.04446 -0.186958,-0.06424 -0.272385,0.0098 -0.435886,0.192035 l -2.237024,2.490153"
           id="Fill-7"
           fill="#FFFFFF"
           style="fill:#202c44;fill-opacity:1" />
        <path
           d="m 15.757374,62.435536 c -0.445864,-0.484376 -1.289103,-1.047877 -1.903195,-0.505733 -0.456892,0.403151 -0.339956,0.916586 0.02608,1.331291 0.38442,0.435711 0.575054,0.323676 0.86407,0.06862 z m 1.334267,-1.186871 c 0.162626,-0.143895 0.246827,-0.217768 0.20709,-0.378993 -0.03956,-0.161226 -0.05899,-0.246827 0.03554,-0.330329 0.141794,-0.125164 0.30372,-0.01575 0.405777,0.09978 l 0.88035,0.997636 c 0.101882,0.115361 0.190284,0.289541 0.04849,0.414705 -0.09453,0.08333 -0.17698,0.05339 -0.278512,0.01243 -0.178381,-0.0856 -0.271685,-0.02188 -0.455492,0.140219 l -2.509585,2.214967 c -0.204638,0.180656 -0.278161,0.245602 -0.203063,0.394223 0.07457,0.158425 0.05532,0.231597 -0.03939,0.315099 -0.14197,0.125164 -0.30372,0.01575 -0.405777,-0.09961 L 13.132255,63.16481 c -0.250503,-0.283414 -0.531816,-0.62337 -0.627571,-0.996586 -0.112561,-0.423808 0.01,-0.87755 0.341006,-1.169541 0.493304,-0.435536 1.157812,-0.349409 1.722714,-0.100831 0.06635,-0.665733 0.332604,-1.274049 0.636849,-1.860482 0.09733,-0.207265 0.148271,-0.308271 0.09786,-0.534792 -0.01821,-0.105208 -0.04797,-0.181532 0.04639,-0.264858 0.141619,-0.125164 0.30512,0.03886 0.393173,0.138644 l 0.908008,1.028971 c 0.11151,0.12604 0.283414,0.310372 0.105033,0.467921 -0.157724,0.138994 -0.341006,-0.100656 -0.487877,0.02906 -0.268009,0.236324 -0.603414,1.316937 -0.653655,1.725515 0.138119,0.09295 0.326653,0.253479 0.54302,0.445689 l 0.934442,-0.824858 z"
           id="Fill-8"
           fill="#FFFFFF"
           style="fill:#202c44;fill-opacity:1" />
        <path
           d="m 9.193698,56.553173 c 0.090328,-0.106433 0.4882276,-0.381269 0.6186434,-0.46337 0.1421444,-0.08945 0.2944416,-0.04446 0.3877466,0.103632 0.100306,0.16 8.75e-4,0.330329 -0.119913,0.480526 -0.2575054,0.327177 -0.4442888,0.924289 -0.097856,1.475711 0.532691,0.847615 1.663194,0.856542 2.641225,0.24175 0.503807,-0.316674 1.685076,-1.265995 0.902932,-2.510809 -0.522013,-0.82976 -1.389759,-0.631773 -1.58337,-0.939869 -0.0709,-0.112735 -0.03554,-0.267309 0.07685,-0.338031 0.36779,-0.230897 1.498819,0.108184 2.162101,1.163239 0.790022,1.256718 0.602713,2.87965 -0.713348,3.706783 -1.32779,0.834836 -3.065908,0.306346 -3.8744853,-0.979956 -0.2907659,-0.46232 -0.4919037,-1.07186 -0.4729978,-1.621182 -0.0049,-0.11291 0.0021,-0.232997 0.072473,-0.318424"
           id="Fill-9"
           fill="#FFFFFF"
           style="fill:#202c44;fill-opacity:1" />
        <path
           d="m 8.8295843,55.195449 c -0.2396499,0.09838 -0.3093217,0.149671 -0.3180744,0.350109 -0.00298,0.08438 -0.026783,0.19256 -0.1433699,0.240525 -0.1748796,0.07177 -0.2921663,-0.08455 -0.3504595,-0.227046 L 7.5124727,54.328403 c -0.058468,-0.142495 -0.084902,-0.33593 0.089978,-0.407878 0.1167614,-0.04779 0.2013129,-0.007 0.2709846,0.07055 0.1337418,0.141619 0.1936106,0.140044 0.4722976,0.02556 L 9.4468271,53.564639 8.6545295,51.634486 7.5532604,52.086477 c -0.2263457,0.09295 -0.3145733,0.136718 -0.3177243,0.350109 -5.252e-4,0.09085 -0.026958,0.192561 -0.1435448,0.240526 C 6.9169365,52.748709 6.8,52.59256 6.7413567,52.450066 L 6.2363238,51.219431 c -0.058468,-0.142669 -0.084901,-0.33593 0.090153,-0.407702 0.1164114,-0.04796 0.2065646,0.006 0.2708096,0.0702 0.1575493,0.16245 0.2583808,0.113435 0.4722976,0.02573 l 3.096018,-1.270723 c 0.200612,-0.08245 0.294092,-0.11326 0.314398,-0.303369 0.02066,-0.152298 0.03046,-0.239475 0.147046,-0.287265 0.17488,-0.07177 0.291991,0.08438 0.350459,0.227046 l 0.505033,1.230634 c 0.05847,0.14232 0.0849,0.33593 -0.08963,0.407703 -0.116761,0.04779 -0.179431,0.0054 -0.246477,-0.0653 -0.145645,-0.152122 -0.296367,-0.11326 -0.49698,-0.03081 l -1.5091468,0.619519 0.7922975,1.930328 1.5089723,-0.619519 c 0.226695,-0.09313 0.294267,-0.11326 0.315798,-0.31895 0.01943,-0.136542 0.02906,-0.22372 0.145821,-0.271685 0.174704,-0.07177 0.291991,0.08455 0.350634,0.226871 l 0.505033,1.23081 c 0.05829,0.142495 0.08473,0.336105 -0.08998,0.407702 -0.116586,0.04779 -0.184683,-0.0074 -0.302494,-0.110284 -0.115537,-0.09663 -0.214092,-0.07878 -0.440963,0.01435 L 8.8295801,55.19544"
           id="Fill-10"
           fill="#FFFFFF"
           style="fill:#202c44;fill-opacity:1" />
        <path
           d="m 5.4676586,48.501357 c -0.031685,-0.164902 -0.038512,-0.349059 0.1745296,-0.390022 0.1101094,-0.02118 0.1810065,0.05077 0.246477,0.130766 0.1034573,0.12989 0.1510722,0.156323 0.3163239,0.124464 0.4399124,-0.08455 2.0236323,-0.710548 3.0487527,-1.385734 -1.0203939,-0.188533 -2.0178556,-0.296017 -3.0422757,-0.09873 -0.4264333,0.08228 -0.4708972,0.147746 -0.5461707,0.312122 -0.040438,0.08613 -0.065821,0.17663 -0.17593,0.197987 C 5.283326,47.43177 5.2267834,47.250066 5.1963238,47.091991 L 4.956674,45.847352 c -0.03291,-0.171903 -0.019606,-0.324201 0.1797811,-0.362538 0.2338731,-0.04516 0.217418,0.314573 0.5475712,0.251028 0.3919474,-0.07545 2.1978118,-0.879649 3.0477024,-1.578118 C 7.3330416,43.85663 5.9196499,43.886389 5.4863895,43.969891 5.0121663,44.061094 5.2437637,44.487177 4.934442,44.546871 4.7214004,44.587834 4.6708096,44.362188 4.6191685,44.094179 L 4.5025821,43.489015 c -0.027834,-0.14442 -0.037462,-0.342232 0.1482713,-0.378118 0.089278,-0.01698 0.1645514,0.03974 0.2300219,0.0842 0.150372,0.113611 0.1829321,0.171554 0.4164551,0.162276 2.3077462,-0.123588 4.0969803,0.280613 4.4175055,0.425558 0.1722538,0.08105 0.2165427,0.236499 0.259081,0.456543 0.071597,0.371291 0.043413,0.447965 -0.2273961,0.671335 -0.6384245,0.536367 -1.3990372,0.918337 -2.1202626,1.320962 1.6115536,0.110285 2.1353173,0.237725 2.5789058,0.394574 0.213917,0.073 0.266433,0.198337 0.314223,0.445864 0.094,0.488228 -0.03431,0.562801 -0.468796,0.860394 -0.8835013,0.597987 -2.1582496,1.235711 -3.5140483,1.675098 -0.1540482,0.05112 -0.2352735,0.07387 -0.3215755,0.25453 -0.046039,0.09453 -0.096105,0.168227 -0.2060394,0.189409 -0.227221,0.04376 -0.2709847,-0.147571 -0.326477,-0.436236 L 5.4676586,48.501357"
           id="Fill-11"
           fill="#FFFFFF"
           style="fill:#202c44;fill-opacity:1" />
        <path
           d="m 7.046302,38.033435 c -0.8892779,-0.0089 -2.1528228,0.28639 -2.1640263,1.399913 -0.0091,0.896455 0.931116,1.417068 2.0866521,1.428971 0.8682713,0.0088 2.1738293,-0.279212 2.1848578,-1.37873 C 9.1651641,38.363064 7.9497593,38.042538 7.046302,38.033435 Z M 6.97593,42.228096 c -1.5546609,-0.01575 -2.6415755,-1.259518 -2.6261707,-2.78617 0.01558,-1.540657 1.0926915,-2.790372 2.6825383,-2.774442 1.5686652,0.01593 2.6690591,1.322713 2.6536543,2.84954 -0.013479,1.323589 -0.9591248,2.728753 -2.7100219,2.711072 z"
           id="Fill-12"
           fill="#FFFFFF"
           style="fill:#202c44;fill-opacity:1" />
        <path
           d="M 7.9441575,31.901094 C 7.07186,31.727615 5.77593,31.783807 5.5586871,32.875799 c -0.1748797,0.878949 0.6522538,1.564639 1.785558,1.790109 0.851291,0.169453 2.1874836,0.12814 2.4019256,-0.949847 C 9.964639,32.617243 8.8297593,32.077374 7.9441575,31.901094 Z m -0.8458643,4.108009 c -1.5243764,-0.30337 -2.3620131,-1.72639 -2.0642451,-3.223458 0.300569,-1.510722 1.590197,-2.539168 3.1490591,-2.228971 1.5382057,0.305996 2.3772428,1.79361 2.0794748,3.290678 -0.258381,1.297856 -1.4477023,2.503107 -3.1642888,2.161751 z"
           id="Fill-13"
           fill="#FFFFFF"
           style="fill:#202c44;fill-opacity:1" />
        <path
           d="m 10.262232,28.995536 c 0.455142,0.181707 0.633348,0.245252 0.83046,-0.248928 0.43361,-1.086039 -0.224771,-1.967089 -1.2330859,-2.369365 -1.027221,-0.410153 -2.1726039,-0.241576 -2.6189934,0.876849 -0.1841576,0.461619 -0.034661,0.521313 0.3749672,0.684989 z M 6.8619694,26.861619 c 0.2727352,-0.682713 0.5932604,-1.278424 1.2588184,-1.661094 0.6884901,-0.403676 1.4454266,-0.410678 2.1736542,-0.119912 0.643851,0.25698 1.213654,0.718074 1.493567,1.357724 0.297068,0.691291 0.194661,1.419694 -0.07772,2.102407 l -0.838338,2.100306 c -0.05724,0.14302 -0.172954,0.300394 -0.348533,0.230372 C 10.406306,30.824682 10.396153,30.73768 10.3867,30.628446 10.3828,30.43081 10.283943,30.376193 10.056197,30.285339 L 6.9479212,29.044551 C 6.694442,28.94337 6.6034136,28.906958 6.5045077,29.04105 6.396849,29.178993 6.3228009,29.194573 6.2056893,29.147834 6.0301094,29.077637 6.0547921,28.884026 6.1116849,28.741007 Z"
           id="Fill-14"
           fill="#FFFFFF"
           style="fill:#202c44;fill-opacity:1" />
        <path
           d="m 14.118512,22.090678 c 0.183807,0.12814 0.258731,0.180132 0.388271,0.116762 0.125339,-0.05759 0.254705,-0.121138 0.358162,-0.04902 0.155274,0.108009 0.08735,0.291291 -7e-4,0.417681 l -0.760438,1.091816 c -0.08805,0.12639 -0.236323,0.253479 -0.391597,0.145296 -0.103457,-0.07195 -0.094,-0.1593 -0.07807,-0.267659 0.04079,-0.193436 -0.04289,-0.268884 -0.244027,-0.409103 l -2.746608,-1.913348 c -0.22407,-0.156149 -0.30442,-0.212166 -0.43116,-0.103982 -0.136192,0.109759 -0.211991,0.108359 -0.3154482,0.03624 -0.1550985,-0.108009 -0.087352,-0.291291 8.753e-4,-0.417681 l 1.7372429,-2.493654 c 0.136017,-0.195361 0.216017,-0.310372 0.310197,-0.347308 0.188009,-0.07387 0.490678,0.128665 0.657855,0.219518 0.124639,0.07825 0.345909,0.189585 0.217769,0.373567 -0.08017,0.114836 -0.208491,0.12779 -0.331379,0.14477 -0.547046,0.0625 -0.730678,0.30162 -1.031072,0.732604 -0.384245,0.551598 -0.356587,0.62197 0.02853,0.890328 l 0.971028,0.676412 0.584508,-0.839037 c 0.284114,-0.407878 0.02748,-0.492779 0.163501,-0.68814 0.136192,-0.195361 0.329803,-0.06897 0.536542,0.0751 0.241576,0.168053 0.478775,0.342057 0.342758,0.537418 -0.136018,0.195361 -0.305296,0.0093 -0.577506,0.399825 l -0.584332,0.839037 1.195098,0.83256"
           id="Fill-15"
           fill="#FFFFFF"
           style="fill:#202c44;fill-opacity:1" />
        <path
           d="m 16.25488,17.277549 c -0.651904,-0.282888 -1.282276,-0.527089 -1.893567,-0.677987 0.235799,0.613742 0.483676,1.172342 0.835711,1.835624 z m -0.76639,1.689453 c 0.251379,0.523939 0.383895,0.711247 0.512735,0.829234 0.227572,0.20779 0.421532,-0.108008 0.612692,0.0667 0.160175,0.146346 0.0095,0.321576 -0.141619,0.487002 l -0.387397,0.423633 c -0.141794,0.155098 -0.27431,0.28989 -0.444638,0.134092 -0.07247,-0.06617 -0.0667,-0.155624 -0.05602,-0.250329 0.02398,-0.129715 0.03624,-0.184857 -0.02363,-0.305995 -0.726127,-1.156762 -1.404989,-2.593085 -1.956062,-4.158775 -0.09103,-0.263457 -0.04009,-0.340131 0.196237,-0.598512 0.240875,-0.263632 0.266258,-0.249803 0.542144,-0.17803 1.529278,0.4021 2.916937,0.959124 4.306871,1.565689 0.08613,0.04061 0.17523,0.03659 0.307046,-0.004 0.09278,-0.02888 0.162101,-0.03204 0.23965,0.03886 0.150022,0.136892 0.04832,0.300043 -0.06512,0.424157 l -0.79825,0.873348 c -0.108534,0.118687 -0.293217,0.310372 -0.453392,0.164026 -0.165426,-0.151247 0.05829,-0.354485 -0.06039,-0.463194 -0.07755,-0.07072 -0.271334,-0.190985 -1.00849,-0.494705 l -1.322363,1.446827 z"
           id="Fill-16"
           fill="#FFFFFF"
           style="fill:#202c44;fill-opacity:1" />
        <path
           d="m 18.921488,14.151948 c 0.506783,-0.420132 1.113523,-1.232211 0.604289,-1.873961 -0.378293,-0.477199 -0.897156,-0.387396 -1.330416,-0.04359 -0.455142,0.361138 -0.35326,0.557374 -0.113786,0.858994 z m 1.115098,1.394135 c 0.134968,0.169978 0.204639,0.257856 0.36779,0.226871 0.162976,-0.03116 0.249278,-0.04621 0.327878,0.05252 0.117461,0.148096 -1.75e-4,0.304069 -0.120788,0.399824 l -1.042276,0.826784 c -0.120437,0.09576 -0.298993,0.174879 -0.41663,0.02678 -0.07842,-0.09873 -0.04411,-0.179431 0.0023,-0.278687 0.09453,-0.173654 0.03606,-0.269934 -0.116411,-0.461969 l -2.080001,-2.621795 c -0.169803,-0.213741 -0.230722,-0.29059 -0.383019,-0.223369 -0.162101,0.06617 -0.234223,0.04289 -0.312648,-0.05584 -0.117462,-0.148096 1.75e-4,-0.30407 0.120963,-0.399825 l 1.946783,-1.544858 c 0.296193,-0.234923 0.650679,-0.498205 1.028097,-0.574354 0.428884,-0.09015 0.875623,0.05584 1.149759,0.401575 0.409103,0.515362 0.288315,1.174267 0.01068,1.725515 0.661007,0.101006 1.254792,0.398599 1.82407,0.733129 0.202013,0.108009 0.300219,0.164201 0.52884,0.125689 0.106084,-0.01278 0.183983,-0.03869 0.262232,0.06022 0.117462,0.148096 -0.05479,0.302669 -0.158949,0.385295 l -1.075011,0.853042 c -0.131466,0.104332 -0.324727,0.266608 -0.472648,0.08 -0.130766,-0.164552 0.118162,-0.335055 -0.0037,-0.488753 -0.221969,-0.279737 -1.283151,-0.670985 -1.688578,-0.742582 -0.100131,0.133042 -0.270284,0.312648 -0.473348,0.518512 l 0.774617,0.97628 z"
           id="Fill-17"
           fill="#FFFFFF"
           style="fill:#202c44;fill-opacity:1" />
        <path
           d="m 22.126565,8.8889278 c 0.296542,-0.1584245 0.429759,0.016455 0.587308,0.1626258 0.742232,0.6907659 1.399562,1.2525164 2.116236,1.8062144 -0.03746,-0.9167614 -0.157724,-1.8844638 -0.288665,-2.9022319 -0.03186,-0.252779 -0.04359,-0.3338293 0.234398,-0.4824508 L 25.831597,6.908884 c 0.136018,-0.072648 0.325952,-0.1186871 0.415055,0.04814 0.05917,0.1111597 0.01453,0.1908096 -0.03099,0.2389496 -0.231247,0.2506784 -0.197461,0.3436324 -0.0821,0.559825 0.346608,0.6484026 1.098993,1.8338731 1.670197,2.9022324 0.102232,0.19151 0.155098,0.29024 0.32105,0.28884 0.165777,-0.0014 0.253654,-7e-4 0.312998,0.110635 0.08928,0.166652 -0.05444,0.298993 -0.19046,0.371641 l -1.173216,0.62687 c -0.135668,0.07265 -0.325427,0.118513 -0.41453,-0.04814 -0.05952,-0.111159 -0.0112,-0.184507 0.05199,-0.27396 0.124114,-0.153698 0.08368,-0.259081 -0.03186,-0.475274 -0.504857,-0.94477 -1.022494,-1.779781 -1.524726,-2.6305468 0.131816,1.0489278 0.252254,2.0168058 0.330853,3.0701098 0.02206,0.353435 0.03028,0.428359 -0.247527,0.57698 -0.271685,0.14512 -0.362013,0.169453 -0.602013,-0.0119 -0.830635,-0.603938 -1.599125,-1.225208 -2.446215,-1.963413 0.44569,0.952647 0.897506,1.902144 1.30976,2.67396 0.115536,0.216193 0.216717,0.257331 0.503982,0.214968 0.12814,-0.01278 0.200788,0.004 0.263457,0.121312 0.09891,0.185208 -0.120087,0.310372 -0.348708,0.432385 l -0.537418,0.286915 c -0.166477,0.08928 -0.392123,0.201838 -0.491029,0.01663 -0.06267,-0.117286 -0.03641,-0.186958 0.04551,-0.286214 0.163326,-0.214442 0.154924,-0.289365 0.03956,-0.505383 -0.44569,-0.833785 -1.462757,-2.989409 -1.548534,-3.149934 -0.05602,-0.1050333 -0.222495,-0.1192127 -0.393873,-0.08333 -0.137243,0.02573 -0.270985,0.05742 -0.349935,-0.090679 -0.109059,-0.2039387 0.07913,-0.3122976 0.239825,-0.3980744 l 1.203852,-0.6435011"
           id="Fill-18"
           fill="#FFFFFF"
           style="fill:#202c44;fill-opacity:1" />
        <path
           d="M 30.440613,10.257155 C 30.899781,10.106783 31.387308,9.6821007 31.212954,9.1497593 30.829584,7.9781182 28.268184,9.788884 27.628009,7.8321225 27.523501,7.5126477 27.388709,6.2230197 29.106171,5.660919 29.5986,5.4998687 30.17698,5.443326 30.690241,5.5257768 c 0.09505,0.020481 0.185733,0.049715 0.242801,0.134267 0.0989,0.1444201 0.188183,0.4173304 0.242801,0.5836323 0.05234,0.159825 0.0095,0.2991685 -0.1572,0.3536105 -0.359212,0.1176368 -0.615317,-0.844989 -1.706958,-0.4878774 -0.379344,0.1242888 -0.762188,0.4854267 -0.620744,0.9179869 0.392297,1.1980744 2.931291,-0.5906346 3.562713,1.3395186 0.235274,0.7189496 -0.06354,1.8998683 -1.581094,2.3964993 -1.637462,0.535667 -2.35326,-0.210066 -2.446915,-0.49628 -0.06074,-0.186434 0.01348,-0.4098036 0.206565,-0.4728233 0.179781,-0.058818 0.245952,-0.036236 0.682713,0.3072213 0.238075,0.187308 0.706521,0.358162 1.32569,0.155623"
           id="Fill-19"
           fill="#FFFFFF"
           style="fill:#202c44;fill-opacity:1" />
        <path
           d="m 39.2793,6.3926477 c 0.606914,-0.051991 0.676061,0.019256 0.689715,0.1797812 0.01383,0.1605251 -0.04744,0.3483588 -0.0075,0.8157549 0.03641,0.425558 0.159125,0.7101969 0.168228,0.8148797 0.01978,0.2301969 -0.22162,0.4476148 -0.789322,0.713873 C 38.847265,9.148884 38.478249,9.2717724 37.934179,9.318337 36.371466,9.4519037 35.034748,8.6105908 34.893829,6.9642013 34.75081,5.2899781 35.972692,4.1314661 37.584245,3.993523 c 0.488228,-0.041663 1.147834,0.028534 1.6014,0.2356236 0.124464,0.059694 0.241926,0.1199125 0.314749,0.2329978 0.0737,0.1202626 0.09593,0.4626696 0.108534,0.6091904 0.02906,0.3418818 -0.07773,0.4071772 -0.224245,0.4197812 -0.16035,0.013654 -0.240175,-0.098906 -0.298644,-0.2063895 -0.277461,-0.5314661 -0.73803,-0.822407 -1.330765,-0.7716412 -1.178994,0.1008315 -1.588622,1.3094092 -1.50162,2.3278775 0.07632,0.892954 0.65418,1.9817943 1.693654,1.8930416 0.2372,-0.020306 0.552298,-0.1174617 0.71755,-0.3214005 0.178205,-0.2189934 0.154573,-0.5754048 0.131291,-0.8474398 -0.03869,-0.4533917 -0.0842,-0.57593 -0.565777,-0.5347921 -0.348884,0.029759 -0.544595,0.039387 -0.566652,-0.2186433 -0.02101,-0.2440263 0.171378,-0.2956674 0.492254,-0.323151 l 1.123326,-0.09593"
           id="Fill-20"
           fill="#FFFFFF"
           style="fill:#202c44;fill-opacity:1" />
        <path
           d="m 44.694442,6.8446389 c 0.08035,-0.8854267 -0.11256,-2.1682275 -1.221182,-2.268884 -0.892428,-0.080875 -1.486739,0.8141794 -1.591247,1.964639 -0.07825,0.8645952 0.103808,2.1885339 1.1986,2.287965 1.115623,0.1011816 1.532254,-1.0842889 1.613829,-1.98372 z M 40.520788,6.4379869 C 40.660831,4.8901532 41.987396,3.9066958 43.507396,4.044639 45.0414,4.1836324 46.200438,5.3573742 46.056718,6.9402188 45.914923,8.5018818 44.524639,9.4935667 43.004639,9.3556236 41.686827,9.2360613 40.362538,8.1810066 40.520788,6.4379869 Z"
           id="Fill-21"
           fill="#FFFFFF"
           style="fill:#202c44;fill-opacity:1" />
        <path
           d="M 47.354923,5.5823195 C 47.418818,5.331291 47.429147,5.2906783 47.309234,5.1662144 47.188972,5.0417505 47.124727,4.9820569 47.162713,4.8327352 47.202451,4.6767615 47.329891,4.6585558 47.546958,4.713698 l 1.289278,0.3278775 c 0.217068,0.055317 0.32035,0.1321663 0.280613,0.28814 -0.03799,0.1493217 -0.122888,0.1710285 -0.28779,0.2230197 -0.165076,0.051991 -0.175405,0.092604 -0.2393,0.3436324 l -0.812604,3.1956237 c -0.101706,0.4003501 -0.0068,0.4245076 0.374442,0.5431947 l 0.251204,0.063895 c 0.407177,0.1034573 0.676936,0.150547 1.049628,-0.094179 0.139694,-0.09453 0.347483,-0.2583807 0.523939,-0.2135667 0.122188,0.030985 0.220218,0.1570241 0.187483,0.2860394 -0.04674,0.1831072 -0.202363,0.4253833 -0.306345,0.5794313 -0.160876,0.262582 -0.22197,0.275887 -0.52709,0.198337 L 46.283939,9.6801751 c -0.217243,-0.055142 -0.320525,-0.1319913 -0.280788,-0.287965 0.03799,-0.1493217 0.123063,-0.1710285 0.287965,-0.2230197 0.164902,-0.051991 0.175055,-0.092604 0.239125,-0.3436324 l 0.824682,-3.2432385"
           id="Fill-22"
           fill="#FFFFFF"
           style="fill:#202c44;fill-opacity:1" />
        <path
           d="m 51.644114,10.359037 c -0.0835,0.20779 -0.117462,0.292342 -0.02661,0.404202 0.08438,0.109409 0.17523,0.221444 0.128316,0.338205 -0.07055,0.17558 -0.264158,0.150547 -0.407353,0.09313 l -1.234486,-0.495755 c -0.142844,-0.05742 -0.300043,-0.173304 -0.229671,-0.348709 0.04709,-0.116936 0.134267,-0.127264 0.243326,-0.136192 0.197812,-0.0037 0.252429,-0.102407 0.343982,-0.3298032 l 1.24709,-3.1058206 C 51.810415,6.524815 51.847001,6.4337866 51.713308,6.3348807 51.57554,6.2266968 51.559961,6.1526487 51.60705,6.0357122 51.67742,5.8603073 51.871033,5.8851651 52.014052,5.9425832 l 2.819957,1.1324288 c 0.220919,0.088753 0.350809,0.1409191 0.407877,0.2242451 0.114486,0.166477 -0.01488,0.5069584 -0.06582,0.6904158 -0.04832,0.1389934 -0.107133,0.3795186 -0.315098,0.2960175 C 54.730853,8.2333479 54.68954,8.1111597 54.645427,7.9952735 54.461444,7.4762363 54.187484,7.3510722 53.700131,7.155361 53.076236,6.9048578 53.014092,6.9477462 52.839037,7.3831072 l -0.441138,1.0981182 0.948797,0.380919 c 0.461269,0.1852079 0.486302,-0.083851 0.707221,0.0049 0.221094,0.088578 0.141444,0.3056455 0.04762,0.5395186 C 53.991953,9.6794732 53.875891,9.9497577 53.654797,9.86118 53.433873,9.7724289 53.577243,9.5658643 53.13523,9.3883589 L 52.186608,9.0074398 51.644114,10.359037"
           id="Fill-23"
           fill="#FFFFFF"
           style="fill:#202c44;fill-opacity:1" />
        <path
           d="m 60.391072,11.394136 c 0.193436,-0.274836 0.12814,-0.620394 -0.152648,-0.817681 -0.251903,-0.177155 -0.589409,-0.123413 -0.762538,0.122888 -0.19326,0.275012 -0.179781,0.669585 -0.168227,0.994311 0.373741,0.04026 0.841838,0.04429 1.083413,-0.299518 z m -3.154836,1.102844 c -0.326127,0.463895 -0.208315,1.026346 0.250154,1.348447 0.286214,0.201313 0.522713,0.230547 0.856367,0.242801 -0.150547,-0.662407 -0.192035,-1.333567 -0.176455,-2.049891 -0.387221,0.02731 -0.700569,0.132166 -0.930066,0.458643 z m 4.289366,1.16709 c 0.131641,0.0926 0.241575,0.204114 0.12884,0.364464 -0.06057,0.08595 -0.157374,0.07772 -0.246302,0.05794 -0.214442,-0.04796 -0.272385,-0.06302 -0.570853,0.06932 -0.355361,0.152472 -0.797375,0.355186 -1.297331,0.457418 0.05497,0.372341 0.228447,0.734179 0.549322,0.95965 0.131816,0.0926 0.276936,0.117636 0.380044,0.190109 0.07422,0.05234 0.09068,0.175055 0.03431,0.25523 -0.08858,0.126039 -0.244026,0.127965 -0.383369,0.107133 -0.313698,-0.04079 -0.586434,-0.164201 -0.844114,-0.345383 -0.423983,-0.298118 -0.636674,-0.652954 -0.801576,-1.136805 -0.576805,0.0051 -1.064682,-0.141094 -1.540131,-0.475274 -0.664508,-0.467221 -1.191948,-1.360175 -0.660481,-2.116236 0.439212,-0.62442 1.171116,-0.691816 1.861531,-0.565777 -0.01716,-0.414179 0.04236,-0.851816 0.284114,-1.195448 0.386696,-0.549672 1.199825,-0.7569368 2.162101,-0.08035 0.555623,0.390722 0.997111,1.077636 0.54582,1.719212 -0.378643,0.538293 -1.227833,0.48035 -1.793785,0.347834 0.01838,0.594835 0.05147,1.21733 0.141269,1.819693 0.279737,-0.0688 0.680963,-0.189059 0.854092,-0.435186 0.181181,-0.257855 -0.210766,-0.430634 -0.05777,-0.648402 0.100656,-0.143195 0.25768,-0.04989 0.366389,0.02661 l 0.887878,0.624245 z"
           id="Fill-24"
           fill="#FFFFFF"
           style="fill:#202c44;fill-opacity:1" />
        <path
           d="m 68.385295,18.515536 c -0.073,0.118862 -0.424332,0.450766 -0.540744,0.551597 -0.127264,0.109935 -0.284464,0.08875 -0.399124,-0.04376 -0.123589,-0.142845 -0.05094,-0.326127 0.04551,-0.492954 0.204989,-0.362363 0.299168,-0.981007 -0.12709,-1.473436 -0.654879,-0.756936 -1.773304,-0.594486 -2.647002,0.161401 -0.449716,0.389496 -1.473611,1.506871 -0.511335,2.618468 0.641401,0.741182 1.469059,0.413829 1.706959,0.689015 0.087,0.100657 0.07562,0.258556 -0.02468,0.345558 -0.328053,0.284114 -1.497593,0.120263 -2.313173,-0.822057 -0.971203,-1.122275 -1.032123,-2.754485 0.14302,-3.771553 1.18582,-1.026171 2.983807,-0.76744 3.977943,0.381444 0.357462,0.412779 0.648577,0.984683 0.713348,1.530328 0.02188,0.11081 0.03308,0.230722 -0.02363,0.325952"
           id="Fill-25"
           fill="#FFFFFF"
           style="fill:#202c44;fill-opacity:1" />
        <path
           d="m 69.508096,24.005427 c 0.763764,-0.455843 1.688228,-1.366302 1.11755,-2.322276 -0.459344,-0.769716 -1.53313,-0.724201 -2.525165,-0.131991 -0.745558,0.444989 -1.709584,1.371028 -1.146083,2.314923 0.574005,0.962101 1.778206,0.602188 2.553698,0.139344 z m -2.125514,-3.61593 c 1.334967,-0.796849 2.910635,-0.30197 3.692954,1.00884 0.789497,1.322888 0.521488,2.950722 -0.843413,3.765252 -1.347046,0.803851 -2.967003,0.262057 -3.749147,-1.048753 -0.678337,-1.136455 -0.603589,-2.828184 0.899606,-3.725339 z"
           id="Fill-26"
           fill="#FFFFFF"
           style="fill:#202c44;fill-opacity:1" />
        <path
           d="m 73.448928,26.38547 c 0.05707,0.150547 0.07562,0.338206 -0.08823,0.400175 -0.137243,0.05199 -0.203938,-0.0053 -0.294267,-0.105733 -0.164551,-0.17733 -0.261181,-0.155798 -0.482275,-0.087 -0.510285,0.155449 -1.330591,0.421007 -2.096806,0.711072 -1.244464,0.470723 -1.275273,1.141357 -1.044901,1.750372 0.245426,0.648403 0.744857,1.058381 1.963063,0.597462 0.759738,-0.28744 1.411116,-0.623895 2.150372,-0.926039 0.154573,-0.066 0.149497,-0.138819 0.168578,-0.325777 0.0112,-0.109059 0.02748,-0.204989 0.145295,-0.249628 0.209716,-0.0793 0.300394,0.140919 0.362364,0.304595 l 0.215667,0.569803 c 0.06214,0.163676 0.139694,0.388972 -0.06985,0.468272 -0.117987,0.04464 -0.19361,-0.01663 -0.274136,-0.09103 -0.138118,-0.12744 -0.182757,-0.185558 -0.372516,-0.11361 -0.412429,0.156148 -1.289978,0.60779 -2.115186,0.920087 -1.597899,0.604639 -2.348359,-0.09225 -2.799475,-1.284201 -0.406302,-1.074136 -0.38512,-2.205339 1.285077,-2.837287 0.72035,-0.27256 1.69593,-0.544245 2.023107,-0.668184 0.25558,-0.09663 0.347133,-0.131291 0.329628,-0.296717 -0.01383,-0.17453 0.03028,-0.236149 0.148271,-0.280788 0.176806,-0.06705 0.296193,0.08998 0.350635,0.234223 l 0.49558,1.309934"
           id="Fill-27"
           fill="#FFFFFF"
           style="fill:#202c44;fill-opacity:1" />
        <path
           d="m 73.842101,31.093567 c 0.508358,-0.100832 0.566302,-0.169453 0.595361,-0.418031 0.01523,-0.138643 0.02363,-0.275886 0.188359,-0.308621 0.226695,-0.04499 0.275886,0.166477 0.311247,0.345032 l 0.186958,0.940744 c 0.05042,0.25418 0.05304,0.303545 -0.103632,0.520263 -0.333129,0.480175 -0.728928,0.930066 -2.541269,2.767615 l 2.314223,-0.459694 c 0.254179,-0.05042 0.303545,-0.124464 0.359037,-0.38547 0.02468,-0.126215 0.06197,-0.190635 0.19256,-0.216543 0.20604,-0.04096 0.252429,0.156849 0.305471,0.424508 l 0.118687,0.597637 c 0.04656,0.233347 0.08595,0.468271 -0.120088,0.509234 -0.130415,0.02591 -0.189409,-0.01961 -0.260656,-0.12674 -0.161926,-0.239125 -0.197462,-0.274836 -0.47895,-0.218818 l -3.72884,0.740656 c -0.425733,0.08438 -0.491554,0.07615 -0.573479,-0.33593 -0.03133,-0.157899 -0.05724,-0.288315 0.03869,-0.378818 0.423457,-0.419606 2.025383,-2.058293 3.147658,-3.380482 l -2.877549,0.571554 c -0.254004,0.05042 -0.308971,0.132692 -0.358687,0.385295 -0.02486,0.12639 -0.06197,0.19081 -0.19256,0.216718 -0.206039,0.04096 -0.258031,-0.184333 -0.305821,-0.424683 l -0.118687,-0.597461 c -0.04604,-0.233523 -0.08578,-0.468447 0.120263,-0.509234 0.130591,-0.02591 0.189409,0.01943 0.260831,0.126564 0.143895,0.221269 0.211116,0.27221 0.47895,0.218994 l 3.041926,-0.604289"
           id="Fill-28"
           fill="#FFFFFF"
           style="fill:#202c44;fill-opacity:1" />
        <path
           d="m 75.085339,37.703282 c 0.28674,-0.01173 0.377418,-0.02241 0.366565,-0.295317 -0.03256,-0.797549 -0.615318,-0.822932 -0.628447,-1.144858 -0.0068,-0.167877 0.09558,-0.235098 0.256631,-0.24175 0.07702,-0.0032 0.154573,0.0147 0.4014,0.04691 0.436936,0.05934 0.439737,0.129191 0.452516,0.444114 l 0.145471,3.58267 c 0.01295,0.314748 0.01558,0.38477 -0.415055,0.479299 -0.242976,0.05199 -0.3193,0.07615 -0.396149,0.07912 -0.16105,0.0067 -0.268359,-0.05199 -0.275536,-0.219869 -0.01295,-0.321925 0.565952,-0.394398 0.533567,-1.192297 -0.0112,-0.27291 -0.102407,-0.276236 -0.389322,-0.264508 l -3.337768,0.135668 c -0.216718,0.0088 -0.328752,0.0133 -0.399825,0.163326 -0.0709,0.150197 -0.109934,0.228796 -0.235798,0.233873 -0.188884,0.0077 -0.245427,-0.179256 -0.251729,-0.333129 l -0.05409,-1.329541 c -0.0061,-0.153873 0.03536,-0.344858 0.223895,-0.35256 0.126039,-0.0051 0.171028,0.0702 0.224245,0.166127 0.0842,0.178906 0.196762,0.188184 0.441663,0.178381 l 3.337768,-0.135668"
           id="Fill-29"
           fill="#FFFFFF"
           style="fill:#202c44;fill-opacity:1" />
        <path
           d="m 73.466608,42.755361 c -0.05917,0.65558 0.08945,1.658818 0.903808,1.749497 0.605164,0.06775 0.906958,-0.363589 0.968402,-0.913261 0.06442,-0.57768 -0.146696,-0.643501 -0.52919,-0.686214 z m -1.775405,-0.19116 c -0.215667,-0.02398 -0.327177,-0.03659 -0.419781,0.101182 -0.09313,0.137593 -0.14337,0.209365 -0.268534,0.195536 -0.187833,-0.02101 -0.215492,-0.214442 -0.198512,-0.367615 l 0.147572,-1.322188 c 0.01716,-0.152998 0.087,-0.33558 0.27466,-0.314398 0.125339,0.014 0.1586,0.09505 0.196412,0.197987 0.05619,0.189409 0.166127,0.215842 0.409803,0.242975 l 3.326039,0.371467 c 0.27151,0.03028 0.36884,0.04114 0.428534,-0.114136 0.0674,-0.161576 0.134792,-0.196411 0.259956,-0.182407 0.188009,0.02101 0.215493,0.214267 0.198687,0.367265 l -0.275886,2.470547 c -0.04201,0.375667 -0.105033,0.812429 -0.317024,1.134004 -0.238424,0.367965 -0.656805,0.581882 -1.095142,0.533042 -0.65418,-0.07317 -1.036499,-0.62302 -1.232035,-1.208403 -0.537593,0.397724 -1.16709,0.609365 -1.805865,0.777593 -0.218818,0.06722 -0.327877,0.09733 -0.461794,0.286565 -0.06582,0.0842 -0.102232,0.157724 -0.227396,0.143719 -0.188009,-0.02101 -0.176105,-0.252078 -0.1614,-0.384245 l 0.152297,-1.364026 c 0.01856,-0.167002 0.03974,-0.418381 0.276412,-0.391772 0.20849,0.02311 0.154398,0.320175 0.349234,0.341882 0.354836,0.03956 1.380306,-0.437637 1.716936,-0.675011 -0.02381,-0.164552 -0.03151,-0.412079 -0.03449,-0.70127 l -1.238688,-0.138293 z"
           id="Fill-30"
           fill="#FFFFFF"
           style="fill:#202c44;fill-opacity:1" />
        <path
           d="m 71.988096,47.752122 c 0.878075,-0.350109 1.672823,-0.606914 2.536543,-0.822932 0.249278,-0.06319 0.268359,-0.07982 0.439737,-0.25838 0.08333,-0.09348 0.17453,-0.163151 0.303195,-0.128491 0.216193,0.05847 0.160875,0.290241 0.08403,0.574005 l -0.33628,1.243939 c -0.04761,0.175754 -0.116936,0.352735 -0.340131,0.292516 -0.202713,-0.05497 -0.09348,-0.351685 -0.25558,-0.395624 -0.20954,-0.05654 -0.593435,0.02101 -2.143195,0.602889 0.804377,1.102494 1.300482,1.548534 1.489541,1.59965 0.202888,0.05479 0.270284,-0.275011 0.493304,-0.214793 0.20954,0.05672 0.175055,0.264858 0.133042,0.420482 l -0.15895,0.588009 c -0.06582,0.243326 -0.123764,0.430809 -0.340306,0.372341 -0.06074,-0.01645 -0.1593,-0.108359 -0.17453,-0.185208 -0.03904,-0.17733 -0.05392,-0.203063 -0.22582,-0.372691 -0.675012,-0.668709 -1.257068,-1.333742 -1.782933,-2.070898 l -1.169715,-0.315973 c -0.209366,-0.05654 -0.31755,-0.08595 -0.43046,0.03589 -0.112735,0.121838 -0.173129,0.185208 -0.294967,0.152298 -0.182582,-0.04919 -0.180481,-0.244377 -0.140219,-0.393173 l 0.347134,-1.284552 c 0.04026,-0.148621 0.136892,-0.318249 0.319475,-0.269059 0.121663,0.03291 0.142144,0.118337 0.163851,0.225646 0.02678,0.195886 0.131291,0.238599 0.367965,0.302494 l 1.115273,0.301619"
           id="Fill-31"
           fill="#FFFFFF"
           style="fill:#202c44;fill-opacity:1" />
        <path
           d="m 70.042363,58.689715 c -0.136892,-0.02713 -0.571028,-0.240525 -0.70617,-0.314398 -0.147572,-0.0807 -0.182407,-0.235623 -0.09838,-0.389146 0.09068,-0.165952 0.287965,-0.161926 0.477899,-0.129716 0.411204,0.0653 1.02407,-0.06267 1.336543,-0.633873 0.480525,-0.878775 -0.06267,-1.870284 -1.076412,-2.424683 -0.522188,-0.285689 -1.927352,-0.854617 -2.632997,0.435711 -0.470372,0.860219 0.125864,1.521576 -0.04884,1.840876 -0.0639,0.116761 -0.216017,0.1614 -0.332604,0.0975 -0.381094,-0.208315 -0.636323,-1.36175 -0.03816,-2.455317 0.712123,-1.302407 2.22092,-1.929978 3.584946,-1.18407 1.376455,0.75256 1.762101,2.52814 1.032823,3.861532 -0.262057,0.479299 -0.696193,0.952122 -1.185121,1.203501 -0.09628,0.05917 -0.204639,0.111685 -0.313523,0.09208"
           id="Fill-32"
           fill="#FFFFFF"
           style="fill:#202c44;fill-opacity:1" />
        <path
           d="m 69.044376,59.578993 c 0.20674,0.156149 0.240175,0.181532 0.401401,0.119038 0.161575,-0.06232 0.2414,-0.09856 0.364289,-0.0056 0.12849,0.09716 0.09593,0.221619 -0.03939,0.40035 l -0.8021,1.061532 c -0.134967,0.178731 -0.245952,0.244026 -0.374442,0.147221 -0.122889,-0.09313 -0.109935,-0.179957 -0.09383,-0.352035 0.01575,-0.172254 -0.0175,-0.197462 -0.224245,-0.353786 L 65.644812,58.607267 C 65.315009,58.358164 65.25584,58.436238 64.99886,58.742059 l -0.156499,0.206739 c -0.253304,0.33523 -0.40105,0.565952 -0.320175,1.004464 0.03291,0.165427 0.103633,0.420482 -0.0061,0.565777 -0.07615,0.100482 -0.230547,0.14197 -0.33663,0.06162 -0.150722,-0.113786 -0.313523,-0.35116 -0.41523,-0.506959 -0.179781,-0.249978 -0.168402,-0.311422 0.02171,-0.562976 L 65.6814,57.002363 c 0.135143,-0.178731 0.245952,-0.244201 0.374442,-0.147046 0.123064,0.09278 0.11011,0.179606 0.09418,0.35186 -0.01628,0.172254 0.01733,0.197637 0.223895,0.353786 l 2.670459,2.01803"
           id="Fill-33"
           fill="#FFFFFF"
           style="fill:#202c44;fill-opacity:1" />
        <path
           d="m 65.905996,64.758862 c -0.114661,0.112735 -0.278688,0.205514 -0.401751,0.0807 -0.103107,-0.104857 -0.07755,-0.188884 -0.02223,-0.312122 0.09611,-0.22197 0.03729,-0.301619 -0.114836,-0.476149 -0.348008,-0.404026 -0.922013,-1.047527 -1.496542,-1.63151 -0.933042,-0.948446 -1.558863,-0.705995 -2.022933,-0.249453 -0.494354,0.486127 -0.667833,1.108447 0.245602,2.036937 0.569628,0.579256 1.139956,1.039475 1.714836,1.593698 0.122713,0.115011 0.187484,0.08088 0.366215,0.02293 0.104157,-0.03396 0.198337,-0.05794 0.286739,0.03204 0.157199,0.15965 -0.0077,0.331729 -0.132341,0.454442 l -0.434311,0.427133 c -0.124814,0.122714 -0.299344,0.284639 -0.456543,0.124989 -0.0884,-0.08998 -0.06302,-0.183807 -0.02748,-0.287439 0.06092,-0.177681 0.09611,-0.241751 -0.04604,-0.386521 -0.309496,-0.314398 -1.076936,-0.934792 -1.69558,-1.563764 -1.198249,-1.21803 -0.863194,-2.185733 0.04534,-3.079387 0.81873,-0.805252 1.862232,-1.242363 3.114048,0.03063 0.540044,0.549147 1.182319,1.331817 1.427921,1.58127 0.191335,0.194661 0.260131,0.264682 0.404376,0.181706 0.154224,-0.0828 0.228447,-0.06757 0.316499,0.02241 0.132867,0.134793 0.03711,0.307221 -0.07247,0.41523 l -0.998512,0.982232"
           id="Fill-34"
           fill="#FFFFFF"
           style="fill:#202c44;fill-opacity:1" />
        <path
           d="m 60.19221,66.673961 c -0.424858,0.454617 -0.984683,1.287877 -0.556149,1.893916 0.319475,0.451642 0.792648,0.211291 1.147134,-0.03939 0.451641,-0.319475 0.391247,-0.465295 0.185033,-0.756936 z m -1.023195,-1.446477 c -0.25873,-0.365865 -0.369365,-0.364639 -0.775492,-0.07755 -0.514486,0.363764 -0.880875,0.948972 -0.460569,1.543458 0.27081,0.383194 0.798074,0.473348 1.219431,0.329803 0.212166,-0.27011 0.437287,-0.5579 0.712123,-0.812429 z m 2.89628,1.88814 c 0.15755,0.223019 0.214267,0.303194 0.370066,0.244376 0.165427,-0.05689 0.236324,-0.02976 0.308972,0.07317 0.109059,0.154223 -0.01681,0.30337 -0.14267,0.392472 l -2.075274,1.467659 c -1.040525,0.735755 -1.660919,0.488753 -1.992647,0.01996 -0.327528,-0.463019 -0.144595,-1.089715 0.130766,-1.524901 -0.65418,0.299869 -1.433698,0.276586 -1.882714,-0.357987 -0.460744,-0.651554 -0.301094,-1.553611 0.647878,-2.22477 l 2.212341,-1.564639 c 0.125689,-0.0891 0.308446,-0.15825 0.417681,-0.0039 0.07282,0.102932 0.03413,0.181706 -0.01768,0.278337 -0.103982,0.168052 -0.05077,0.267483 0.09068,0.467571 l 1.932604,2.732604 z"
           id="Fill-35"
           fill="#FFFFFF"
           style="fill:#202c44;fill-opacity:1" />
        <path
           d="m 26.467221,70.338731 c 0.242276,-0.489453 0.840263,-0.529716 1.285777,-0.309322 0.426783,0.211116 0.73593,0.739081 0.506258,1.203501 -0.229847,0.46442 -0.827484,0.520263 -1.24814,0.312123 -0.439387,-0.217243 -0.782845,-0.723151 -0.543895,-1.206302"
           id="Fill-36"
           fill="#FFFFFF"
           style="fill:#202c44;fill-opacity:1" />
        <path
           d="m 32.432735,71.516849 c 0.105733,-0.406652 0.108709,-0.52884 -0.345383,-0.646827 -0.372866,-0.09681 -0.503107,-0.152298 -0.453742,-0.342057 0.04919,-0.189759 0.252779,-0.165952 0.409103,-0.154223 0.89418,0.06582 1.333217,-0.203589 1.658644,-0.119212 0.304945,0.0793 0.301269,0.288315 0.234223,0.545645 l -0.92744,3.571816 c -0.09365,0.359037 -0.139168,0.535317 0.265558,0.676587 0.170853,0.06617 0.403151,0.119037 0.341357,0.356411 -0.04919,0.189759 -0.217593,0.196761 -0.380219,0.154573 l -2.243151,-0.582757 c -0.183107,-0.04761 -0.355711,-0.106958 -0.297768,-0.330503 0.05462,-0.210066 0.331203,-0.16 0.490503,-0.133217 0.442538,0.07877 0.4793,-0.03466 0.583107,-0.43431 l 0.665208,-2.561926"
           id="Fill-37"
           fill="#FFFFFF"
           style="fill:#202c44;fill-opacity:1" />
        <path
           d="m 38.20884,72.675536 c 0.06057,-0.725427 -0.139693,-1.269322 -0.614092,-1.308884 -0.600087,-0.05042 -0.774267,0.68674 -0.812254,1.140306 -0.03571,0.425558 0.02328,1.147134 0.574705,1.193348 0.585908,0.04902 0.811204,-0.54337 0.851641,-1.02477 z m -1.214879,1.500219 c -0.941795,-0.07895 -1.625383,-0.726302 -1.544158,-1.696105 0.08263,-0.983633 0.941969,-1.684552 2.135142,-1.58477 1.353523,0.11361 2.041488,1.042275 1.931029,2.360962 -0.144245,1.723239 -1.582845,3.043151 -3.340919,2.89593 -0.257856,-0.02153 -0.7179,-0.06722 -0.696193,-0.325426 0.01908,-0.230197 0.312123,-0.20569 0.473348,-0.199213 1.120175,0.04464 1.788009,-0.630021 2.050066,-1.662144 -0.330854,0.176105 -0.631423,0.242276 -1.008315,0.210766 z"
           id="Fill-38"
           fill="#FFFFFF"
           style="fill:#202c44;fill-opacity:1" />
        <path
           d="m 41.234836,71.943632 c -0.320525,0.02731 -0.471948,0.0681 -0.569278,0.329278 -0.03991,0.108884 -0.08175,0.196587 -0.221269,0.20849 -0.230022,0.01943 -0.245427,-0.16175 -0.269584,-0.447965 -0.0681,-0.8021 -0.0653,-0.851641 0.353435,-0.887002 l 2.909059,-0.246477 c 0.195186,-0.01663 0.314398,-0.01978 0.325077,0.105908 0.0053,0.06267 -0.03519,0.164552 -0.09628,0.359388 -0.384771,1.177943 -0.740132,2.788796 -0.969453,4.227746 -0.07282,0.469847 -0.194136,0.529365 -0.528841,0.557724 l -0.718774,0.06074 c -0.133567,-0.0026 -0.323676,-0.0077 -0.337681,-0.175055 -0.0072,-0.08368 0.03851,-0.206914 0.107309,-0.388446 0.434311,-1.175142 1.399212,-3.470285 1.635011,-3.8414 l -1.618731,0.137067"
           id="Fill-39"
           fill="#FFFFFF"
           style="fill:#202c44;fill-opacity:1" />
        <path
           d="m 46.023983,75.650416 c -0.189585,0.04954 -0.403151,0.09068 -0.466696,-0.153173 -0.09558,-0.365864 0.239825,-1.133304 0.517286,-1.596324 0.818206,-1.385558 1.163239,-2.03256 0.997112,-2.669409 -0.102232,-0.392998 -0.441138,-0.637374 -0.840788,-0.533217 -0.338731,0.08823 -0.67291,0.472123 -0.577505,0.837812 0.04954,0.189584 0.24035,0.25558 0.287965,0.438687 0.06722,0.257331 -0.206215,0.429934 -0.41628,0.484727 -0.372692,0.09698 -0.679913,-0.08333 -0.777068,-0.455843 -0.236674,-0.907833 0.676411,-1.623457 1.543457,-1.849453 1.084289,-0.282538 1.886214,0.101707 2.085777,0.867221 0.291291,1.118075 -0.903282,2.225296 -1.523851,3.508447 l 1.023019,-0.266784 c 0.372692,-0.09698 0.553873,-0.151597 0.788097,-0.473173 0.05882,-0.08035 0.147571,-0.211991 0.255755,-0.240175 0.09505,-0.02468 0.204288,0.03361 0.230722,0.135318 0.03379,0.128665 -0.02941,0.275361 -0.0054,0.811553 0.01523,0.336105 -0.09996,0.366215 -0.391247,0.442188 l -2.730328,0.711598"
           id="Fill-40"
           fill="#FFFFFF"
           style="fill:#202c44;fill-opacity:1" />
        <path
           d="m 51.363676,71.217856 c -0.242276,-0.489453 0.08858,-0.989059 0.534092,-1.209628 0.426433,-0.211292 1.033698,-0.136893 1.263895,0.327352 0.229672,0.464245 -0.0884,0.973479 -0.508884,1.181619 -0.439037,0.217418 -1.049803,0.183808 -1.289103,-0.299343"
           id="Fill-41"
           fill="#FFFFFF"
           style="fill:#202c44;fill-opacity:1" />
      </g>
    </g>
  </g>
</svg>
