<?xml version="1.0" encoding="UTF-8"?>
<svg width="82px" height="80px" viewBox="0 0 82 80" version="1.1" xmlns="http://www.w3.org/2000/svg" xmlns:xlink="http://www.w3.org/1999/xlink">
    <title>LOGO</title>
    <defs>
        <polygon id="path-1" points="0 0.00700218818 80.8752735 0.00700218818 80.8752735 79.9894967 0 79.9894967"></polygon>
    </defs>
    <g id="Pages" stroke="none" stroke-width="1" fill="none" fill-rule="evenodd">
        <g id="Birch-5.-Private-Content" transform="translate(-49.000000, -5088.000000)">
            <g id="LOGO" transform="translate(49.000000, 5088.000000)">
                <g id="Group-3">
                    <mask id="mask-2" fill="white">
                        <use xlink:href="#path-1"></use>
                    </mask>
                    <g id="Clip-2"></g>
                    <path d="M1.71094698,39.2126039 C1.70415755,41.3241138 1.86993435,43.4202188 2.21741794,45.5026696 C2.89347921,49.5543107 4.16752735,53.4083151 6.05549234,57.0554048 C8.04078775,60.8903282 10.5848578,64.3142232 13.7006565,67.3066083 C17.0921663,70.5636761 20.9780306,73.0870897 25.2666958,74.9902845 C28.0516411,76.2261707 30.9605252,77.0734354 33.967965,77.5690153 C36.428884,77.9746171 38.899256,78.2466521 41.4021882,78.1206127 C43.2409628,78.0278337 45.0757112,77.9161488 46.8926039,77.5994748 C50.4933042,76.9717287 53.9502845,75.9016193 57.2593435,74.3350547 C61.987221,72.0966302 66.0870022,69.0380744 69.5122976,65.0837637 C71.6605689,62.6037637 73.5152735,59.9214004 74.9808315,56.9803063 C77.0701094,52.7880963 78.5032823,48.3994748 78.9127352,43.708709 C79.0790372,41.8046389 79.2021007,39.8993435 79.0252954,37.9887965 C78.937593,37.0414004 78.8570678,36.0931291 78.7497593,35.1478337 C78.5829322,33.6780744 78.1999125,32.2517287 77.8466521,30.8196061 C77.1441575,27.9718162 76.1670022,25.2390372 74.7529103,22.6503282 C72.6807877,18.8572429 70.2086652,15.3936105 67.0440263,12.4239825 C64.2508534,9.8028884 61.1586871,7.62818381 57.7452954,5.90774617 C54.4049015,4.22424508 50.8870022,3.04525164 47.2171554,2.32997812 C45.2439387,1.94538293 43.2505908,1.69382932 41.2381619,1.67387309 C39.8391247,1.66004376 38.4386871,1.69032823 37.0403501,1.73899344 C35.5693654,1.79010941 34.1209628,2.04008753 32.6762363,2.3107221 C29.254267,2.95159737 25.9751422,4.02835886 22.8623195,5.58301969 C18.505733,7.75894967 14.6492779,10.6090153 11.3773304,14.2317724 C9.76490153,16.0169803 8.27921225,17.8933917 7.04787746,19.9686652 C3.52682713,25.9031947 1.71921225,32.307221 1.71094698,39.2126039 Z M37.9378556,0.00700218818 C39.2122538,0.00700218818 40.4866521,0.00700218818 41.7610503,0.00700218818 C41.9740919,0.0218818381 42.1869584,0.0406126915 42.4001751,0.0507658643 C44.1358425,0.132866521 45.8461269,0.391247265 47.5548359,0.704595186 C51.8287965,1.48814004 55.8538293,2.97260394 59.6787746,4.9971116 C63.5254267,7.03317287 66.9104595,9.68665208 69.8744858,12.8771991 C72.7315536,15.9525602 75.1305033,19.3398687 76.9101094,23.1522101 C77.6577681,24.7543107 78.4052516,26.3565864 78.9405689,28.0462144 C79.6964551,30.4302845 80.2818381,32.8528665 80.5235886,35.3473961 C80.646302,36.6137418 80.7357549,37.8834136 80.8369365,39.15186 C80.8572429,39.4070897 80.8630197,39.6635449 80.8752735,39.9194748 C80.8752735,39.961488 80.8752735,40.0035011 80.8752735,40.0455142 C80.8637199,40.1111597 80.841663,40.1768053 80.8418381,40.2422757 C80.8533917,42.9410941 80.4882276,45.5950985 79.926477,48.2293217 C79.1182495,52.0201313 77.6523414,55.5735667 75.8984683,58.9979869 C74.1204376,62.4698468 71.7031072,65.5112473 69.0035886,68.3124726 C66.1270897,71.2971554 62.7677899,73.6509409 59.0706346,75.5026696 C54.860744,77.6110284 50.4283589,79.0503282 45.7417943,79.6362363 C44.6328228,79.7748796 43.5145733,79.8408753 42.4003501,79.93593 C42.0617943,79.964814 41.7221882,79.9789934 41.3829322,80 C41.116849,80 40.8507659,80 40.5846827,80 C40.527965,79.9837199 40.4715974,79.955186 40.4141794,79.9529103 C39.3454705,79.9107221 38.2725602,79.9143982 37.2082276,79.8210941 C35.8928665,79.7060832 34.5738293,79.571291 33.2756236,79.3379431 C30.7096718,78.876849 28.2357987,78.0675711 25.8007877,77.1513348 C23.4030635,76.2487527 21.1865208,74.9827571 19.011291,73.6434136 C16.0675711,71.8314223 13.4214442,69.654442 11.0676586,67.1250766 C8.044814,63.8771116 5.62275711,60.2195186 3.74862144,56.2051641 C2.41050328,53.3389934 1.44420131,50.3410066 0.809978118,47.2407877 C0.455142232,45.5061707 0.199562363,43.7557987 0.0778993435,41.9877462 C0.0546170678,41.6483151 0.026083151,41.3090591 0,40.9698031 C0,39.8074398 0,38.6450766 0,37.4827133 C0.0115536105,37.430547 0.0285339168,37.379081 0.0341356674,37.3262144 C0.196586433,35.7969365 0.310547046,34.2608315 0.530415755,32.7397812 C0.839212254,30.6042888 1.46153173,28.5405689 2.12621444,26.4915536 C2.71089716,24.6904158 3.54835886,23.001663 4.3887965,21.3108096 C6.29829322,17.4697593 8.8873523,14.140744 11.955186,11.1683151 C13.6933042,9.48428884 15.5695405,7.96271335 17.5964989,6.64367615 C20.7326039,4.6028884 24.067046,2.96455142 27.6518162,1.85347921 C30.9678775,0.825908096 34.3527352,0.200962801 37.8221444,0.0404376368 C37.8610066,0.0386870897 37.8993435,0.0185557987 37.9378556,0.00700218818 L37.9378556,0.00700218818 Z" id="Fill-1" fill="#FFFFFF" mask="url(#mask-2)"></path>
                </g>
                <path d="M39.2565427,12.9675274 C38.3716411,12.9493217 36.1325164,13.2120788 34.9134354,13.4322976 C32.2981182,13.9049453 29.8286214,14.7931729 27.4762363,16.0196061 C25.2469147,17.1821444 23.2084026,18.6147921 21.4219694,20.387221 C19.1000438,22.6909409 17.1644639,25.2686214 15.76,28.246302 C14.1531729,31.6532166 13.3004814,35.2206565 13.2428884,38.9815317 C13.2213567,40.3977243 13.3628009,41.8025383 13.5604376,43.2045514 C13.8517287,45.2710722 14.364814,47.276674 15.1569365,49.2071772 C16.7859956,53.1768928 19.1733917,56.6196937 22.3278775,59.5345295 C25.2428884,62.2280963 28.611291,64.1354923 32.3669147,65.3766302 C34.233698,65.993523 36.1585996,66.3506346 38.11186,66.5416193 C38.889453,66.6177681 39.6750985,66.6293217 40.4574179,66.6378393 C40.9388184,66.6424508 41.420744,66.5839825 41.9026696,66.5559737 C43.2936543,66.4747484 44.6802626,66.3446827 46.0407877,66.0344858 C51.6183807,64.7623632 56.4348359,62.1381182 60.3410066,57.9222757 C62.9629759,55.0928665 64.9171116,51.8512035 66.16,48.2006127 C67.1768928,45.2143545 67.6133042,42.1398687 67.4963676,38.9748796 C67.4307221,37.2010503 67.1880963,35.4646827 66.7772429,33.7479212 C65.8888403,30.0346608 64.2461269,26.6841138 61.9117724,23.6630197 C59.9366302,21.1068709 57.545733,19.0121663 54.8343107,17.286302 C50.3037199,14.4026258 45.3253392,13.0235449 39.2565427,12.9675274 Z M11.4482276,38.92814 C11.4762363,38.2995186 11.4953173,37.5578118 11.5448578,36.8182057 C11.6679212,34.9811816 12.0642451,33.2010503 12.5988621,31.4391247 C13.6365864,28.0183807 15.2360613,24.899256 17.4515536,22.0962801 C18.7800438,20.4154048 20.3112473,18.940919 21.9313786,17.5378556 C24.8595186,15.0021882 28.2555799,13.4042888 31.9306783,12.3259519 C33.9028446,11.747221 35.9157987,11.3748796 37.9667396,11.23186 C40.8845514,11.0284464 43.7621007,11.3094092 46.60814,11.9735667 C49.9613129,12.7560613 53.1082713,14.0306346 56.0049015,15.8977681 C57.7269147,17.0076149 59.3353173,18.268709 60.7875711,19.7164114 C64.7459081,23.6624945 67.3598249,28.3618381 68.6226696,33.8074398 C69.1403063,36.0397374 69.3885339,38.3049453 69.3095842,40.5955361 C69.1747921,44.5067834 68.3238512,48.2459519 66.6151422,51.7871335 C65.087965,54.9522976 63.1065208,57.7839825 60.5902845,60.2354486 C58.5416193,62.2314223 56.2294967,63.8697593 53.6926039,65.1879212 C52.1209628,66.0043764 50.4915536,66.6989934 48.8022757,67.2231072 C47.4291466,67.6491904 46.0362363,68.0411379 44.5958862,68.1829322 C43.001488,68.3403063 41.4065646,68.4628446 39.7988621,68.4042013 C36.492954,68.2835886 33.2775492,67.7129103 30.1922101,66.508884 C25.7405689,64.7718162 21.9567615,62.0892779 18.8516411,58.444814 C17.5964989,56.9715536 16.3915974,55.4709847 15.4371991,53.7782057 C13.910372,51.0702845 12.707046,48.24 12.0770241,45.1824945 C11.7349672,43.5217505 11.4792123,41.8510284 11.4489278,40.1519475 C11.4424508,39.7817068 11.4482276,39.411291 11.4482276,38.92814 L11.4482276,38.92814 Z" id="Fill-4" fill="#FFFFFF"></path>
                <path d="M38.921488,27.6378118 C39.1170241,27.4673085 39.3326915,27.3489716 39.3150109,27.0601313 C38.9965864,27.1406565 38.8877024,27.2971554 38.921488,27.6378118 Z M36.1137856,55.1812691 C35.8937418,54.8182057 35.6210066,54.7226258 35.2821007,54.8840263 C35.513523,55.1150985 35.8018381,55.1543107 36.1137856,55.1812691 Z M34.3354048,27.2248578 C34.2706346,26.7623632 34.2098906,26.329628 34.147046,25.8813129 C33.8998687,26.5349672 33.9208753,26.9797812 34.3354048,27.2248578 Z M41.4526039,31.5861707 C41.5978993,31.8716849 41.872035,31.8774617 42.1302407,31.9767177 C42.1319912,31.7771554 42.2193435,31.5891466 42.0267834,31.4876149 C41.8312473,31.3845077 41.6350109,31.4219694 41.4526039,31.5861707 Z M24.8157549,39.145733 C24.9640263,38.7277024 24.7397812,38.5300656 24.1780306,38.2097155 C24.1260394,38.6006127 24.3828446,38.9778556 24.8157549,39.145733 Z M47.8520788,26.8687965 C47.8475274,26.8360613 47.8429759,26.8035011 47.8384245,26.7707659 C47.2173304,26.7278775 46.5873085,26.6191685 46.0250328,26.9974617 C46.0285339,27.0245952 46.0322101,27.0517287 46.0358862,27.0788621 C46.6412254,27.0088403 47.2465646,26.9388184 47.8520788,26.8687965 Z M50.803151,26.5006565 C49.9600875,26.6028884 49.126477,26.5225383 48.3150985,26.7844201 C48.4957549,27.0498031 48.7215755,27.0011379 48.9482713,26.9335667 C49.4576805,26.7817943 49.9649891,26.6329978 50.5069584,26.7660394 C50.6765864,26.8078775 50.7611379,26.7012691 50.803151,26.5006565 Z M51.6931291,22.1381182 C51.7003063,22.1904595 51.7020569,22.2163676 51.7073085,22.2412254 C51.7976368,22.6583807 51.8515536,23.0757112 51.7803063,23.5045952 C51.7635011,23.6057768 51.80814,23.7255142 51.8499781,23.8259956 C51.913523,23.9777681 52.0362363,23.9884464 52.1372429,23.8541794 C52.1808315,23.7960613 52.2249453,23.7134354 52.2184683,23.6467396 C52.1885339,23.3393435 52.1571991,23.0300219 52.0941794,22.7280525 C52.0456893,22.4957549 51.9154486,22.2970678 51.6931291,22.1381182 Z M41.5229759,60.8582932 C41.4702845,60.4036761 41.4242451,59.9597374 41.3622757,59.5180744 C41.3522976,59.4452516 41.2728228,59.3822319 41.2210066,59.3083589 C41.0470022,59.4622319 40.9382932,59.5875711 41.0245952,59.804814 C41.0601313,59.8940919 41.0259956,60.0106783 41.0258206,60.1150109 C41.0258206,60.2610066 41.0121663,60.4091028 41.0322976,60.5522976 C41.0800875,60.8910284 41.1242013,60.915186 41.5229759,60.8582932 Z M37.529453,55.4767615 C37.8312473,54.9442451 37.7211379,54.6583807 37.1721663,54.4773742 C37.145733,54.4686214 37.1175492,54.4642451 37.0919912,54.4537418 C36.9459956,54.393698 36.8103282,54.3991247 36.7287527,54.5500219 C36.6499781,54.6963676 36.7142232,54.8253829 36.8294092,54.9209628 C37.0548796,55.1080963 37.2877024,55.2857768 37.529453,55.4767615 Z M39.0293217,53.9896716 C38.8220569,53.9894967 38.7418818,54.1314661 38.7875711,54.3607877 C38.8449891,54.6482276 39.0606565,54.8189059 39.2616193,55.0013129 C39.3829322,55.1112473 39.5226258,55.1273523 39.6393873,55.0287965 C39.7619256,54.9255142 39.8310722,54.7667396 39.7102845,54.6237199 C39.5364551,54.4182057 39.3400438,54.2314223 39.1480088,54.0421882 C39.1121225,54.0070022 39.0499781,53.9982495 39.0293217,53.9896716 Z M38.1911597,53.7946608 C38.1724289,53.8009628 38.153523,53.8072648 38.1347921,53.8135667 C38.1234136,54.0008753 38.121663,54.1892341 38.099081,54.3749672 C38.0504158,54.7746171 38.2312473,55.1312035 38.5782057,55.3181619 C38.7058206,55.3867834 38.8007002,55.3990372 38.9011816,55.2668709 C38.9964114,55.1413567 39.0203939,55.0359737 38.9046827,54.9165864 C38.8365864,54.8463895 38.7753173,54.7693654 38.7052954,54.7010941 C38.5428446,54.5430197 38.4136543,54.3728665 38.3667396,54.1389934 C38.342407,54.0173304 38.2519037,53.9089716 38.1911597,53.7946608 Z M35.9716411,26.3413567 C36.1764551,26.3620131 36.2056893,26.2310722 36.2415755,26.11186 C36.3478337,25.7587746 36.4502407,25.4044639 36.556849,25.0515536 C36.633698,24.7978993 36.5932604,24.5754048 36.4099781,24.3396061 C36.0022757,24.9531729 35.9375055,25.6269584 35.9716411,26.3413567 Z M51.9003939,24.8491904 C51.8664333,24.8451641 51.8324726,24.8409628 51.798337,24.8367615 C51.7269147,25.0202188 51.6574179,25.2043764 51.5835449,25.3869584 C51.4772867,25.6493654 51.3685777,25.9107221 51.2598687,26.1720788 C51.2467396,26.2039387 51.2103282,26.2357987 51.2143545,26.2636324 C51.2266083,26.3529103 51.2364114,26.4505908 51.2817505,26.5230635 C51.2987309,26.5498468 51.4224945,26.5360175 51.4800875,26.5066083 C51.8284464,26.3289278 52.016105,26.0360613 52.0038512,25.6469147 C51.9956236,25.3803063 51.9366302,25.1150985 51.9003939,24.8491904 Z M49.8856893,24.6729103 C49.8622319,24.6869147 49.8447265,24.691116 49.8408753,24.700744 C49.6206565,25.2540919 49.3300656,25.7577243 48.8484902,26.1302407 C48.8239825,26.1491466 48.8015755,26.2114661 48.8136543,26.2284464 C48.8365864,26.2606565 48.8856018,26.2932166 48.9232385,26.2926977 C49.0482276,26.2909409 49.1732166,26.268709 49.2985558,26.2652079 C49.5781182,26.2575055 49.7808315,26.1454705 49.8737856,25.868709 C49.9049453,25.7762801 49.9494092,25.6880525 49.9765427,25.5945733 C50.0693217,25.2764989 50.060744,24.9677024 49.8856893,24.6729103 Z M23.0025383,33.5161488 C22.4131291,34.2723851 22.268884,35.1567615 22.2543545,36.0782495 C22.7868709,35.3076586 23.0221444,34.4498906 23.0025383,33.5161488 Z M36.5972867,26.1398687 C36.5657768,26.1381182 36.534267,26.1365427 36.5027571,26.1347921 C36.4372867,26.2841138 36.3352298,26.4281838 36.3133479,26.5834573 C36.2548796,26.9969365 36.3485339,27.3943107 36.5860832,27.7356674 C36.6678337,27.8533042 36.8386871,27.9126477 36.9766302,27.9842451 C37.0070897,28 37.0998687,27.9663895 37.1121225,27.9352298 C37.1754923,27.7734792 37.2189059,27.6182057 37.1115974,27.4396499 C36.9845077,27.2283589 36.8912035,26.9948359 36.8003501,26.7641138 C36.7203501,26.5608753 36.6639825,26.3483589 36.5972867,26.1398687 Z M39.1403063,61.7426696 C39.2327352,61.3862582 39.2050766,60.9559737 39.068709,60.5316411 C38.9221882,60.0763239 38.5621007,59.8543545 38.0281838,59.9266521 C38.1158862,60.0315098 38.1909847,60.1137856 38.2575055,60.2027133 C38.3509847,60.3273523 38.4651204,60.4463895 38.5193873,60.5873085 C38.563326,60.7017943 38.5459956,60.8465646 38.531291,60.9750547 C38.4852516,61.3782057 38.56,61.5171991 38.9319912,61.6691466 C38.9960613,61.6954048 39.062407,61.7153611 39.1403063,61.7426696 Z M33.9481838,48.1003063 C33.9571116,48.0701969 33.9663895,48.0397374 33.9756674,48.0092779 C33.9079212,47.9282276 33.856105,47.8086652 33.769628,47.7726039 C33.4361488,47.6332604 33.0995186,47.4851641 32.7492341,47.4049891 C31.8961926,47.2098031 31.0613567,46.9755799 30.2795624,46.5703282 C30.1106346,46.4828009 29.9091466,46.4556674 29.7206127,46.4099781 C29.6854267,46.4014004 29.6124289,46.428884 29.6043764,46.454442 C29.5910722,46.4968053 29.5992998,46.5699781 29.628884,46.5972867 C29.7251641,46.6869147 29.8259956,46.7805689 29.9420569,46.838337 C30.2540044,46.9937856 30.5656018,47.158337 30.8938293,47.2708972 C31.7831072,47.5758425 32.6792123,47.8610066 33.5772429,48.1391685 C33.686477,48.172954 33.823895,48.1155361 33.9481838,48.1003063 Z M44.169628,51.0870897 C43.747221,51.1049453 43.686477,51.1138731 43.7286652,51.5310284 C43.776105,51.9987746 44.0521663,52.2890153 44.46407,52.4659956 C45.180744,52.774267 45.8995186,53.0776368 46.6196937,53.3776805 C46.7205252,53.4195186 46.8330853,53.4373742 46.9421444,53.4534792 C47.0681838,53.4723851 47.1170241,53.4056893 47.0585558,53.2952298 C46.9972867,53.1795186 46.9328665,53.0540044 46.8374617,52.969628 C46.2513786,52.4519912 45.6623195,51.9375055 45.0615317,51.4373742 C44.8007002,51.2201313 44.489453,51.0935667 44.169628,51.0870897 Z M33.8261707,30.828884 C34.1778556,31.2724726 34.6501532,31.5138731 35.1425821,31.7192123 C35.887965,32.0301094 36.6711597,32.1487965 37.475186,32.1433698 C37.7011816,32.1417943 37.8870897,32.0164551 37.8996937,31.8447265 C37.9147484,31.6386871 37.7768053,31.5278775 37.6050766,31.4585558 C37.5222757,31.4251204 37.4312473,31.4100656 37.3428446,31.3915098 C37.1588621,31.3528228 36.9741794,31.3162363 36.7891466,31.2812254 C36.2800875,31.1847702 35.8781619,30.8731729 35.4443764,30.6221444 C34.8098031,30.2550547 34.3761926,30.3156236 33.8261707,30.828884 Z M42.2056893,29.7300656 C42.1955361,30.0066521 42.3205252,30.217593 42.4829759,30.4134792 C42.6163676,30.5748796 42.7522101,30.7345295 42.8850766,30.8964551 C42.9645514,30.9929103 42.9703282,31.0828884 42.8903282,31.1940481 C42.7683151,31.3636761 42.6596061,31.5439825 42.5591247,31.7272648 C42.4647702,31.8996937 42.4880525,32.0693217 42.6398249,32.2013129 C42.7924726,32.3340044 42.9473961,32.467221 43.1157987,32.5782057 C43.3619256,32.7408315 43.7379431,32.6452516 43.8968928,32.4085777 C43.9336543,32.3537856 44.0091028,32.3161488 44.0745733,32.291116 C44.2683589,32.2170678 44.4665208,32.1550985 44.6617068,32.0850766 C44.8642451,32.0124289 45.0610066,31.9170241 45.2691466,31.8680088 C45.4009628,31.836849 45.5184245,31.7897593 45.5189514,31.6647702 C45.5192998,31.5543107 45.4648578,31.4114661 45.3839825,31.3416193 C45.2850766,31.2561926 45.1373304,31.2164551 45.0041138,31.1847702 C44.726477,31.1187746 44.4411379,31.0835886 44.166477,31.0086652 C44.0794748,30.9850328 43.9782932,30.8885777 43.9483589,30.8028009 C43.8575055,30.5423195 43.6987309,30.3588621 43.4315974,30.3042451 C43.1247265,30.2414004 42.8724726,30.1027571 42.6627571,29.8727352 C42.5442451,29.7430197 42.3964989,29.6775492 42.2056893,29.7300656 Z M25.5884464,41.3689278 C25.6750985,41.1061707 25.7542232,40.854442 25.8408753,40.6053392 C25.9828446,40.1974617 25.9091466,39.9157987 25.5802188,39.6360613 C25.3883589,39.4727352 25.1777681,39.4886652 25.0764114,39.7153611 C24.8553173,40.2104158 24.620744,40.7087965 24.6214426,41.2679212 C24.6233698,42.6338731 24.8614442,43.9494092 25.5336543,45.155186 C25.6757987,45.4100656 25.8877899,45.6364114 26.1046827,45.8354486 C26.2765864,45.9929978 26.483151,45.9312035 26.5447702,45.7328665 C26.6364989,45.4364989 26.6482276,45.1338293 26.4232823,44.8836761 C26.2557549,44.697593 26.1670022,44.4931291 26.1589497,44.243151 C26.1508972,43.9952735 26.1705033,43.7328665 26.0955799,43.503895 C25.9835449,43.1606127 25.9319037,42.8283589 26.0148796,42.4778993 C26.1230635,42.0225821 26.0105033,41.6491904 25.5884464,41.3689278 Z M37.3614004,50.7385558 C37.1154486,50.9813567 37.0671335,51.5802188 37.0986433,52.0752735 C37.1317287,52.5967615 37.4294967,52.9064333 37.9467834,52.8782495 C38.4082276,52.8533917 38.7403063,53.0315974 39.0140919,53.3734792 C39.2290591,53.6420131 39.5056455,53.8191685 39.8221444,53.9515098 C40.6643326,54.3033698 41.5010941,54.6680088 42.3406565,55.0258206 C42.4171554,55.0582057 42.4971554,55.0888403 42.5783807,55.1024945 C42.7828446,55.1369803 42.9267396,54.9873085 42.8397374,54.8040263 C42.7364551,54.5867834 42.6244201,54.342407 42.4449891,54.1986871 C41.8790372,53.7461707 41.3025821,53.2989059 40.6883151,52.9172867 C39.8347484,52.387046 38.943895,51.9187746 38.1643764,51.2724726 C37.9198249,51.0697593 37.6334354,50.9172867 37.3614004,50.7385558 Z M45.0119912,36.9764551 C45.08814,36.8572429 45.1439825,36.7639387 45.2057768,36.6746608 C45.4702845,36.2939168 45.4786871,35.8412254 45.2281838,35.4548796 C45.1091466,35.2710722 44.9424945,35.1607877 44.7235011,35.1691904 C44.5155361,35.1772429 44.3089716,35.2241575 44.1008315,35.2327352 C43.9812691,35.2376368 43.8601313,35.2001751 43.6884026,35.1740919 C43.9669147,34.9043326 44.3480088,34.8626696 44.4602188,34.4971554 C44.3954486,34.4801751 44.3564114,34.4652954 44.3159737,34.4600438 C43.8744858,34.4015755 43.4319475,34.3501094 42.9913348,34.2856893 C42.7229759,34.246477 42.4586433,34.179256 42.1901094,34.1417943 C42.0427133,34.1209628 41.8732604,34.1353173 41.8172429,34.3030197 C41.731291,34.5605252 41.6792998,34.8222319 41.7549234,35.1030197 C41.9418818,35.7957112 42.2608315,36.4203063 42.7058206,36.9764551 C43.10407,37.4739606 43.5079212,37.9637637 43.7545733,38.5608753 C43.8266958,38.7354048 43.9709409,38.7910722 44.16,38.7963239 C44.5003063,38.8059519 44.8400875,38.8395624 45.1800438,38.8673961 C45.2964551,38.876849 45.4116411,38.8987309 45.5312035,38.9153611 C45.6898031,38.5031072 45.612779,38.1076586 45.5523851,37.705733 C45.5016193,37.3668271 45.4223195,37.07186 45.0119912,36.9764551 Z M25.9670897,38.2998687 C26.2485777,38.1666521 26.5230635,38.0712473 26.7602626,37.9185996 C27.7157112,37.3043326 28.7754923,36.998337 29.8807877,36.8148796 C30.5852079,36.6979431 31.2892779,36.6034136 32.0082276,36.6322976 C32.9234136,36.6692341 33.76,36.9489716 34.5650766,37.3671772 C35.2651204,37.7309409 35.9597374,38.1179869 36.6926915,38.4019256 C37.3393435,38.6522538 38.0336105,38.7837199 38.7114223,38.9484464 C39.0041138,39.0195186 39.0935667,38.9452954 39.1943982,38.6576805 C39.3827571,38.1213129 39.433698,37.5700656 39.4058643,37.0039387 C39.3437199,35.7326915 39.2917287,34.4605689 39.2446389,33.1884464 C39.2397374,33.0589059 39.1765427,33.0235449 39.0809628,32.9873085 C38.5701532,32.7933479 38.041488,32.7198249 37.4963676,32.7312035 C36.1932604,32.7581619 35.0011379,32.4364114 33.9975492,31.5684902 C33.8436761,31.4352735 33.7053829,31.2610941 33.6187309,31.0779869 C33.446302,30.7131729 33.5609628,30.3973742 33.9380306,30.2573304 C34.2809628,30.1300656 34.6470022,30.0535667 35.0090153,29.9907221 C35.7540481,29.8613567 36.505733,29.7571991 37.2635449,29.8392998 C37.6997812,29.8867396 38.1309409,29.9826696 38.5645514,30.0561926 C38.7917724,30.0945295 39.0189934,30.1335667 39.2465646,30.1684026 C39.4925164,30.2062144 39.6430635,30.0708972 39.753523,29.8748359 C39.8650328,29.6764989 39.8471772,29.4886652 39.7029322,29.3097593 C39.4482276,28.9939606 39.0886652,28.91186 38.7152735,28.8708972 C38.2779869,28.8229322 37.8485777,28.8868271 37.4312473,29.0146171 C36.5276149,29.2913786 35.6469147,29.18407 34.7777681,28.8715974 C34.4581182,28.7564114 34.2007877,28.5431947 34.0232823,28.2599562 C33.6675711,27.6915536 33.2614442,27.1205252 33.2540919,26.4260832 C33.2421882,25.3008315 33.4876149,24.2315974 34.1885339,23.3108096 C34.2902407,23.1772429 34.3893217,23.0363239 34.5150109,22.9283151 C34.6105908,22.8462144 34.7817943,22.7348796 34.8567177,22.7702407 C35.0098906,22.8420131 35.0615317,23.0212691 35.0105908,23.2057768 C34.9417943,23.4550547 34.8659956,23.7031072 34.8176805,23.9564114 C34.7985996,24.0558425 34.8462144,24.1682276 34.8633698,24.2744858 C34.8892779,24.2725602 34.9150109,24.2706346 34.940744,24.268709 C34.9860832,24.0343107 35.0212691,23.7972867 35.0799125,23.5662144 C35.1445077,23.3116849 35.3136105,23.1460832 35.6036761,23.0557549 C35.5684902,23.4779869 35.5347046,23.8799125 35.5012691,24.281488 C35.5291028,24.2867396 35.5569365,24.2919912 35.5849453,24.2970678 C35.6565427,24.0910284 35.7283151,23.884814 35.7997374,23.6787746 C35.9129978,23.3524726 36.0315098,23.0247702 36.3357549,22.8248578 C36.4507659,22.7494092 36.6662582,22.6450766 36.7156236,22.6891904 C36.8267834,22.7879212 36.9046827,22.9675274 36.918337,23.1212254 C36.9361926,23.3172867 36.8771991,23.5203501 36.8427133,23.7871335 C37.0226696,23.5217505 37.1747921,23.3097593 37.3130853,23.0891904 C37.4067396,22.9398687 37.5371554,22.8533917 37.6975055,22.912035 C37.8625821,22.9724289 37.8641575,23.1333042 37.8284464,23.2882276 C37.80814,23.376105 37.7936105,23.4652079 37.7705033,23.5844201 C37.8886652,23.4788621 37.9795186,23.3841575 38.0835011,23.3074836 C38.3373304,23.1203501 38.4757987,23.1658643 38.5878337,23.4615317 C38.6069147,23.5124726 38.6291466,23.5621882 38.6547046,23.6245077 C38.7644639,23.5718162 38.8633698,23.5245514 38.9803063,23.4683589 C39.0398249,23.5511597 39.0996937,23.6343107 39.177593,23.7423195 C38.8012254,24.028709 38.4302845,24.3107221 38.0595186,24.5932604 C37.6999562,24.867221 37.404814,25.1886214 37.3304158,25.6553173 C37.2584683,26.1066083 37.3090591,26.5556236 37.4788621,26.9731291 C37.545558,27.1375055 37.734267,27.2567177 37.8806127,27.3806565 C37.9087965,27.4044639 38.012779,27.372779 38.0581182,27.3368928 C38.3655142,27.0937418 38.652954,26.8232823 38.9731291,26.5992123 C39.3493217,26.33593 39.7431947,26.0941794 40.1466958,25.8750109 C40.4052516,25.7346171 40.5775055,25.7699781 40.8201313,25.9217505 C40.6515536,26.1783807 40.4824508,26.4357112 40.313523,26.6930416 C40.3284026,26.7063457 40.3432823,26.7196499 40.3581619,26.732954 C40.5493217,26.579256 40.7399562,26.4252079 40.9314661,26.272035 C41.1243764,26.1179869 41.3213129,25.9613129 41.5856455,25.9830197 C41.6794748,25.9907221 41.8133917,26.0323851 41.8473523,26.0997812 C41.8813129,26.1673523 41.8385996,26.3042451 41.7850328,26.3788184 C41.6715974,26.5370678 41.5210503,26.6683589 41.4002626,26.8220569 C41.0191685,27.3064333 40.9902845,27.8482276 41.3116849,28.3191247 C41.4991685,28.5941357 41.7074836,28.6701094 42.0364114,28.6039387 C42.3305033,28.5449453 42.6312473,28.5167615 42.9211379,28.4432385 C43.0753611,28.4042013 43.241488,28.3270022 43.3526477,28.2168928 C43.7769803,27.7969365 43.8571554,27.2504158 43.8454267,26.6860394 C43.8385996,26.364814 43.7831072,26.0439387 43.7862582,25.7234136 C43.7880088,25.5341794 43.8471772,25.340744 43.9096718,25.1593873 C43.9326039,25.0926915 44.0423632,25.0123414 44.1074836,25.0167177 C44.1687527,25.020744 44.2526039,25.1182495 44.2760613,25.1908972 C44.3627133,25.4606565 44.4285339,25.7368928 44.5022319,26.0108534 C44.534442,26.0112035 44.5670022,26.0117287 44.5992123,26.0120788 C44.6280963,25.8800875 44.665558,25.7491466 44.6827133,25.6157549 C44.6958425,25.5128228 44.6622319,25.4009628 44.6886652,25.3039825 C44.7110722,25.2222319 44.7803939,25.1091466 44.8469147,25.0949672 C44.9265646,25.0781619 45.0589059,25.1256018 45.1096718,25.1908972 C45.2938293,25.4279212 45.4562801,25.6822757 45.6215317,25.9334792 C45.8277462,26.2468271 46.1109847,26.3704158 46.4835011,26.3217505 C46.8019256,26.2800875 47.1291028,26.2870897 47.4422757,26.2233698 C48.1099344,26.0873523 48.6128665,25.7094092 48.9246389,25.0968928 C49.1543107,24.6459519 49.1177243,24.2042888 48.7877462,23.8245952 C48.5274398,23.5249015 48.2217943,23.2645952 47.9347046,22.9883589 C47.7074836,22.7698906 47.4569803,22.5629759 47.3808315,22.2412254 C47.3500219,22.1108096 47.3414442,21.9273523 47.4114661,21.8356236 C47.4695842,21.7596499 47.6621444,21.7500219 47.7871335,21.7675274 C48.4278337,21.8564551 48.8484902,22.2954923 49.2680963,22.7313786 C49.4263457,22.8955799 49.5854705,23.0589059 49.7808315,23.2603939 C49.798512,23.0753611 49.814267,22.9526477 49.8205689,22.8294092 C49.8275711,22.6925164 49.8883151,22.6006127 50.0243326,22.5748796 C50.1738293,22.5465208 50.316674,22.5722538 50.3718162,22.7326039 C50.4467396,22.9496718 50.4996061,23.1740919 50.6072648,23.411116 C50.6513786,23.0970678 50.6954923,22.7830197 50.7415317,22.4535667 C50.8966302,22.4980306 51.0219694,22.5340919 51.1558862,22.5724289 C51.116674,21.7223632 50.6508534,21.1628884 49.9446827,20.7788184 C50.025733,20.611291 50.1339168,20.6154923 50.2443764,20.6576805 C51.9051204,21.292779 53.0221444,22.4071772 53.3305908,24.2109409 C53.4555799,24.9405689 53.2395624,25.6087527 52.8680963,26.2326477 C52.8108534,26.3285777 52.7385558,26.4157549 52.6821882,26.5122101 C52.1316411,27.4568053 51.2763239,27.79186 50.2321225,27.7099344 C49.7104595,27.6691466 49.1928228,27.5756674 48.6732604,27.5073961 C48.569453,27.4937418 48.4645952,27.478337 48.3604376,27.478337 C47.9548359,27.4788621 47.6947046,27.6968053 47.6934792,28.1003063 C47.6910284,28.9020569 47.4100656,29.5854705 46.9048578,30.1941357 C46.7096718,30.4294092 46.7117724,30.716849 46.7760175,30.9939606 C46.7950985,31.0767615 46.9059081,31.1569365 46.9934354,31.2017505 C47.2171554,31.3162363 47.4534792,31.4055142 47.6807002,31.5131729 C48.1817068,31.750547 48.499081,32.1146608 48.4835011,32.7030197 C48.4759737,32.985558 48.348709,33.2120788 48.1601751,33.4105908 C47.5837199,34.0180306 46.8624945,34.1650766 46.0647702,34.0679212 C45.6040263,34.0117287 45.3529978,34.1337418 45.1343545,34.5398687 C45.1033698,34.5972867 45.1037199,34.7093217 45.1401313,34.7593873 C46.2049891,36.2242451 46.5892341,37.9180744 46.8043764,39.6696718 C46.8743982,40.2389497 46.9347921,40.809453 47.0153173,41.3771554 C47.0953173,41.942407 47.0021882,42.4948796 46.9115098,43.0457768 C46.819256,43.606477 46.8514661,44.1316411 47.1049453,44.6571554 C47.5630635,45.6068271 47.5301532,46.6091904 47.3293654,47.6155799 C47.270547,47.9100219 47.2028009,48.2035886 47.1221007,48.492779 C47.0459519,48.7655142 47.0597812,49.0256455 47.2169803,49.2584683 C47.6427133,49.8898906 48.0598687,50.5286652 48.5172867,51.1369803 C48.9246389,51.6787746 49.3682276,52.195186 49.8196937,52.7014442 C50.3793435,53.3290153 50.4635449,54.0084026 50.1211379,54.7593873 C50.0777243,54.8546171 50.0334354,54.9498468 49.996674,55.0477024 C49.8632823,55.4034136 49.632035,55.5621882 49.2656455,55.4792123 C48.8372867,55.382407 48.4206565,55.2360613 47.9963239,55.1205252 C47.5851204,55.0083151 47.1721663,54.9013567 46.7567615,54.8061269 C46.6195186,54.7747921 46.4724726,54.7875711 46.2905908,54.7781182 C46.3994748,55.0674836 46.4847265,55.3179869 46.5873085,55.5613129 C46.7214004,55.8795624 46.7460832,56.1867834 46.5993873,56.5134354 C46.5116849,56.7086214 46.4780744,56.927965 46.4180306,57.136105 C46.3140481,57.4967177 46.1584245,57.6169803 45.7797812,57.6056018 C45.1565864,57.5868709 44.5803063,57.3677024 44.0434136,57.0893654 C42.9843326,56.5403939 41.8564551,56.2909409 40.6842888,56.1860832 C40.2294967,56.1454705 39.8119912,56.0001751 39.4275711,55.753523 C39.3656018,55.7139606 39.2903282,55.6777243 39.219081,55.6731729 C39.1024945,55.6656455 39.0146171,55.7358425 39.0666083,55.8552298 C39.1317287,56.0056018 39.209453,56.1628009 39.3221882,56.2772867 C39.7290153,56.691291 40.1670022,57.0750109 40.5668271,57.4951422 C41.1385558,58.09593 41.657593,58.7406565 41.9079212,59.5511597 C42.0933042,60.1510722 42.2587309,60.7574617 42.4232823,61.3636761 C42.4381619,61.4184683 42.4,61.5131729 42.3544858,61.5544858 C42.0635449,61.8198687 41.7188621,61.9124726 41.3444201,61.7829322 C41.1289278,61.7083589 40.9200875,61.5996499 40.7306783,61.4729103 C40.6380744,61.4109409 40.5608753,61.2792998 40.5384683,61.1669147 C40.4798249,60.8729978 40.4631947,60.5710284 40.4148796,60.2746608 C40.3702407,60.0007002 40.3376805,59.7179869 40.2396499,59.4620569 C40.1783807,59.3015317 40.0299344,59.1410066 39.878512,59.0550547 C39.5459081,58.8661707 39.3031072,58.6196937 39.1623632,58.2653829 C38.9922101,57.836849 38.6753611,57.5194748 38.3471335,57.2124289 C37.8666083,56.7632385 37.3853829,56.3147484 36.9039825,55.8669584 C36.7373304,55.7116849 36.5587746,55.5837199 36.3142232,55.5858206 C36.1978118,55.5866958 36.1251641,55.638512 36.1582495,55.7463457 C36.2076149,55.9087965 36.2499781,56.0997812 36.3621882,56.2118162 C36.8560175,56.7054705 37.3531729,57.1998249 37.8888403,57.6460394 C38.3994748,58.0712473 38.7411816,58.5811816 38.915186,59.2147046 C39.0216193,59.6021007 39.1919475,59.9557112 39.4244201,60.2877899 C39.7521225,60.7558862 39.9415317,61.2782495 39.9184245,61.8615317 C39.9033698,62.2410503 39.750547,62.3849453 39.3747046,62.4052516 C38.9391685,62.428709 38.5480963,62.2886652 38.1692779,62.1006565 C37.9844201,62.0091028 37.8830635,61.8478775 37.8914661,61.641663 C37.9228009,60.8680963 37.6091028,60.2086652 37.1989497,59.5898468 C37.0547046,59.3719037 36.8360613,59.2040263 36.6578556,59.0074398 C36.5936105,58.9363676 36.5244639,58.8547921 36.4982057,58.7660394 C36.3474836,58.2583807 36.0404376,57.8510284 35.660744,57.50407 C34.6793873,56.6076149 33.6910284,55.718512 32.6898906,54.8442888 C32.3611379,54.5573742 32.0857768,54.252954 31.9348796,53.8371991 C31.7323414,53.2794748 31.4967177,52.7334792 31.3043326,52.1726039 C31.072035,51.494267 30.6841138,50.9213129 30.1850328,50.4203063 C29.4986433,49.7314661 28.7961488,49.0582057 28.1085339,48.3702407 C27.356849,47.6182057 26.6027133,46.8679212 25.8708096,46.0968053 C25.0053392,45.1851204 24.5314661,44.0849015 24.3641138,42.8413129 C24.2575055,42.0505908 24.3101969,41.263895 24.3697155,40.4757987 C24.3875711,40.2373742 24.3235011,40.0309847 24.1591247,39.8608315 C23.9749672,39.6700219 23.7944858,39.4737856 23.5929978,39.3025821 C22.918337,38.7289278 22.4229322,38.0211816 22.0651204,37.2220569 C21.7719037,36.5673523 21.8470022,35.8828884 22.003151,35.2040263 C22.1708534,34.4749234 22.4441138,33.7902845 22.8596937,33.1660394 C23.0578556,32.8682713 23.1940481,32.8759737 23.3680525,33.1928228 C23.4284464,33.3029322 23.4823632,33.4170678 23.5312035,33.532779 C23.6836761,33.8930416 23.932954,34.1624508 24.2146171,34.4388621 C25.0380744,35.2472648 25.7804814,36.1262144 25.9030197,37.3496718 C25.9333042,37.6540919 25.9446827,37.9604376 25.9670897,38.2998687 L25.9670897,38.2998687 Z" id="Fill-5" fill="#FFFFFF"></path>
                <path d="M22.6013129,66.1316411 C22.8603939,65.7659519 22.8225821,65.6619694 22.4166302,65.3747046 C21.9023195,65.0105908 21.2285339,64.8595186 20.8077024,65.4538293 C20.5365427,65.836674 20.6266958,66.3637637 20.902407,66.713523 C21.2278337,66.8234573 21.5740919,66.9400438 21.9052954,67.1147484 L22.6013129,66.1316411 Z M21.5777681,67.5774179 C21.0076149,67.3283151 20.0355361,67.0776368 19.6066521,67.6835011 C19.2868271,68.1347921 19.6710722,68.5010066 20.0253829,68.752035 C20.476849,69.0715098 20.5944858,68.966302 20.8007002,68.6748359 L21.5777681,67.5774179 Z M21.7839825,69.491116 C21.6264333,69.7139606 21.5698906,69.7939606 21.676849,69.9214004 C21.785558,70.0584683 21.7834573,70.134267 21.7108096,70.2370241 C21.6015755,70.3912473 21.4188184,70.3221007 21.2933042,70.2329978 L19.2185558,68.7642888 C18.1787309,68.0278337 18.2051641,67.3603501 18.5370678,66.8917287 C18.8647702,66.428884 19.5164989,66.3928228 20.0183807,66.5080088 C19.5180744,65.9907221 19.2807002,65.2477899 19.7298906,64.6133917 C20.1911597,63.9620131 21.0946171,63.8123414 22.0434136,64.4840263 L24.2548796,66.0500656 C24.3803939,66.1389934 24.5066083,66.28814 24.3973742,66.4425383 C24.3245514,66.5454705 24.2371991,66.5351422 24.1291904,66.518512 C23.93593,66.4761488 23.8599562,66.5596499 23.7181619,66.7595624 L21.7839825,69.491116 L21.7839825,69.491116 Z" id="Fill-6" fill="#FFFFFF"></path>
                <path d="M17.414442,66.2032385 C17.232035,66.406477 17.1665646,66.4794748 17.2581182,66.6182932 C17.350372,66.7669147 17.3396937,66.8420131 17.2553173,66.9356674 C17.1289278,67.0764114 16.9554486,66.9866083 16.8407877,66.8835011 L15.8512035,65.9943982 C15.7365427,65.8914661 15.6285339,65.7288403 15.7549234,65.5880963 C15.8391247,65.494267 15.9247265,65.5143982 15.9901969,65.5357549 C16.2266958,65.5975492 16.3026696,65.5338293 16.4665208,65.3515974 L18.7031947,62.8614442 C18.8483151,62.7000438 18.9232385,62.6165427 18.8652954,62.4610941 C18.8075274,62.3054705 18.7782932,62.2226696 18.8623195,62.1288403 C18.988709,61.9882713 19.1620131,62.0780744 19.2764989,62.1811816 L20.2664333,63.0702845 C20.380919,63.1732166 20.4889278,63.3360175 20.3625383,63.4765864 C20.278512,63.5704158 20.1932604,63.5501094 20.0873523,63.5210503 C19.9003939,63.4568053 19.8149672,63.5308534 19.6514661,63.7130853 L17.414442,66.2032385" id="Fill-7" fill="#FFFFFF"></path>
                <path d="M15.7573742,62.4355361 C15.3115098,61.9511597 14.4682713,61.3876586 13.8541794,61.9298031 C13.3972867,62.332954 13.5142232,62.8463895 13.8802626,63.2610941 C14.2646827,63.6968053 14.4553173,63.5847702 14.7443326,63.3297155 L15.7573742,62.4355361 Z M17.0916411,61.2486652 C17.254267,61.1047702 17.3384683,61.0308972 17.2987309,60.8696718 C17.2591685,60.7084464 17.2397374,60.6228446 17.334267,60.5393435 C17.4760613,60.4141794 17.6379869,60.5235886 17.7400438,60.6391247 L18.6203939,61.6367615 C18.7222757,61.7521225 18.8106783,61.926302 18.668884,62.0514661 C18.5743545,62.1347921 18.4919037,62.1048578 18.390372,62.063895 C18.2119912,61.9782932 18.1186871,62.0420131 17.9348796,62.2041138 L15.4252954,64.419081 C15.2206565,64.5997374 15.1471335,64.6646827 15.2222319,64.8133042 C15.2968053,64.9717287 15.2775492,65.0449015 15.1828446,65.1284026 C15.0408753,65.2535667 14.8791247,65.1441575 14.7770678,65.0287965 L13.1322538,63.164814 C12.8817505,62.8814004 12.6004376,62.5414442 12.5046827,62.1682276 C12.3921225,61.7444201 12.5146608,61.2906783 12.8456893,60.9986871 C13.3389934,60.563151 14.0035011,60.6492779 14.5684026,60.8978556 C14.6347484,60.2321225 14.9010066,59.6238074 15.2052516,59.0373742 C15.3025821,58.8301094 15.353523,58.7291028 15.3031072,58.5025821 C15.2849015,58.3973742 15.2551422,58.3210503 15.3494967,58.2377243 C15.491116,58.1125602 15.6546171,58.2765864 15.7426696,58.3763676 L16.6506783,59.4053392 C16.7621882,59.5313786 16.9340919,59.7157112 16.7557112,59.8732604 C16.5979869,60.0122538 16.4147046,59.7726039 16.2678337,59.9023195 C15.9998249,60.1386433 15.6644201,61.219256 15.6141794,61.6278337 C15.7522976,61.7207877 15.9408315,61.8813129 16.1571991,62.073523 L17.0916411,61.2486652 L17.0916411,61.2486652 Z" id="Fill-8" fill="#FFFFFF"></path>
                <path d="M9.19369803,56.5531729 C9.28402626,56.4467396 9.6819256,56.1719037 9.81234136,56.0898031 C9.95448578,56.0003501 10.1067834,56.0453392 10.2000875,56.1934354 C10.3003939,56.3534354 10.2009628,56.5237637 10.0801751,56.6739606 C9.82266958,57.0011379 9.63588621,57.5982495 9.98231947,58.1496718 C10.5150109,58.9972867 11.6455142,59.0062144 12.6235449,58.3914223 C13.1273523,58.0747484 14.3086214,57.1254267 13.526477,55.8806127 C13.0044639,55.0508534 12.1367177,55.2488403 11.9431072,54.940744 C11.8722101,54.8280088 11.9075711,54.6734354 12.0199562,54.6027133 C12.3877462,54.3718162 13.5187746,54.7108972 14.1820569,55.7659519 C14.9720788,57.0226696 14.7847702,58.6456018 13.468709,59.4727352 C12.140919,60.3075711 10.4028009,59.779081 9.59422319,58.492779 C9.30345733,58.0304595 9.10231947,57.420919 9.12122538,56.8715974 C9.11632385,56.7586871 9.12332604,56.6385996 9.19369803,56.5531729" id="Fill-9" fill="#FFFFFF"></path>
                <path d="M8.82958425,55.1954486 C8.58993435,55.2938293 8.52026258,55.3451204 8.51150985,55.545558 C8.50853392,55.6299344 8.48472648,55.7381182 8.36814004,55.7860832 C8.19326039,55.8578556 8.07597374,55.7015317 8.01768053,55.5590372 L7.51247265,54.3284026 C7.45400438,54.1859081 7.42757112,53.9924726 7.60245077,53.9205252 C7.71921225,53.8727352 7.80376368,53.913523 7.87343545,53.9910722 C8.00717724,54.1326915 8.06704595,54.131116 8.34573304,54.0166302 L9.44682713,53.5646389 L8.65452954,51.6344858 L7.55326039,52.086477 C7.32691466,52.1794311 7.23868709,52.2231947 7.23553611,52.4365864 C7.23501094,52.5274398 7.20857768,52.6291466 7.09199125,52.6771116 C6.91693654,52.748709 6.8,52.5925602 6.74135667,52.4500656 L6.23632385,51.2194311 C6.17785558,51.0767615 6.15142232,50.8835011 6.32647702,50.8117287 C6.4428884,50.7637637 6.53304158,50.8176805 6.59728665,50.8819256 C6.75483589,51.0443764 6.8556674,50.9953611 7.06958425,50.9076586 L10.1656018,49.6369365 C10.3662144,49.5544858 10.4596937,49.5236761 10.48,49.3335667 C10.5006565,49.1812691 10.5104595,49.0940919 10.627046,49.046302 C10.8019256,48.9745295 10.9190372,49.1306783 10.9775055,49.2733479 L11.4825383,50.5039825 C11.5410066,50.646302 11.5674398,50.8399125 11.3929103,50.9116849 C11.2761488,50.9594748 11.2134792,50.9171116 11.1464333,50.8463895 C11.0007877,50.694267 10.8500656,50.7331291 10.649453,50.8155799 L9.14030635,51.4350985 L9.93260394,53.3654267 L11.4415755,52.7459081 C11.6682713,52.652779 11.7358425,52.6326477 11.7573742,52.4269584 C11.7768053,52.2904158 11.7864333,52.2032385 11.9031947,52.1552735 C12.0778993,52.0835011 12.195186,52.2398249 12.2538293,52.3821444 L12.7588621,53.612954 C12.8171554,53.7554486 12.8435886,53.9490591 12.668884,54.0206565 C12.5522976,54.0684464 12.4842013,54.0133042 12.3663895,53.910372 C12.2508534,53.8137418 12.1522976,53.8315974 11.9254267,53.9247265 L8.82958425,55.1954486" id="Fill-10" fill="#FFFFFF"></path>
                <path d="M5.46765864,48.5013567 C5.43597374,48.3364551 5.42914661,48.1522976 5.64218818,48.1113348 C5.75229759,48.0901532 5.82319475,48.1621007 5.88866521,48.2421007 C5.99212254,48.3719912 6.03973742,48.3984245 6.20498906,48.3665646 C6.64490153,48.2820131 8.22862144,47.6560175 9.25374179,46.9808315 C8.23334792,46.7922976 7.23588621,46.684814 6.21146608,46.8821007 C5.78503282,46.9643764 5.74056893,47.0298468 5.6652954,47.1942232 C5.62485777,47.2803501 5.59947484,47.3708534 5.48936543,47.3922101 C5.28332604,47.4317724 5.22678337,47.2500656 5.19632385,47.0919912 L4.95667396,45.8473523 C4.92376368,45.6754486 4.93706783,45.523151 5.13645514,45.484814 C5.37032823,45.4396499 5.35387309,45.7993873 5.68402626,45.7358425 C6.07597374,45.6603939 7.88183807,44.8561926 8.73172867,44.1577243 C7.33304158,43.8566302 5.91964989,43.8863895 5.4863895,43.9698906 C5.0121663,44.0610941 5.24376368,44.4871772 4.93444201,44.5468709 C4.72140044,44.5878337 4.67080963,44.3621882 4.61916849,44.0941794 L4.50258206,43.4890153 C4.47474836,43.3445952 4.46512035,43.1467834 4.65085339,43.1108972 C4.74013129,43.0939168 4.81540481,43.1506346 4.88087527,43.1950985 C5.03124726,43.308709 5.06380744,43.3666521 5.29733042,43.3573742 C7.60507659,43.2337856 9.39431072,43.6379869 9.71483589,43.7829322 C9.88708972,43.8639825 9.93137856,44.0194311 9.97391685,44.2394748 C10.0455142,44.6107659 10.0173304,44.6874398 9.74652079,44.9108096 C9.10809628,45.4471772 8.34748359,45.8291466 7.62625821,46.2317724 C9.23781182,46.3420569 9.76157549,46.4694967 10.2051641,46.6263457 C10.419081,46.6993435 10.4715974,46.8246827 10.5193873,47.0722101 C10.6133917,47.5604376 10.4850766,47.6350109 10.0505908,47.9326039 C9.16708972,48.5305908 7.89234136,49.1683151 6.53654267,49.6077024 C6.38249453,49.6588184 6.30126915,49.6815755 6.21496718,49.8622319 C6.16892779,49.9567615 6.11886214,50.0304595 6.00892779,50.0516411 C5.78170678,50.0954048 5.73794311,49.90407 5.68245077,49.6154048 L5.46765864,48.5013567" id="Fill-11" fill="#FFFFFF"></path>
                <path d="M7.04630197,38.0334354 C6.15702407,38.0245077 4.89347921,38.3198249 4.88227571,39.4333479 C4.87317287,40.3298031 5.81339168,40.8504158 6.96892779,40.8623195 C7.83719912,40.8710722 9.14275711,40.5831072 9.15378556,39.4835886 C9.16516411,38.3630635 7.9497593,38.0425383 7.04630197,38.0334354 Z M6.97592998,42.2280963 C5.42126915,42.2123414 4.33435449,40.9685777 4.3497593,39.4419256 C4.36533917,37.9012691 5.44245077,36.6515536 7.03229759,36.6674836 C8.6009628,36.6834136 9.70135667,37.9901969 9.68595186,39.5170241 C9.67247265,40.8406127 8.72682713,42.2457768 6.97592998,42.2280963 L6.97592998,42.2280963 Z" id="Fill-12" fill="#FFFFFF"></path>
                <path d="M7.94415755,31.9010941 C7.07185996,31.7276149 5.77592998,31.7838074 5.55868709,32.8757987 C5.38380744,33.7547484 6.21094092,34.4404376 7.34424508,34.6659081 C8.19553611,34.8353611 9.53172867,34.7940481 9.74617068,33.7160613 C9.96463895,32.6172429 8.8297593,32.0773742 7.94415755,31.9010941 Z M7.09829322,36.0091028 C5.57391685,35.705733 4.73628009,34.2827133 5.03404814,32.7856455 C5.33461707,31.2749234 6.62424508,30.246477 8.18310722,30.556674 C9.72131291,30.8626696 10.5603501,32.3502845 10.2625821,33.8473523 C10.0042013,35.1452079 8.81487965,36.3504595 7.09829322,36.0091028 L7.09829322,36.0091028 Z" id="Fill-13" fill="#FFFFFF"></path>
                <path d="M10.2622319,28.9955361 C10.7173742,29.1772429 10.8955799,29.2407877 11.0926915,28.7466083 C11.526302,27.6605689 10.8679212,26.7795186 9.85960613,26.3772429 C8.83238512,25.9670897 7.68700219,26.1356674 7.24061269,27.2540919 C7.05645514,27.7157112 7.20595186,27.7754048 7.61557987,27.939081 L10.2622319,28.9955361 Z M6.86196937,26.8616193 C7.1347046,26.1789059 7.45522976,25.5831947 8.12078775,25.2005252 C8.8092779,24.796849 9.56621444,24.7898468 10.294442,25.0806127 C10.9382932,25.337593 11.5080963,25.7986871 11.7880088,26.438337 C12.0850766,27.129628 11.9826696,27.8580306 11.7102845,28.540744 L10.8719475,30.6410503 C10.8147046,30.78407 10.6989934,30.9414442 10.5234136,30.8714223 C10.406302,30.8246827 10.3961488,30.7376805 10.3866958,30.6284464 C10.3828446,30.4308096 10.2839387,30.3761926 10.0561926,30.2853392 L6.94792123,29.0445514 C6.69444201,28.9433698 6.60341357,28.9069584 6.50450766,29.0410503 C6.39684902,29.1789934 6.32280088,29.1945733 6.20568928,29.1478337 C6.03010941,29.0776368 6.05479212,28.8840263 6.1116849,28.7410066 L6.86196937,26.8616193 L6.86196937,26.8616193 Z" id="Fill-14" fill="#FFFFFF"></path>
                <path d="M14.118512,22.0906783 C14.3023195,22.2188184 14.3772429,22.2708096 14.5067834,22.2074398 C14.6321225,22.1498468 14.761488,22.086302 14.8649453,22.1584245 C15.0202188,22.2664333 14.9522976,22.4497155 14.8642451,22.576105 L14.1038074,23.6679212 C14.0157549,23.7943107 13.8674836,23.9214004 13.7122101,23.8132166 C13.6087527,23.7412691 13.6182057,23.6539168 13.6341357,23.545558 C13.6749234,23.3521225 13.5912473,23.276674 13.3901094,23.1364551 L10.6435011,21.2231072 C10.4194311,21.0669584 10.339081,21.0109409 10.2123414,21.1191247 C10.0761488,21.228884 10.0003501,21.2274836 9.89689278,21.1553611 C9.74179431,21.0473523 9.80954048,20.86407 9.89776805,20.7376805 L11.6350109,18.2440263 C11.7710284,18.0486652 11.8510284,17.9336543 11.9452079,17.8967177 C12.1332166,17.8228446 12.4358862,18.0253829 12.6030635,18.1162363 C12.7277024,18.1944858 12.9489716,18.3058206 12.8208315,18.4898031 C12.7406565,18.6046389 12.6123414,18.617593 12.489453,18.6345733 C11.942407,18.6970678 11.7587746,18.9361926 11.4583807,19.3671772 C11.0741357,19.9187746 11.1017943,19.9891466 11.4869147,20.2575055 L12.4579431,20.9339168 L13.0424508,20.0948796 C13.3265646,19.6870022 13.0699344,19.6021007 13.2059519,19.4067396 C13.3421444,19.2113786 13.5357549,19.3377681 13.7424945,19.4818381 C13.98407,19.6498906 14.2212691,19.823895 14.0852516,20.019256 C13.9492341,20.2146171 13.7799562,20.0285339 13.5077462,20.419081 L12.9234136,21.2581182 L14.118512,22.0906783" id="Fill-15" fill="#FFFFFF"></path>
                <path d="M16.2548796,17.2775492 C15.6029759,16.9946608 14.9726039,16.7504595 14.3613129,16.5995624 C14.5971116,17.2133042 14.8449891,17.7719037 15.1970241,18.435186 L16.2548796,17.2775492 Z M15.4884902,18.9670022 C15.7398687,19.4909409 15.8723851,19.6782495 16.0012254,19.7962363 C16.2287965,20.0040263 16.4227571,19.6882276 16.6139168,19.8629322 C16.7740919,20.0092779 16.6233698,20.1845077 16.4722976,20.3499344 L16.0849015,20.7735667 C15.9431072,20.9286652 15.8105908,21.0634573 15.6402626,20.9076586 C15.5677899,20.841488 15.5735667,20.752035 15.5842451,20.6573304 C15.6082276,20.5276149 15.6204814,20.4724726 15.5606127,20.3513348 C14.8344858,19.1945733 14.1556236,17.7582495 13.6045514,16.1925602 C13.513523,15.9291028 13.5644639,15.8524289 13.8007877,15.5940481 C14.041663,15.3304158 14.067046,15.3442451 14.3429322,15.4160175 C15.8722101,15.8181182 17.2598687,16.3751422 18.6498031,16.9817068 C18.73593,17.0223195 18.8250328,17.0182932 18.956849,16.9776805 C19.049628,16.9487965 19.1189497,16.9456455 19.1964989,17.0165427 C19.3465208,17.1534354 19.244814,17.3165864 19.1313786,17.4407002 L18.3331291,18.3140481 C18.2245952,18.4327352 18.0399125,18.6244201 17.8797374,18.4780744 C17.7143107,18.3268271 17.9380306,18.1235886 17.8193435,18.0148796 C17.7417943,17.9441575 17.5480088,17.823895 16.8108534,17.5201751 L15.4884902,18.9670022 L15.4884902,18.9670022 Z" id="Fill-16" fill="#FFFFFF"></path>
                <path d="M18.921488,14.1519475 C19.4282713,13.7318162 20.0350109,12.9197374 19.5257768,12.2779869 C19.1474836,11.8007877 18.6286214,11.8905908 18.1953611,12.2343982 C17.7402188,12.5955361 17.8421007,12.7917724 18.0815755,13.0933917 L18.921488,14.1519475 Z M20.0365864,15.5460832 C20.1715536,15.7160613 20.2412254,15.8039387 20.4043764,15.772954 C20.5673523,15.7417943 20.6536543,15.7267396 20.7322538,15.8254705 C20.8497155,15.9735667 20.7320788,16.1295405 20.6114661,16.2252954 L19.5691904,17.0520788 C19.4487527,17.1478337 19.2701969,17.2269584 19.1525602,17.0788621 C19.0741357,16.9801313 19.1084464,16.8994311 19.1548359,16.8001751 C19.2493654,16.6265208 19.1908972,16.5302407 19.0384245,16.3382057 L16.9584245,13.7164114 C16.7886214,13.5026696 16.7277024,13.4258206 16.5754048,13.4930416 C16.4133042,13.5592123 16.3411816,13.53593 16.2627571,13.4371991 C16.1452954,13.2891028 16.2629322,13.1331291 16.3837199,13.0373742 L18.3305033,11.4925164 C18.6266958,11.257593 18.9811816,10.9943107 19.3585996,10.9181619 C19.7874836,10.8280088 20.2342232,10.9740044 20.5083589,11.3197374 C20.9174617,11.8350985 20.796674,12.4940044 20.5190372,13.0452516 C21.1800438,13.1462582 21.7738293,13.4438512 22.3431072,13.7783807 C22.5451204,13.8863895 22.643326,13.9425821 22.8719475,13.90407 C22.9780306,13.891291 23.05593,13.8653829 23.1341794,13.9642888 C23.2516411,14.1123851 23.0793873,14.2669584 22.9752298,14.3495842 L21.9002188,15.2026258 C21.7687527,15.3069584 21.5754923,15.4692341 21.4275711,15.2826258 C21.2968053,15.1180744 21.545733,14.9475711 21.423895,14.7938731 C21.2019256,14.5141357 20.140744,14.1228884 19.7353173,14.051291 C19.635186,14.1843326 19.4650328,14.3639387 19.2619694,14.5698031 L20.0365864,15.5460832 L20.0365864,15.5460832 Z" id="Fill-17" fill="#FFFFFF"></path>
                <path d="M22.1265646,8.88892779 C22.4231072,8.73050328 22.5563239,8.90538293 22.7138731,9.05155361 C23.456105,9.74231947 24.1134354,10.30407 24.8301094,10.8577681 C24.7926477,9.94100656 24.6723851,8.97330416 24.5414442,7.95553611 C24.5095842,7.70275711 24.4978556,7.62170678 24.7758425,7.47308534 L25.8315974,6.90888403 C25.9676149,6.83623632 26.1575492,6.79019694 26.2466521,6.95702407 C26.3058206,7.06818381 26.2611816,7.1478337 26.2156674,7.19597374 C25.9844201,7.44665208 26.0182057,7.53960613 26.1335667,7.75579869 C26.4801751,8.40420131 27.2325602,9.58967177 27.8037637,10.6580306 C27.9059956,10.8495405 27.9588621,10.9482713 28.124814,10.9468709 C28.2905908,10.9454705 28.3784683,10.9461707 28.4378118,11.0575055 C28.5270897,11.2241575 28.3833698,11.3564989 28.2473523,11.4291466 L27.0741357,12.0560175 C26.9384683,12.1286652 26.748709,12.1745295 26.6596061,12.0078775 C26.6000875,11.8967177 26.6484026,11.8233698 26.7115974,11.7339168 C26.8357112,11.5802188 26.7952735,11.4748359 26.6797374,11.2586433 C26.1748796,10.3138731 25.6572429,9.47886214 25.1550109,8.62809628 C25.2868271,9.67702407 25.4072648,10.6449015 25.4858643,11.6982057 C25.5079212,12.0516411 25.5161488,12.1265646 25.238337,12.275186 C24.9666521,12.4203063 24.8763239,12.4446389 24.6363239,12.2632823 C23.8056893,11.6593435 23.0371991,11.0380744 22.1901094,10.2998687 C22.6357987,11.2525164 23.0876149,12.2020131 23.4998687,12.9738293 C23.6154048,13.1900219 23.7165864,13.2311597 24.0038512,13.1887965 C24.1319912,13.1760175 24.2046389,13.1928228 24.2673085,13.3101094 C24.3662144,13.4953173 24.147221,13.6204814 23.9185996,13.7424945 L23.3811816,14.0294092 C23.2147046,14.1186871 22.9890591,14.2312473 22.8901532,14.0460394 C22.8274836,13.9287527 22.8537418,13.859081 22.9356674,13.7598249 C23.0989934,13.5453829 23.0905908,13.4704595 22.9752298,13.254442 C22.5295405,12.4206565 21.5124726,10.2650328 21.4266958,10.1045077 C21.3706783,9.99947484 21.2042013,9.9852954 21.0328228,10.0211816 C20.8955799,10.0469147 20.7618381,10.0785996 20.6828884,9.93050328 C20.5738293,9.72656455 20.7620131,9.61820569 20.9227133,9.53242888 L22.1265646,8.88892779" id="Fill-18" fill="#FFFFFF"></path>
                <path d="M30.4406127,10.2571554 C30.8997812,10.1067834 31.3873085,9.68210066 31.212954,9.1497593 C30.8295842,7.97811816 28.2681838,9.78888403 27.6280088,7.83212254 C27.5235011,7.5126477 27.388709,6.22301969 29.1061707,5.66091904 C29.5985996,5.49986871 30.1769803,5.44332604 30.6902407,5.52577681 C30.7852954,5.54625821 30.8759737,5.57549234 30.9330416,5.66004376 C31.0319475,5.80446389 31.1212254,6.07737418 31.1758425,6.24367615 C31.2281838,6.40350109 31.1852954,6.54284464 31.0186433,6.59728665 C30.6594311,6.71492341 30.403326,5.75229759 29.3116849,6.10940919 C28.9323414,6.23369803 28.5494967,6.59483589 28.6909409,7.02739606 C29.0832385,8.22547046 31.6222319,6.43676149 32.2536543,8.36691466 C32.4889278,9.08586433 32.1901094,10.2667834 30.6725602,10.7634136 C29.0350985,11.299081 28.3192998,10.5533479 28.2256455,10.2671335 C28.1649015,10.0807002 28.2391247,9.85733042 28.4322101,9.79431072 C28.6119912,9.73549234 28.6781619,9.7580744 29.1149234,10.1015317 C29.3529978,10.2888403 29.8214442,10.4596937 30.4406127,10.2571554" id="Fill-19" fill="#FFFFFF"></path>
                <path d="M39.2792998,6.3926477 C39.8862144,6.34065646 39.9553611,6.41190372 39.9690153,6.57242888 C39.9828446,6.73295405 39.9215755,6.92078775 39.961488,7.38818381 C39.9978993,7.81374179 40.1206127,8.09838074 40.1297155,8.20306346 C40.1494967,8.43326039 39.9080963,8.65067834 39.3403939,8.91693654 C38.8472648,9.14888403 38.4782495,9.27177243 37.9341794,9.31833698 C36.3714661,9.45190372 35.0347484,8.61059081 34.8938293,6.96420131 C34.7508096,5.28997812 35.9726915,4.13146608 37.5842451,3.99352298 C38.0724726,3.95185996 38.7320788,4.02205689 39.1856455,4.22914661 C39.3101094,4.28884026 39.4275711,4.34905908 39.5003939,4.46214442 C39.5740919,4.582407 39.5963239,4.924814 39.6089278,5.07133479 C39.6379869,5.41321663 39.5312035,5.47851204 39.3846827,5.49111597 C39.2243326,5.50477024 39.1445077,5.39221007 39.0860394,5.28472648 C38.8085777,4.75326039 38.3480088,4.46231947 37.7552735,4.51308534 C36.5762801,4.61391685 36.1666521,5.82249453 36.2536543,6.8409628 C36.3299781,7.73391685 36.9078337,8.82275711 37.9473085,8.73400438 C38.1845077,8.71369803 38.4996061,8.61654267 38.6648578,8.41260394 C38.8430635,8.1936105 38.8194311,7.83719912 38.7961488,7.56516411 C38.7574617,7.11177243 38.7119475,6.98923414 38.230372,7.03037199 C37.881488,7.06013129 37.6857768,7.0697593 37.6637199,6.81172867 C37.6427133,6.56770241 37.8350985,6.51606127 38.1559737,6.48857768 L39.2792998,6.3926477" id="Fill-20" fill="#FFFFFF"></path>
                <path d="M44.694442,6.84463895 C44.7747921,5.95921225 44.5818818,4.67641138 43.4732604,4.57575492 C42.5808315,4.49487965 41.9865208,5.38993435 41.8820131,6.54039387 C41.8037637,7.40498906 41.9858206,8.72892779 43.0806127,8.82835886 C44.1962363,8.92954048 44.6128665,7.74407002 44.694442,6.84463895 Z M40.5207877,6.43798687 C40.6608315,4.89015317 41.9873961,3.90669584 43.5073961,4.04463895 C45.0414004,4.18363239 46.2004376,5.35737418 46.0567177,6.94021882 C45.9149234,8.50188184 44.5246389,9.49356674 43.0046389,9.35562363 C41.6868271,9.23606127 40.3625383,8.18100656 40.5207877,6.43798687 L40.5207877,6.43798687 Z" id="Fill-21" fill="#FFFFFF"></path>
                <path d="M47.3549234,5.58231947 C47.4188184,5.33129103 47.4291466,5.29067834 47.3092341,5.16621444 C47.1889716,5.04175055 47.1247265,4.98205689 47.1627133,4.83273523 C47.2024508,4.67676149 47.3298906,4.6585558 47.5469584,4.71369803 L48.8362363,5.04157549 C49.0533042,5.09689278 49.1565864,5.17374179 49.116849,5.32971554 C49.0788621,5.4790372 48.9939606,5.50074398 48.8290591,5.55273523 C48.6639825,5.60472648 48.6536543,5.64533917 48.5897593,5.89636761 L47.7771554,9.09199125 C47.6754486,9.49234136 47.7703282,9.51649891 48.1515974,9.635186 L48.4028009,9.69908096 C48.8099781,9.80253829 49.0797374,9.84962801 49.4524289,9.60490153 C49.5921225,9.51037199 49.7999125,9.34652079 49.9763676,9.39133479 C50.0985558,9.42231947 50.1965864,9.54835886 50.1638512,9.67737418 C50.1171116,9.8604814 49.961488,10.1027571 49.8575055,10.2568053 C49.6966302,10.5193873 49.6355361,10.5326915 49.3304158,10.4551422 L46.2839387,9.68017505 C46.0666958,9.62503282 45.9634136,9.54818381 46.003151,9.39221007 C46.0411379,9.2428884 46.1262144,9.22118162 46.291116,9.16919037 C46.4560175,9.11719912 46.4661707,9.07658643 46.5302407,8.82555799 L47.3549234,5.58231947" id="Fill-22" fill="#FFFFFF"></path>
                <path d="M51.6441138,10.3590372 C51.5606127,10.5668271 51.5266521,10.6513786 51.6175055,10.7632385 C51.7018818,10.8726477 51.7927352,10.9846827 51.7458206,11.1014442 C51.6752735,11.2770241 51.481663,11.2519912 51.3384683,11.1945733 L50.1039825,10.6988184 C49.9611379,10.6414004 49.8039387,10.5255142 49.8743107,10.3501094 C49.9214004,10.2331729 50.0085777,10.2228446 50.1176368,10.2139168 C50.3154486,10.2102407 50.3700656,10.1115098 50.4616193,9.88411379 L51.708709,6.77829322 C51.8104158,6.524814 51.8470022,6.43378556 51.7132604,6.33487965 C51.5754923,6.22669584 51.5599125,6.1526477 51.6070022,6.03571116 C51.6773742,5.86030635 51.8709847,5.88516411 52.0140044,5.94258206 L54.8339606,7.07501094 C55.0548796,7.16376368 55.1847702,7.21592998 55.2418381,7.29925602 C55.3563239,7.46573304 55.2269584,7.80621444 55.1760175,7.98967177 C55.1277024,8.12866521 55.068884,8.36919037 54.860919,8.28568928 C54.7308534,8.23334792 54.6895405,8.11115974 54.6454267,7.99527352 C54.4614442,7.47623632 54.1874836,7.35107221 53.7001313,7.15536105 C53.0762363,6.90485777 53.0140919,6.94774617 52.8390372,7.38310722 L52.3978993,8.48122538 L53.3466958,8.86214442 C53.807965,9.0473523 53.8329978,8.77829322 54.0539168,8.86704595 C54.2750109,8.95562363 54.1953611,9.17269147 54.1015317,9.40656455 C53.9919475,9.67947484 53.8758862,9.9497593 53.6547921,9.86118162 C53.4338731,9.77242888 53.5772429,9.56586433 53.1352298,9.38835886 L52.1866083,9.00743982 L51.6441138,10.3590372" id="Fill-23" fill="#FFFFFF"></path>
                <path d="M60.3910722,11.3941357 C60.5845077,11.1192998 60.5192123,10.7737418 60.2384245,10.5764551 C59.9865208,10.3992998 59.6490153,10.4530416 59.4758862,10.6993435 C59.2826258,10.9743545 59.296105,11.3689278 59.3076586,11.6936543 C59.6814004,11.7339168 60.1494967,11.7379431 60.3910722,11.3941357 Z M57.2362363,12.4969803 C56.9101094,12.9608753 57.0279212,13.523326 57.4863895,13.8454267 C57.7726039,14.0467396 58.0091028,14.0759737 58.3427571,14.0882276 C58.1922101,13.4258206 58.1507221,12.7546608 58.166302,12.038337 C57.779081,12.0656455 57.465733,12.1705033 57.2362363,12.4969803 Z M61.5256018,13.66407 C61.6572429,13.756674 61.7671772,13.8681838 61.654442,14.0285339 C61.5938731,14.1144858 61.4970678,14.1062582 61.40814,14.086477 C61.193698,14.038512 61.1357549,14.0234573 60.8372867,14.1557987 C60.4819256,14.3082713 60.0399125,14.5109847 59.5399562,14.6132166 C59.5949234,14.985558 59.7684026,15.3473961 60.0892779,15.5728665 C60.2210941,15.6654705 60.3662144,15.6905033 60.4693217,15.7629759 C60.5435449,15.8153173 60.56,15.9380306 60.5036324,16.0182057 C60.4150547,16.1442451 60.2596061,16.1461707 60.1202626,16.1253392 C59.8065646,16.0845514 59.5338293,15.9611379 59.2761488,15.7799562 C58.8521663,15.4818381 58.6394748,15.1270022 58.4745733,14.643151 C57.8977681,14.6482276 57.4098906,14.5020569 56.934442,14.1678775 C56.2699344,13.7006565 55.7424945,12.8077024 56.2739606,12.0516411 C56.7131729,11.427221 57.4450766,11.3598249 58.1354923,11.4858643 C58.118337,11.0716849 58.1778556,10.6340481 58.4196061,10.2904158 C58.806302,9.74074398 59.6194311,9.53347921 60.5817068,10.2100656 C61.1373304,10.6007877 61.5788184,11.2877024 61.1275274,11.9292779 C60.748884,12.4675711 59.8996937,12.409628 59.3337418,12.2771116 C59.3521225,12.8719475 59.3852079,13.494442 59.4750109,14.0968053 C59.7547484,14.0280088 60.1559737,13.9077462 60.3291028,13.6616193 C60.5102845,13.4037637 60.118337,13.2309847 60.2713348,13.0132166 C60.3719912,12.8700219 60.5290153,12.963326 60.6377243,13.0398249 L61.5256018,13.66407 L61.5256018,13.66407 Z" id="Fill-24" fill="#FFFFFF"></path>
                <path d="M68.3852954,18.5155361 C68.3122976,18.6343982 67.9609628,18.966302 67.8445514,19.0671335 C67.7172867,19.1770678 67.5600875,19.1558862 67.4454267,19.0233698 C67.3218381,18.8805252 67.3944858,18.6972429 67.4909409,18.5304158 C67.69593,18.1680525 67.7901094,17.5494092 67.3638512,17.0569803 C66.7089716,16.3000438 65.590547,16.4624945 64.716849,17.2183807 C64.2671335,17.6078775 63.2432385,18.7252516 64.2055142,19.836849 C64.8469147,20.5780306 65.6745733,20.2506783 65.9124726,20.5258643 C65.9994748,20.6265208 65.9880963,20.7844201 65.8877899,20.8714223 C65.5597374,21.1555361 64.3901969,20.9916849 63.5746171,20.0493654 C62.6034136,18.9270897 62.5424945,17.2948796 63.7176368,16.2778118 C64.9034573,15.2516411 66.7014442,15.510372 67.6955799,16.659256 C68.0530416,17.072035 68.3441575,17.6439387 68.4089278,18.1895842 C68.4308096,18.3003939 68.4420131,18.4203063 68.3852954,18.5155361" id="Fill-25" fill="#FFFFFF"></path>
                <path d="M69.5080963,24.0054267 C70.27186,23.5495842 71.1963239,22.6391247 70.6256455,21.683151 C70.166302,20.9134354 69.0925164,20.9589497 68.1004814,21.5511597 C67.3549234,21.9961488 66.3908972,22.9221882 66.9543982,23.8660832 C67.5284026,24.8281838 68.7326039,24.4682713 69.5080963,24.0054267 Z M67.3825821,20.3894967 C68.7175492,19.5926477 70.2932166,20.0875274 71.0755361,21.398337 C71.8650328,22.7212254 71.5970241,24.3490591 70.2321225,25.1635886 C68.8850766,25.9674398 67.2651204,25.4256455 66.4829759,24.1148359 C65.8046389,22.9783807 65.8793873,21.2866521 67.3825821,20.3894967 L67.3825821,20.3894967 Z" id="Fill-26" fill="#FFFFFF"></path>
                <path d="M73.4489278,26.3854705 C73.5059956,26.5360175 73.5245514,26.7236761 73.3607002,26.7856455 C73.2234573,26.8376368 73.1567615,26.7803939 73.0664333,26.6799125 C72.9018818,26.5025821 72.8052516,26.5241138 72.5841575,26.5929103 C72.0738731,26.7483589 71.2535667,27.0139168 70.4873523,27.3039825 C69.2428884,27.7747046 69.2120788,28.4453392 69.4424508,29.0543545 C69.6878775,29.7027571 70.1873085,30.1127352 71.4055142,29.6518162 C72.1652516,29.3643764 72.8166302,29.0279212 73.5558862,28.7257768 C73.7104595,28.6597812 73.7053829,28.5869584 73.7244639,28.4 C73.7356674,28.2909409 73.7519475,28.1950109 73.8697593,28.150372 C74.0794748,28.0710722 74.1701532,28.291291 74.2321225,28.4549672 L74.4477899,29.0247702 C74.5099344,29.1884464 74.5874836,29.4137418 74.3779431,29.4930416 C74.2599562,29.5376805 74.1843326,29.4764114 74.1038074,29.4020131 C73.9656893,29.2745733 73.9210503,29.2164551 73.731291,29.2884026 C73.3188621,29.4445514 72.4413129,29.8961926 71.616105,30.2084902 C70.0182057,30.8131291 69.2677462,30.1162363 68.8166302,28.9242888 C68.4103282,27.8501532 68.4315098,26.7189497 70.1017068,26.0870022 C70.8220569,25.814442 71.7976368,25.5427571 72.124814,25.4188184 C72.3803939,25.3221882 72.4719475,25.2875274 72.454442,25.1221007 C72.4406127,24.9475711 72.4847265,24.8859519 72.6027133,24.8413129 C72.7795186,24.774267 72.8989059,24.931291 72.9533479,25.0755361 L73.4489278,26.3854705" id="Fill-27" fill="#FFFFFF"></path>
                <path d="M73.8421007,31.0935667 C74.3504595,30.9927352 74.4084026,30.9241138 74.4374617,30.6755361 C74.4526915,30.5368928 74.4610941,30.3996499 74.6258206,30.3669147 C74.8525164,30.3219256 74.9017068,30.5333917 74.9370678,30.7119475 L75.1240263,31.6526915 C75.174442,31.9068709 75.1770678,31.9562363 75.0203939,32.172954 C74.6872648,32.6531291 74.2914661,33.1030197 72.4791247,34.9405689 L74.7933479,34.4808753 C75.0475274,34.4304595 75.0968928,34.3564114 75.1523851,34.0954048 C75.1770678,33.9691904 75.2143545,33.9047702 75.3449453,33.8788621 C75.5509847,33.8378993 75.5973742,34.0357112 75.6504158,34.3033698 L75.7691028,34.9010066 C75.8156674,35.1343545 75.8550547,35.3692779 75.6490153,35.4102407 C75.5185996,35.4361488 75.4596061,35.3906346 75.3883589,35.2835011 C75.2264333,35.0443764 75.1908972,35.0086652 74.9094092,35.0646827 L71.1805689,35.8053392 C70.7548359,35.8897155 70.6890153,35.881488 70.6070897,35.4694092 C70.5757549,35.3115098 70.5498468,35.1810941 70.6457768,35.0905908 C71.0692341,34.6709847 72.6711597,33.0322976 73.7934354,31.7101094 L70.9158862,32.281663 C70.6618818,32.3320788 70.6069147,32.4143545 70.5571991,32.6669584 C70.5323414,32.7933479 70.4952298,32.8577681 70.3646389,32.8836761 C70.1585996,32.9246389 70.1066083,32.6993435 70.0588184,32.4589934 L69.9401313,31.8615317 C69.8940919,31.6280088 69.8543545,31.3930853 70.0603939,31.3522976 C70.1909847,31.3263895 70.2498031,31.3717287 70.3212254,31.4788621 C70.4651204,31.7001313 70.5323414,31.7510722 70.8001751,31.6978556 L73.8421007,31.0935667" id="Fill-28" fill="#FFFFFF"></path>
                <path d="M75.0853392,37.7032823 C75.3720788,37.6915536 75.4627571,37.6808753 75.4519037,37.407965 C75.4193435,36.6104158 74.8365864,36.5850328 74.8234573,36.2631072 C74.8166302,36.0952298 74.9190372,36.0280088 75.0800875,36.0213567 C75.1571116,36.0182057 75.2346608,36.0360613 75.481488,36.0682713 C75.9184245,36.1276149 75.9212254,36.1974617 75.9340044,36.5123851 L76.0794748,40.0950547 C76.0924289,40.4098031 76.0950547,40.4798249 75.6644201,40.5743545 C75.4214442,40.6263457 75.3451204,40.6505033 75.2682713,40.6534792 C75.107221,40.6601313 74.9999125,40.601488 74.9927352,40.4336105 C74.9797812,40.1116849 75.5586871,40.0392123 75.526302,39.2413129 C75.5150985,38.9684026 75.423895,38.9650766 75.1369803,38.9768053 L71.7992123,39.1124726 C71.5824945,39.1212254 71.4704595,39.1257768 71.3993873,39.2757987 C71.3284902,39.4259956 71.289453,39.5045952 71.1635886,39.5096718 C70.9747046,39.5173742 70.9181619,39.3304158 70.91186,39.1765427 L70.8577681,37.8470022 C70.8516411,37.6931291 70.8931291,37.5021444 71.081663,37.494442 C71.2077024,37.4893654 71.2526915,37.5646389 71.3059081,37.6605689 C71.3901094,37.8394748 71.5026696,37.8487527 71.7475711,37.8389497 L75.0853392,37.7032823" id="Fill-29" fill="#FFFFFF"></path>
                <path d="M73.4666083,42.7553611 C73.4074398,43.4109409 73.5560613,44.4141794 74.3704158,44.5048578 C74.9755799,44.5726039 75.2773742,44.1412691 75.3388184,43.5915974 C75.4032385,43.0139168 75.1921225,42.9480963 74.809628,42.9053829 L73.4666083,42.7553611 Z M71.6912035,42.5642013 C71.4755361,42.5402188 71.3640263,42.5276149 71.2714223,42.6653829 C71.1782932,42.8029759 71.1280525,42.8747484 71.0028884,42.860919 C70.8150547,42.8399125 70.7873961,42.646477 70.8043764,42.4933042 L70.9519475,41.171116 C70.9691028,41.0181182 71.0389497,40.8355361 71.2266083,40.8567177 C71.3519475,40.8707221 71.3852079,40.9517724 71.4230197,41.0547046 C71.4792123,41.2441138 71.5891466,41.270547 71.8328228,41.2976805 L75.1588621,41.6691466 C75.430372,41.6994311 75.5277024,41.7102845 75.5873961,41.5550109 C75.6547921,41.3934354 75.7221882,41.3585996 75.8473523,41.3726039 C76.0353611,41.3936105 76.0628446,41.5868709 76.0460394,41.7398687 L75.7701532,44.2104158 C75.72814,44.5860832 75.6651204,45.0228446 75.4531291,45.3444201 C75.2147046,45.7123851 74.7963239,45.926302 74.3579869,45.8774617 C73.7038074,45.8042888 73.321488,45.254442 73.1259519,44.6690591 C72.5883589,45.0667834 71.9588621,45.2784245 71.3200875,45.4466521 C71.1012691,45.5138731 70.9922101,45.5439825 70.8582932,45.7332166 C70.7924726,45.8174179 70.7560613,45.8909409 70.6308972,45.8769365 C70.4428884,45.85593 70.4547921,45.6248578 70.4694967,45.4926915 L70.6217943,44.1286652 C70.6403501,43.961663 70.6615317,43.7102845 70.8982057,43.7368928 C71.1066958,43.76 71.0526039,44.0570678 71.2474398,44.0787746 C71.6022757,44.118337 72.6277462,43.6411379 72.9643764,43.4037637 C72.9405689,43.2392123 72.9328665,42.9916849 72.9298906,42.7024945 L71.6912035,42.5642013 L71.6912035,42.5642013 Z" id="Fill-30" fill="#FFFFFF"></path>
                <path d="M71.9880963,47.7521225 C72.8661707,47.4020131 73.660919,47.1452079 74.5246389,46.9291904 C74.7739168,46.8659956 74.7929978,46.8493654 74.9643764,46.6708096 C75.0477024,46.5773304 75.1389059,46.5076586 75.2675711,46.5423195 C75.4837637,46.6007877 75.4284464,46.8325602 75.3515974,47.1163239 L75.0153173,48.3602626 C74.9677024,48.5360175 74.8983807,48.7129978 74.675186,48.652779 C74.4724726,48.5978118 74.5817068,48.3010941 74.4196061,48.2571554 C74.2100656,48.2006127 73.8261707,48.2781619 72.2764114,48.8600438 C73.0807877,49.9625383 73.5768928,50.4085777 73.7659519,50.4596937 C73.9688403,50.5144858 74.0362363,50.1846827 74.259256,50.2449015 C74.4687965,50.3016193 74.4343107,50.5097593 74.3922976,50.6653829 L74.2333479,51.2533917 C74.1675274,51.4967177 74.1095842,51.6842013 73.8930416,51.625733 C73.8322976,51.6092779 73.7337418,51.5173742 73.718512,51.4405252 C73.6794748,51.2631947 73.6645952,51.2374617 73.4926915,51.0678337 C72.8176805,50.3991247 72.2356236,49.7340919 71.7097593,48.9969365 L70.5400438,48.6809628 C70.3306783,48.6244201 70.2224945,48.5950109 70.1095842,48.716849 C69.996849,48.8386871 69.9364551,48.9020569 69.8146171,48.8691466 C69.632035,48.8199562 69.6341357,48.6247702 69.6743982,48.4759737 L70.0215317,47.1914223 C70.0617943,47.0428009 70.1584245,46.8731729 70.3410066,46.9223632 C70.4626696,46.9552735 70.483151,47.0407002 70.5048578,47.1480088 C70.5316411,47.343895 70.6361488,47.3866083 70.8728228,47.4505033 L71.9880963,47.7521225" id="Fill-31" fill="#FFFFFF"></path>
                <path d="M70.0423632,58.6897155 C69.9054705,58.6625821 69.4713348,58.4491904 69.3361926,58.3753173 C69.1886214,58.2946171 69.1537856,58.1396937 69.2378118,57.9861707 C69.3284902,57.8202188 69.5257768,57.8242451 69.7157112,57.8564551 C70.1269147,57.9217505 70.7397812,57.7937856 71.0522538,57.2225821 C71.532779,56.3438074 70.9895842,55.3522976 69.9758425,54.7978993 C69.4536543,54.5122101 68.0484902,53.9432823 67.3428446,55.2336105 C66.8724726,56.0938293 67.468709,56.755186 67.2940044,57.0744858 C67.2301094,57.1912473 67.0779869,57.2358862 66.9614004,57.1719912 C66.5803063,56.9636761 66.3250766,55.8102407 66.9232385,54.716674 C67.6353611,53.414267 69.1441575,52.7866958 70.5081838,53.5326039 C71.8846389,54.2851641 72.2702845,56.060744 71.5410066,57.3941357 C71.2789497,57.8734354 70.844814,58.3462582 70.3558862,58.5976368 C70.2596061,58.6568053 70.1512473,58.7093217 70.0423632,58.6897155" id="Fill-32" fill="#FFFFFF"></path>
                <path d="M69.0443764,59.5789934 C69.251116,59.7351422 69.2845514,59.7605252 69.4457768,59.6980306 C69.6073523,59.6357112 69.6871772,59.5994748 69.8100656,59.6924289 C69.9385558,59.7895842 69.9059956,59.9140481 69.7706783,60.092779 L68.9685777,61.1543107 C68.8336105,61.3330416 68.7226258,61.398337 68.5941357,61.3015317 C68.4712473,61.2084026 68.4842013,61.1215755 68.5003063,60.9494967 C68.5160613,60.7772429 68.4828009,60.752035 68.2760613,60.5957112 L65.644814,58.6072648 C65.3150109,58.3581619 65.2558425,58.4362363 64.9988621,58.7420569 L64.8423632,58.9487965 C64.5890591,59.2840263 64.4413129,59.5147484 64.5221882,59.9532604 C64.5550985,60.1186871 64.6258206,60.3737418 64.5160613,60.5190372 C64.4399125,60.6195186 64.2855142,60.6610066 64.1794311,60.5806565 C64.028709,60.4668709 63.8659081,60.2294967 63.7642013,60.073698 C63.5844201,59.8237199 63.5957987,59.7622757 63.7859081,59.5107221 L65.6814004,57.0023632 C65.8165427,56.8236324 65.9273523,56.7581619 66.0558425,56.8553173 C66.1789059,56.9480963 66.1659519,57.0349234 66.1500219,57.2071772 C66.1337418,57.3794311 66.1673523,57.404814 66.3739168,57.5609628 L69.0443764,59.5789934" id="Fill-33" fill="#FFFFFF"></path>
                <path d="M65.9059956,64.7588621 C65.7913348,64.8715974 65.6273085,64.9643764 65.5042451,64.8395624 C65.4011379,64.7347046 65.4266958,64.6506783 65.4820131,64.5274398 C65.5781182,64.3054705 65.5192998,64.2258206 65.3671772,64.051291 C65.0191685,63.6472648 64.4451641,63.0037637 63.8706346,62.4197812 C62.937593,61.4713348 62.3117724,61.7137856 61.8477024,62.1703282 C61.3533479,62.6564551 61.1798687,63.2787746 62.0933042,64.2072648 C62.6629322,64.7865208 63.2332604,65.2467396 63.80814,65.8009628 C63.9308534,65.9159737 63.9956236,65.8818381 64.1743545,65.823895 C64.278512,65.7899344 64.3726915,65.7659519 64.4610941,65.85593 C64.6182932,66.0155799 64.4533917,66.1876586 64.3287527,66.310372 L63.894442,66.7375055 C63.769628,66.8602188 63.5950985,67.0221444 63.4378993,66.8624945 C63.3494967,66.7725164 63.3748796,66.6786871 63.4104158,66.5750547 C63.4713348,66.3973742 63.5065208,66.3333042 63.3643764,66.1885339 C63.0548796,65.8741357 62.2874398,65.2537418 61.6687965,64.6247702 C60.470547,63.4067396 60.8056018,62.4390372 61.7141357,61.5453829 C62.5328665,60.7401313 63.5763676,60.3030197 64.8281838,61.5760175 C65.3682276,62.1251641 66.0105033,62.9078337 66.256105,63.1572867 C66.4474398,63.3519475 66.5162363,63.4219694 66.6604814,63.3389934 C66.8147046,63.2561926 66.8889278,63.2714223 66.9769803,63.3614004 C67.1098468,63.4961926 67.0140919,63.6686214 66.9045077,63.7766302 L65.9059956,64.7588621" id="Fill-34" fill="#FFFFFF"></path>
                <path d="M60.1922101,66.6739606 C59.7673523,67.1285777 59.2075274,67.9618381 59.6360613,68.5678775 C59.9555361,69.0195186 60.428709,68.7791685 60.7831947,68.5284902 C61.2348359,68.2090153 61.174442,68.0631947 60.9682276,67.7715536 L60.1922101,66.6739606 Z M59.1690153,65.2274836 C58.9102845,64.8616193 58.7996499,64.8628446 58.393523,65.1499344 C57.8790372,65.513698 57.5126477,66.0989059 57.932954,66.6933917 C58.2037637,67.0765864 58.7310284,67.1667396 59.1523851,67.0231947 C59.3645514,66.7530853 59.5896718,66.4652954 59.8645077,66.2107659 L59.1690153,65.2274836 Z M62.0652954,67.1156236 C62.2228446,67.3386433 62.2795624,67.4188184 62.4353611,67.36 C62.6007877,67.3031072 62.6716849,67.3302407 62.7443326,67.4331729 C62.8533917,67.5873961 62.7275274,67.7365427 62.601663,67.8256455 L60.5263895,69.2933042 C59.4858643,70.0290591 58.8654705,69.7820569 58.5337418,69.3132604 C58.2062144,68.8502407 58.3891466,68.2235449 58.6645077,67.7883589 C58.0103282,68.0882276 57.2308096,68.0649453 56.7817943,67.430372 C56.3210503,66.7788184 56.4807002,65.8767615 57.4296718,65.2056018 L59.6420131,63.6409628 C59.7677024,63.55186 59.9504595,63.4827133 60.0596937,63.6371116 C60.1325164,63.7400438 60.0938293,63.8188184 60.0420131,63.9154486 C59.9380306,64.0835011 59.9912473,64.1829322 60.1326915,64.3830197 L62.0652954,67.1156236 L62.0652954,67.1156236 Z" id="Fill-35" fill="#FFFFFF"></path>
                <path d="M26.467221,70.3387309 C26.7094967,69.8492779 27.3074836,69.8090153 27.7529978,70.0294092 C28.1797812,70.2405252 28.4889278,70.7684902 28.259256,71.2329103 C28.0294092,71.6973304 27.4317724,71.7531729 27.011116,71.5450328 C26.5717287,71.3277899 26.2282713,70.8218818 26.467221,70.3387309" id="Fill-36" fill="#FFFFFF"></path>
                <path d="M32.4327352,71.516849 C32.5384683,71.1101969 32.5414442,70.9880088 32.0873523,70.8700219 C31.7144858,70.7732166 31.5842451,70.7177243 31.6336105,70.527965 C31.6828009,70.3382057 31.8863895,70.3620131 32.0427133,70.3737418 C32.9368928,70.4395624 33.37593,70.1701532 33.7013567,70.2545295 C34.006302,70.3338293 34.0026258,70.5428446 33.9355799,70.8001751 L33.00814,74.3719912 C32.9144858,74.7310284 32.8689716,74.9073085 33.273698,75.0485777 C33.4445514,75.1147484 33.676849,75.1676149 33.6150547,75.4049891 C33.5658643,75.5947484 33.3974617,75.6017505 33.2348359,75.5595624 L30.9916849,74.9768053 C30.8085777,74.9291904 30.6359737,74.8698468 30.6939168,74.646302 C30.7485339,74.4362363 31.0251204,74.486302 31.1844201,74.5130853 C31.6269584,74.59186 31.6637199,74.4784245 31.7675274,74.0787746 L32.4327352,71.516849" id="Fill-37" fill="#FFFFFF"></path>
                <path d="M38.2088403,72.6755361 C38.2694092,71.9501094 38.0691466,71.4062144 37.5947484,71.3666521 C36.9946608,71.3162363 36.8204814,72.0533917 36.7824945,72.5069584 C36.7467834,72.9325164 36.8057768,73.6540919 37.3571991,73.7003063 C37.9431072,73.7493217 38.1684026,73.1569365 38.2088403,72.6755361 Z M36.9939606,74.1757549 C36.0521663,74.0968053 35.3685777,73.449453 35.4498031,72.4796499 C35.5324289,71.4960175 36.3917724,70.7950985 37.5849453,70.8948796 C38.9384683,71.0084902 39.6264333,71.9371554 39.5159737,73.2558425 C39.3717287,74.979081 37.9331291,76.2989934 36.1750547,76.1517724 C35.9171991,76.1302407 35.4571554,76.0845514 35.4788621,75.8263457 C35.4979431,75.5961488 35.7909847,75.6206565 35.9522101,75.6271335 C37.0723851,75.6717724 37.7402188,74.9971116 38.0022757,73.9649891 C37.6714223,74.1410941 37.3708534,74.2072648 36.9939606,74.1757549 L36.9939606,74.1757549 Z" id="Fill-38" fill="#FFFFFF"></path>
                <path d="M41.2348359,71.9436324 C40.9143107,71.9709409 40.7628884,72.0117287 40.665558,72.2729103 C40.6256455,72.3817943 40.5838074,72.4694967 40.4442888,72.4814004 C40.214267,72.5008315 40.1988621,72.3196499 40.1747046,72.0334354 C40.1066083,71.2313348 40.1094092,71.1817943 40.52814,71.1464333 L43.4371991,70.8999562 C43.6323851,70.883326 43.7515974,70.8801751 43.7622757,71.0058643 C43.7675274,71.0685339 43.7270897,71.1704158 43.6659956,71.3652516 C43.2812254,72.5431947 42.9258643,74.1540481 42.6965427,75.5929978 C42.6237199,76.0628446 42.502407,76.1223632 42.1677024,76.1507221 L41.4489278,76.2114661 C41.3153611,76.2088403 41.1252516,76.2037637 41.1112473,76.0364114 C41.10407,75.9527352 41.1497593,75.8294967 41.2185558,75.647965 C41.6528665,74.4728228 42.6177681,72.1776805 42.8535667,71.8065646 L41.2348359,71.9436324" id="Fill-39" fill="#FFFFFF"></path>
                <path d="M46.0239825,75.6504158 C45.8343982,75.6999562 45.6208315,75.7410941 45.5572867,75.4972429 C45.4617068,75.1313786 45.7971116,74.3639387 46.0745733,73.900919 C46.892779,72.5153611 47.2378118,71.8683589 47.0716849,71.2315098 C46.969453,70.838512 46.630547,70.5941357 46.2308972,70.6982932 C45.8921663,70.7865208 45.5579869,71.1704158 45.6533917,71.536105 C45.7029322,71.7256893 45.8937418,71.7916849 45.9413567,71.9747921 C46.0085777,72.2321225 45.7351422,72.4047265 45.5250766,72.4595186 C45.1523851,72.5564989 44.8451641,72.3761926 44.7480088,72.0036761 C44.5113348,71.0958425 45.4244201,70.3802188 46.2914661,70.1542232 C47.3757549,69.8716849 48.1776805,70.25593 48.3772429,71.0214442 C48.6685339,72.1395186 47.4739606,73.2467396 46.8533917,74.5298906 L47.8764114,74.2631072 C48.2491028,74.1661269 48.4302845,74.1115098 48.6645077,73.7899344 C48.723326,73.7095842 48.8120788,73.5779431 48.9202626,73.5497593 C49.0153173,73.5250766 49.1245514,73.5833698 49.1509847,73.6850766 C49.1847702,73.8137418 49.1215755,73.9604376 49.145558,74.4966302 C49.1607877,74.8327352 49.0456018,74.8628446 48.7543107,74.9388184 L46.0239825,75.6504158" id="Fill-40" fill="#FFFFFF"></path>
                <path d="M51.3636761,71.2178556 C51.1214004,70.7284026 51.4522538,70.2287965 51.8977681,70.0082276 C52.3242013,69.7969365 52.9314661,69.8713348 53.161663,70.3355799 C53.3913348,70.7998249 53.0732604,71.3090591 52.652779,71.5171991 C52.2137418,71.7346171 51.6029759,71.7010066 51.3636761,71.2178556" id="Fill-41" fill="#FFFFFF"></path>
            </g>
        </g>
    </g>
</svg>